<?xml version="1.0" standalone="no"?>
<!DOCTYPE svg PUBLIC "-//W3C//DTD SVG 1.1//EN" "http://www.w3.org/Graphics/SVG/1.1/DTD/svg11.dtd" >
<svg xmlns="http://www.w3.org/2000/svg">
<metadata></metadata>
<defs>
<font id="velesregular" horiz-adv-x="1081" >
<font-face units-per-em="2048" ascent="1638" descent="-410" />
<missing-glyph horiz-adv-x="500" />
<glyph horiz-adv-x="0" />
<glyph horiz-adv-x="682" />
<glyph unicode=" " />
<glyph unicode="!" horiz-adv-x="745" d="M98 74q0 17 11 33t27 24q2 1 5.5 3t5.5 3q20 38 55 52q25 11 48 11q43 0 79 -34q34 -33 34 -85q0 -32 -13 -58q-18 -37 -51 -63t-71 -26q-2 0 -5 0.5t-5 0.5q-89 10 -119 128q-1 3 -1 11zM148 652q0 36 4 110.5t4 111.5v24q0 149 8 224q20 204 60 364q3 14 14.5 59 t16.5 64.5t16 58.5t20 63.5t22.5 56.5t27.5 58q29 52 97 122.5t91 104.5q18 27 52 27q8 0 22 -4q38 -13 38 -50q0 -10 -5 -23q-18 -49 -77.5 -123.5t-77.5 -117.5q-38 -91 -89 -294q-87 -351 -87 -655q0 -85 7 -156q1 0 0 -9v-8q-3 -36 -30.5 -57.5t-60.5 -21.5q-1 0 -4 0.5 t-4 0.5q-27 2 -46 20.5t-19 49.5z" />
<glyph unicode="&#x22;" horiz-adv-x="784" d="M45 1738q0 14 9.5 26t25.5 14q43 5 69 5q168 0 168 -149q0 -58 -30.5 -168t-33.5 -131q-4 -26 -20.5 -39.5t-38.5 -13.5t-39 13t-17 34q0 10 5 23q12 30 24 92t12 118q0 137 -74 137q-8 0 -13 -1q-2 0 -4.5 -0.5t-3.5 -0.5q-18 0 -28.5 12.5t-10.5 28.5zM419 1750 q0 14 9.5 25.5t25.5 13.5q43 5 69 5q168 0 168 -148q0 -58 -30.5 -168.5t-33.5 -131.5q-4 -25 -20.5 -38.5t-38.5 -13.5t-39 13t-17 34q0 10 5 23q12 30 24 92t12 118q0 137 -74 137q-8 0 -13 -1q-2 0 -4.5 -0.5t-3.5 -0.5q-18 0 -28.5 12.5t-10.5 28.5z" />
<glyph unicode="#" horiz-adv-x="1611" d="M39 378q0 19 12 32.5t34 14.5q250 5 300 5q39 267 73 405q-117 0 -280 7q-22 1 -34 14t-12 32t12 33t34 15q29 1 312 20q39 132 98 243q12 23 42 23q21 0 37.5 -12t16.5 -33v-4q-4 -34 -32 -209q102 3 200 3q85 -3 166 -9q10 63 16.5 96t26.5 80.5t50 73.5q14 13 33 13 q20 0 35.5 -14.5t15.5 -33.5q0 -11 -6 -22q-37 -69 -57 -200q63 -4 141 -4q122 0 214 17q12 2 17 2q29 0 46 -18t17 -43q0 -23 -16 -41t-46 -22q-94 -12 -187 -12q-44 0 -200 7q-13 -102 -23 -151q-43 -178 -59 -254q194 0 405 11h4q30 0 46.5 -19.5t16.5 -46.5 q0 -26 -16.5 -45t-44.5 -19q-1 0 -3 0.5t-3 0.5q-222 11 -427 11q-26 -115 -53 -266q-4 -23 -19.5 -34.5t-37.5 -11.5q-29 0 -51.5 18.5t-22.5 47.5q0 11 1 16q22 107 51 230h-355q-10 -47 -32 -140.5t-32 -140.5t-58 -47q-29 0 -52 19.5t-23 50.5q0 9 1 14q7 35 14 75.5 t14.5 90.5t12.5 78l-287 6q-22 1 -34 14.5t-12 32.5zM549 432q59 0 178 -1t180 -1q15 69 45.5 207t45.5 207q-51 3 -104 3q-28 0 -42 -1q-39 -1 -112.5 -3.5t-108.5 -3.5q-39 -212 -82 -407z" />
<glyph unicode="$" horiz-adv-x="925" d="M108 266q0 31 23 51t53 20q27 0 46.5 -17.5t24.5 -51.5q6 -55 59.5 -83t123.5 -28q81 0 126 31q98 69 98 149q0 40 -22 81.5t-59.5 78.5t-72.5 66t-73 58q-10 7 -14 10q-90 68 -149.5 137.5t-70.5 153.5q-3 21 -3 40q0 104 71.5 169t183.5 85q0 86 7 184v16 q2 23 17.5 38.5t37.5 15.5h4q23 -2 39 -18.5t16 -40.5l-3 -16q-4 -128 -4 -170q124 -3 216 -59q26 -15 26 -44q0 -21 -15.5 -37.5t-37.5 -16.5q-10 0 -26 7q-54 27 -135 27q-103 0 -185.5 -43t-82.5 -112q0 -57 65 -122q37 -37 125.5 -100.5t128.5 -104.5q152 -161 152 -295 q0 -60 -33 -112q-94 -143 -262 -182q-14 -57 -14 -139q-1 -12 -2 -34t-2 -34q-2 -23 -17.5 -37.5t-37.5 -14.5h-4q-22 1 -37.5 17.5t-15.5 39.5q0 1 0.5 2t0.5 2q2 20 2 64q5 93 9 118q-2 5 -2 12q-86 11 -155.5 61.5t-110.5 140.5q-9 19 -9 37z" />
<glyph unicode="%" horiz-adv-x="1513" d="M111 1051q0 77 53 143q-3 9 -3 18q0 29 25 48q36 32 59 50t61.5 35t74.5 17h6q105 0 178.5 -86t73.5 -195q0 -95 -68 -157q-45 -40 -106 -64t-123 -24q-130 0 -192 96q-39 56 -39 119zM225 1049q0 -44 37.5 -70.5t87.5 -26.5q64 0 114 35t50 96q0 56 -41.5 103t-89.5 47 q-15 0 -21 -2q-2 -15 -12 -25.5t-28 -21.5t-25 -17q-10 -18 -31 -26q-41 -44 -41 -92zM408 -115q0 17 10 37q66 116 117 260t101 321.5t85 274.5q61 171 94.5 272t73 252.5t57.5 282.5q6 39 51 39q22 0 40 -13.5t18 -35.5v-6q-25 -203 -76.5 -423.5t-126 -448.5t-142.5 -412 t-161 -416q-17 -51 -66 -51q-30 0 -52.5 19t-22.5 48zM926 219q0 19 2 27q14 130 116 250q2 30 18 51.5t42 21.5q4 0 20 -4q30 23 45 23q16 0 31 -11.5t23 -27.5q23 0 39 -8q54 -21 92 -56q65 -71 71 -166q0 -116 -75 -203t-197 -87q-95 0 -161 49.5t-66 140.5zM1051 231 q0 -39 21.5 -62.5t62.5 -23.5q67 0 115 45t48 107v10q-3 49 -41 82q-15 13 -43.5 27t-48.5 14q-8 0 -21 -6t-14 -6q-47 -59 -69 -127q-10 -33 -10 -60z" />
<glyph unicode="&#x26;" horiz-adv-x="1562" d="M160 231v2q1 87 30 164.5t84 141.5t113.5 113.5t138.5 101.5q-8 10 -26 41q-53 93 -53 216q0 102 35.5 192.5t108 150.5t167.5 60q59 0 121 -23q88 -31 154 -95t66 -147q0 -28 -7 -53q-19 -65 -51 -116t-82 -92.5t-93.5 -69t-115.5 -66.5q-8 -5 -25 -14.5t-25 -14.5 q75 -87 170 -152q152 -107 244 -163q138 147 281 372q14 24 40 24q20 0 35 -14t15 -33q0 -14 -6 -24q-131 -229 -265 -383q185 -95 344 -95q76 0 156 24q10 3 21 3q29 0 47.5 -23.5t18.5 -52.5q0 -52 -50 -61q-71 -14 -155 -14q-232 0 -480 115q-228 -218 -498 -258 q-35 -5 -70 -5q-51 0 -103 8t-104 27t-91.5 46.5t-64.5 70.5t-25 96zM320 290q0 -83 63 -134.5t164 -51.5q48 0 100 13q194 50 357 188q-251 144 -410 350q-122 -80 -191 -168q-83 -102 -83 -197zM566 1052q0 -18 1 -28q12 -111 66 -205q8 5 73 44.5t95 60.5 q64 27 107.5 89.5t43.5 125.5q0 100 -108 131q-41 10 -79 10q-97 0 -148 -65.5t-51 -162.5z" />
<glyph unicode="'" horiz-adv-x="145" d="M115 1258q0 22 18 41q36 38 67.5 102.5t31.5 122.5q0 66 -46 105q-29 36 -29 76q0 47 36 80.5t84 33.5q51 0 89 -38q63 -62 63 -141q0 -60 -32 -128t-88.5 -151.5t-71.5 -111.5q-23 -42 -63 -42q-24 0 -41.5 15t-17.5 36z" />
<glyph unicode="(" horiz-adv-x="806" d="M155 486q0 266 51 486q121 530 387 825q58 65 156.5 122.5t177.5 57.5q88 0 122 -77q6 -12 6 -24q0 -27 -25 -47t-53 -20q-34 0 -48 29q-9 21 -30 21q-50 0 -149 -100t-126 -145q-71 -114 -123 -241q-143 -353 -173 -591q-12 -96 -12 -223q0 -101 8.5 -193.5t34 -193 t65.5 -173.5t108 -120t157 -47q22 0 33 1q2 0 5 0.5t4 0.5q24 0 36.5 -13t12.5 -33q0 -25 -19 -47.5t-51 -27.5q-42 -7 -87 -7q-108 0 -191.5 46t-134.5 120.5t-84 179t-45.5 210t-12.5 224.5z" />
<glyph unicode=")" horiz-adv-x="880" d="M-2 -187q0 23 15 39.5t41 16.5q2 0 5 -0.5t4 -0.5q11 -1 31 -1q78 0 148 38.5t121 100t94.5 145t72.5 167.5t51 173.5t33 158t16 124.5q4 52 4 116q0 182 -51 448q-24 118 -69 229q-18 45 -92 139.5t-122 94.5q-20 0 -33 -19q-20 -29 -51 -29q-24 0 -42.5 15.5 t-18.5 38.5q0 18 11 33q48 73 131 73q76 0 158.5 -54.5t124.5 -116.5q196 -284 204 -787v-24q0 -78 -8 -171t-29.5 -209t-53.5 -226t-84 -216.5t-117.5 -185.5t-158.5 -127.5t-201 -48.5q-39 0 -81 6q-26 4 -39.5 21t-13.5 39z" />
<glyph unicode="*" horiz-adv-x="647" d="M162 1767q0 21 16 37t39 16q40 0 66 -40q22 -31 82 -31q-1 2 -2.5 6t-3 7.5t-1.5 6.5q-6 30 -6 57q0 10 2 32l19 73q6 26 23.5 44t39.5 18q16 0 29 -8q27 -17 27 -43q0 -23 -23 -60l-4 -4q-10 -32 -10 -59q0 -22 8 -41q29 42 75 70.5t97 35.5q1 1 14 8q16 8 31 8 q25 0 43 -17t18 -44q0 -28 -16.5 -44t-40.5 -16q-14 0 -31 7h-4q-64 -14 -98 -53q26 3 53 0q40 -6 72 -23q24 -12 37 -27q14 -6 33 -29.5t19 -46.5q0 -19 -13 -32q-12 -12 -28 -12q-30 0 -81 51q-9 9 -29 12q-4 1 -11.5 4.5t-13.5 5.5t-11 2q-15 0 -39 -4q16 -45 24 -86 q7 -34 4 -63q0 -4 -4.5 -25.5t-3.5 -25.5t1 -13q0 -26 -18.5 -45.5t-43.5 -19.5q-13 0 -29 8q-29 17 -29 50q0 27 21 46q4 19 4 41q0 37 -12 82q-17 -28 -47 -55q-27 -23 -56 -35q-7 -3 -23.5 -10t-23.5 -10q-27 -9 -46 -9q-45 0 -56 41q-3 15 -3 16q0 24 17.5 42.5 t41.5 18.5q9 0 19 -3q4 -2 14 -2q24 0 50.5 23.5t42.5 50.5q-16 -2 -24 -2q-15 0 -29 2.5t-31 9t-26.5 10t-31.5 14t-28 13.5q-21 11 -36 30t-15 39z" />
<glyph unicode="+" horiz-adv-x="1439" d="M168 813q0 29 19.5 53t50.5 25q51 3 101 3q77 0 288 -11q0 217 4 323q1 31 20 48t45 17t45.5 -17.5t20.5 -47.5q4 -109 4 -329q220 0 352 38q18 5 31 5q39 0 63 -29.5t24 -68.5q0 -38 -23.5 -66.5t-69.5 -32.5q-157 -15 -314 -15l-61 1q4 -215 20 -347q0 -2 0.5 -5.5 t0.5 -5.5q0 -37 -27.5 -57.5t-65.5 -20.5t-65.5 20.5t-27.5 57.5q0 2 0.5 5.5t0.5 5.5q18 144 21 351q-185 8 -406 41q-51 8 -51 59z" />
<glyph unicode="," horiz-adv-x="561" d="M156 -435q0 23 20 44q39 41 74 112.5t35 135.5q0 72 -49 114q-33 40 -33 84q0 51 40 88t93 37q54 0 96 -41q70 -67 70 -155q0 -51 -25 -114t-55 -110t-71.5 -110t-59.5 -96q-24 -46 -69 -46q-26 0 -46 16.5t-20 40.5z" />
<glyph unicode="-" d="M119 616q0 36 59.5 61t167.5 25q83 0 170 -3t194 -11t174.5 -26.5t67.5 -45.5q0 -48 -94.5 -60.5t-368.5 -12.5h-135q-99 0 -150 7.5t-68 22.5t-17 43z" />
<glyph unicode="." horiz-adv-x="675" d="M177 57q0 65 46.5 112.5t110.5 47.5q60 0 90.5 -49t30.5 -120q0 -62 -47 -100t-114 -38q-117 0 -117 147z" />
<glyph unicode="/" horiz-adv-x="706" d="M28 -7q0 21 11 40q105 193 335.5 665t375.5 719q18 32 49 32q25 0 44 -19t19 -46q0 -13 -6 -28q-56 -129 -184 -380t-185 -380q-15 -34 -68 -157.5t-77.5 -178t-72 -145.5t-93.5 -162q-26 -37 -66 -37q-32 0 -57 22.5t-25 54.5z" />
<glyph unicode="0" horiz-adv-x="1302" d="M126 465q0 77 11.5 160.5t39.5 173.5t69 161t107 116.5t147 45.5q8 0 24 -2q8 0 11 -1q16 10 48 28q123 65 243 65q159 0 252 -122q125 -166 125 -371q0 -167 -82 -325q-41 -81 -96 -157t-122.5 -144.5t-148 -118t-162.5 -68.5q-49 -11 -89 -11q-76 0 -140 34t-107 90.5 t-73 130.5t-43.5 153.5t-13.5 161.5zM259 499q0 -70 10.5 -142.5t35 -149t74 -125t117.5 -48.5q17 0 35 3q94 16 190.5 82t172.5 158.5t124 208.5t48 224q0 159 -103 273q-71 78 -166 78q-72 0 -153 -44.5t-146.5 -112t-116 -143.5t-71.5 -141q-12 -37 -48 -49 q-3 -41 -3 -72z" />
<glyph unicode="1" horiz-adv-x="935" d="M-30 785q0 31 23 57t55 26h8q94 0 188 52t166.5 133t125.5 175t76 183q8 30 32.5 46t54.5 16q35 0 61 -20t26 -54q0 -5 -2 -15q-61 -346 -91 -670q-8 -87 -29 -376q-1 -18 -11.5 -113.5t-10.5 -146.5q0 -45 8 -91q2 -14 2 -20q0 -41 -31 -65.5t-71 -24.5q-36 0 -61 21 t-25 61q0 13 5 33q15 61 15 167q0 20 -0.5 60.5t-0.5 59.5q0 22 2 64q12 209 29 376q16 156 26 234q-97 -107 -208.5 -170.5t-226.5 -63.5q-42 0 -89 11q-46 12 -46 55zM2617 1483z" />
<glyph unicode="2" horiz-adv-x="1138" d="M125 1052q0 13 5 24q35 84 115.5 139t192.5 98q3 1 27.5 10.5t31.5 12t29.5 10.5t33 11t31 9t34 8t31 4t33.5 2q48 0 88 -17q151 -66 151 -253q0 -151 -88 -309q-146 -263 -314 -432q-2 -2 -38 -35.5t-57.5 -56t-44 -55.5t-22.5 -55q0 -34 49 -45q62 -13 132 -13 q78 0 158.5 13t205.5 44t150 37q12 3 22 3q31 0 48.5 -20.5t17.5 -49.5q0 -34 -22.5 -60t-62.5 -29q-81 -5 -261.5 -44.5t-280.5 -39.5q-29 0 -44 1q-64 4 -123 25t-103 63.5t-44 98.5q0 46 28 95q33 57 118.5 140.5t115.5 125.5q18 26 97.5 127.5t122 171t66.5 144.5 t24 140q0 138 -109 138q-30 0 -64 -10q-61 -17 -101 -30.5t-96.5 -37.5t-98 -57t-65.5 -73q-19 -30 -54 -30q-26 0 -45.5 16t-19.5 41z" />
<glyph unicode="3" horiz-adv-x="1130" d="M98 1105q0 26 24 49q86 84 216 146.5t250 62.5q125 0 207 -75q58 -54 58 -123q0 -61 -37.5 -126.5t-100.5 -142.5q121 -23 214.5 -85t131.5 -163q28 -74 28 -150q0 -185 -146 -339q-87 -92 -204 -154.5t-231 -62.5q-81 0 -149 34q-147 74 -147 205q0 97 84 189 q25 28 58 28q35 0 62 -31t27 -68q0 -50 -55 -73q-7 -15 -7 -30q0 -34 46 -49q44 -28 94 -28q27 0 46 5q80 21 148 63q193 120 210 258q2 13 2 37q0 68 -33 121.5t-87.5 84.5t-117.5 47t-131 18q-31 1 -51 23t-20 51q0 23 15 44q2 3 58.5 67t99 123.5t42.5 89.5q0 11 -7 17 q-50 47 -128 47q-143 0 -365 -154q-21 -14 -43 -14q-25 0 -43 17t-18 41z" />
<glyph unicode="4" horiz-adv-x="1001" d="M122 672q0 30 6.5 62.5t21.5 71t24 59.5t31 66t26 53q3 6 30 77t53.5 114t60.5 60q13 6 27 6q36 0 51 -31q10 -20 8 -52q-3 -34 -38 -49q-2 -5 -7.5 -17t-8.5 -19q-9 -21 -29.5 -63.5t-29.5 -63.5q-6 -14 -28.5 -60.5t-33 -71.5t-21.5 -63.5t-11 -68.5q0 -44 129 -44 q128 0 255 34q70 297 174 507q8 17 28 29.5t40 12.5q32 0 44 -34q7 -20 7 -39q0 -21 -11 -51q-5 -18 -22 -28q-86 -243 -128 -409q8 -16 8 -35q0 -37 -30 -59q-46 -211 -46 -397q0 -34 7.5 -103.5t7.5 -104.5q0 -34 -25.5 -54.5t-56.5 -20.5q-28 0 -48.5 17.5t-20.5 49.5 q0 310 45 583q-181 -34 -266 -34q-203 0 -221 141q-2 20 -2 29z" />
<glyph unicode="5" horiz-adv-x="1019" d="M74 102q0 35 33.5 64t70.5 29q53 0 67 -64q11 -53 77 -53q53 0 126 32t139 80t112 110.5t46 117.5v32q-11 66 -60 98t-118 32q-45 0 -93 -16q-24 -8 -87 -49t-102 -41q-9 0 -13 1q-28 4 -43.5 20.5t-15.5 41.5q0 11 3 23q12 39 19 80.5t13.5 104t9.5 82.5q-21 2 -37 22 q-74 93 -74 172q0 45 23.5 86t60 74t94.5 64t114 53.5t131.5 45t134 36.5t135 29t121 22.5t105.5 17.5t75 12t19 2q36 0 55.5 -23t19.5 -55q0 -36 -24 -64t-66 -28h-3q-45 0 -139.5 -12t-215.5 -37.5t-229.5 -59.5t-183 -84t-74.5 -105q0 -25 16 -51q14 6 29 6q22 0 37 -12 t15 -35q0 -9 -1 -14q-12 -60 -32 -225q54 26 89 35q80 20 139 20q54 0 101 -16q95 -32 147 -105.5t52 -168.5q0 -45 -12 -91q-32 -125 -137 -224.5t-239 -156.5q-89 -37 -167 -37q-42 0 -74 11q-35 11 -59.5 27.5t-60.5 52t-47 45.5q-22 19 -22 46z" />
<glyph unicode="6" horiz-adv-x="1132" d="M114 514q0 165 64.5 331t171.5 289q183 210 378 275q58 20 115 20q107 0 107 -84q0 -17 -2 -27q-4 -23 -25.5 -38.5t-44.5 -15.5q-10 0 -20.5 11t-16.5 21.5t-7 10.5q-8 0 -106.5 -48t-112.5 -59q-138 -108 -216 -233q-63 -101 -103 -218.5t-40 -229.5q0 -69 15 -124 q248 223 447 223q32 0 65 -6q100 -19 172.5 -77.5t72.5 -144.5q0 -38 -15 -78q-55 -146 -188.5 -244t-279.5 -98q-162 0 -277 124q-154 165 -154 420zM335 259q47 -65 113.5 -103t136.5 -38q106 0 189 87q96 99 96 158q0 10 -1 15q-10 41 -53 61t-93 20h-14 q-98 -7 -187.5 -53.5t-154.5 -121.5q-14 -17 -32 -25z" />
<glyph unicode="7" horiz-adv-x="1017" d="M88 532q0 21 18.5 50.5t40.5 33.5q82 21 118.5 26t95.5 5t118 4q27 127 70 242q74 206 153 315q-55 1 -112.5 7.5t-141 21t-112.5 18.5q0 -25 -16 -45t-39 -20q-16 0 -29 10q-57 46 -90 105q-6 9 -6 24q0 25 21.5 45.5t47.5 20.5h2q69 -3 234.5 -33.5t251.5 -30.5 q65 0 141 17q30 18 82 32q8 2 16 2q29 0 47.5 -20.5t18.5 -46.5q0 -47 -43 -62q-3 -1 -47 -18q-158 -71 -266 -438q-4 -14 -17.5 -60.5t-19.5 -72.5q127 12 184 28q8 2 22 2q30 0 46 -19t16 -48q0 -31 -21.5 -56t-60.5 -28q-123 -7 -215 -17q-1 -9 -5 -29t-5 -32 q-2 -16 -7 -54.5t-8 -63.5t-5.5 -61t-2.5 -65q0 -114 39 -188q8 -13 8 -31q0 -31 -27.5 -52.5t-58.5 -21.5q-28 0 -45.5 17.5t-17.5 52.5q0 46 -14.5 137t-14.5 137q0 139 21 244q-126 -16 -140 -16q-11 0 -37 2q-39 -9 -67 -9q-17 0 -49 5q-3 0 -13.5 1.5t-14.5 2t-13 2.5 t-13 4t-9 5.5t-7 8t-2 10.5z" />
<glyph unicode="8" horiz-adv-x="1001" d="M99 276v26q7 57 46 113t83 92.5t104.5 85t89.5 78.5q-40 74 -57.5 107.5t-37 81t-21.5 74.5q-4 54 -4 80q0 204 102 295q35 31 96 31q49 0 83 -22q10 -4 22 -20q58 24 96 29q11 2 32 2q82 0 121 -64t39 -155q0 -28 -2 -44q-4 -35 -15 -69t-33 -68t-39.5 -59t-52 -60 t-53 -53t-59.5 -55t-54 -49q40 -76 72 -154q64 -163 64 -264q0 -65 -24 -113q-38 -72 -107.5 -117.5t-149.5 -45.5q-28 0 -44 2q-115 21 -206 112t-91 203zM246 287q0 -70 64 -132t135 -62q22 0 33 4q114 30 114 145q0 106 -107 313q-14 -12 -73.5 -59t-92 -80t-55.5 -71 q-18 -25 -18 -58zM422 1064q-2 -4 6.5 -31.5t4.5 -31.5q0 -51 23 -98q33 -71 71 -139q51 45 85.5 79t75.5 81t62 92.5t21 87.5q0 38 -18 73q-13 25 -45 25q-21 0 -60 -16q0 -9 1 -25t1 -24q0 -21 -18.5 -35t-41.5 -14q-14 0 -41 27t-33 42h-7q-47 0 -66 -22t-21 -71z" />
<glyph unicode="9" horiz-adv-x="1060" d="M60 64q0 37 29 67.5t66 30.5q33 0 60 -28q45 -48 105 -48q45 0 95.5 27t94 69t83 92t67 95t41.5 80q49 118 66 286q-124 -134 -286 -167q-34 -7 -71 -7q-113 0 -195.5 64.5t-82.5 174.5q0 2 0.5 7t0.5 8q8 138 86 265t199 183q67 32 143 32q87 0 161 -42.5t115 -119.5 q7 2 21 2q31 0 55 -21t24 -55q0 -135 -5.5 -230t-24.5 -213t-62 -220.5t-111 -191.5q-134 -177 -283 -248q-57 -27 -120 -27q-77 0 -216 62q-55 24 -55 73zM288 829q0 -58 36.5 -85t93.5 -27q48 0 97.5 17.5t81.5 44.5q111 95 164 228q-14 8 -22 24q-62 113 -164 113 q-66 0 -133 -46t-110.5 -120t-43.5 -149z" />
<glyph unicode=":" horiz-adv-x="555" d="M88 266q0 3 2 10.5t2 10.5q6 56 44 93.5t89 37.5q3 0 8.5 -2t8.5 -2q47 -5 78.5 -42t31.5 -89q0 -4 -2 -13.5t-2 -13.5q-6 -57 -44 -93t-89 -36h-14q-47 4 -80 45t-33 94zM123 887v20q6 56 47.5 93.5t93.5 37.5h12q47 -6 79 -44t32 -89q0 -4 -1 -12t-1 -12 q-6 -57 -45 -94t-90 -37h-14q-48 6 -80.5 45.5t-32.5 91.5z" />
<glyph unicode=";" horiz-adv-x="651" d="M162 -189q0 22 18 41q36 39 67.5 102.5t31.5 121.5q0 66 -46 105q-29 36 -29 77q0 47 36.5 80.5t84.5 33.5q50 0 88 -38q63 -62 63 -141q0 -47 -22.5 -104t-50 -100t-65.5 -100.5t-54 -87.5q-23 -41 -63 -41q-24 0 -41.5 15t-17.5 36zM209 862v21q6 56 47.5 93.5 t93.5 37.5h12q47 -6 79 -44t32 -89q0 -4 -1 -12.5t-1 -12.5q-6 -57 -45 -94t-90 -37h-14q-48 6 -80.5 45.5t-32.5 91.5z" />
<glyph unicode="&#x3c;" horiz-adv-x="792" d="M98 590q2 17 7 32.5t16.5 31t19.5 26t27 26t26 21t29.5 22t26.5 19.5q73 53 179.5 165t150.5 150q11 11 26 11t26.5 -11t11.5 -26t-11 -27q-24 -26 -95 -118t-120 -132q-80 -65 -176 -180q14 -8 23.5 -17t19.5 -16q15 -11 42.5 -33t41.5 -34q55 -46 89.5 -73t87.5 -59.5 t103 -50.5q40 -16 40 -57q0 -23 -14 -41t-36 -18q-12 0 -21 4q-85 33 -168 92t-174 134.5t-153 115.5q-11 6 -18.5 18.5t-6.5 24.5z" />
<glyph unicode="=" horiz-adv-x="1001" d="M92 405q0 14 7.5 26t21.5 15q118 26 281 26q78 0 221.5 -7t177.5 -8q27 -1 42 -19t15 -41t-15 -40.5t-42 -18.5q-100 -2 -152 -2q-293 0 -528 33q-29 4 -29 36zM135 730q0 17 10 29.5t27 12.5h2q94 -5 224 -5q190 0 413 13h4q25 0 39 -17.5t14 -41.5q0 -25 -14 -42.5 t-39 -17.5q-1 0 -2 0.5t-2 0.5q-31 1 -94 1q-37 0 -111 -1t-111 -1q-200 0 -331 31q-29 7 -29 38z" />
<glyph unicode="&#x3e;" horiz-adv-x="944" d="M128 225q0 26 28 41q77 39 156.5 92t175.5 123.5t149 106.5q-190 139 -371 307q-11 11 -11 26q0 16 12 29t28 13q8 0 20 -7q84 -52 229 -167t212 -160q25 -15 25 -45q0 -29 -25 -45q-66 -41 -250.5 -174.5t-296.5 -190.5q-13 -6 -25 -6q-23 0 -39.5 17.5t-16.5 39.5z" />
<glyph unicode="?" horiz-adv-x="1095" d="M93 1341q0 76 47 179t88 142q111 106 265.5 184.5t296.5 78.5q54 0 97 -11q61 -16 108 -48q104 -73 104 -214q0 -77 -30 -160t-79 -152q-38 -54 -83 -109.5t-106 -126t-89 -103.5q-9 -10 -53 -62t-64 -77.5t-57.5 -77.5t-56.5 -88t-34.5 -81.5t-15.5 -84.5q0 -2 0.5 -7 t0.5 -7q1 -20 -5 -38q-17 -49 -74 -49q-15 0 -30 5q-42 16 -42 57q0 16 5 30q14 37 37.5 116.5t47.5 137t59 110.5q61 92 218 278q18 21 65.5 71.5t82 91t73.5 92t60 102.5t21 95q0 15 -3 28q-6 35 -21 59q-37 62 -130 62q-74 0 -164.5 -34.5t-160.5 -76.5 q-40 -24 -60.5 -37t-50.5 -39t-46 -52q-1 -2 -12 -19t-15.5 -25t-14 -25t-14 -28.5t-8.5 -25.5t-4 -25q0 -22 14 -33q15 -14 15 -34q0 -22 -16.5 -42.5t-37.5 -24.5q-19 -4 -37 -4q-42 0 -66 24q-25 25 -25 78zM258 -35q0 6 1 9q0 2 1 7t2 7v12q2 40 34 66q13 10 32 18 q24 16 48 16q10 0 21 -3q20 -6 32 -20q1 0 3 -1h2q17 -4 29.5 -19t14.5 -32q1 -7 1 -22q0 -78 -57 -109q-21 -12 -46 -12q-35 0 -63 20q-2 2 -7 6.5t-7 5.5l-2 1q-16 5 -27.5 19t-11.5 31z" />
<glyph unicode="@" horiz-adv-x="1593" d="M140 473q0 117 45 232t123 210t177.5 172t214 125.5t227.5 63.5q38 5 67 5q105 0 200.5 -41.5t164 -110t109.5 -162t41 -194.5q0 -96 -36 -187q-52 -130 -143 -211t-218 -81q-104 0 -162 90q-95 -103 -209 -103q-31 0 -58 7q-89 22 -136 87.5t-47 152.5q0 56 20 114 q40 116 120.5 184.5t193.5 68.5q11 0 31 -2q88 -7 139.5 -63t51.5 -135q0 -19 -3 -38q7 -15 6 -36q-1 -7 -5.5 -27.5t-4.5 -31.5q0 -49 27.5 -86.5t70.5 -37.5q29 0 60 19q78 47 116 141q35 86 35 174q0 96 -44 175q-103 183 -317 183q-90 0 -185 -32t-178 -87 q-89 -59 -165.5 -137t-132 -182t-55.5 -201q0 -123 87 -223q94 -108 248.5 -168t314.5 -60q53 0 111 8q5 1 16 1q32 0 49 -20t17 -48q0 -31 -20.5 -55t-57.5 -24h-1q-80 1 -153.5 6.5t-162.5 20.5t-164 38t-150 61.5t-129.5 89.5t-92.5 124t-49 162q-4 31 -4 69zM647 524 q0 -73 55 -87q22 -5 39 -5q61 0 105 45t60 110q2 20 6 38q1 8 5 19q5 15 13 25q-5 38 -31.5 60t-69.5 22q-1 0 -3 -0.5t-3 -0.5q-116 -4 -156 -121q-20 -58 -20 -105z" />
<glyph unicode="A" horiz-adv-x="1284" d="M-121 328q0 14 17 39q82 118 245 188q22 295 113 549q210 596 489 596h7q53 0 95.5 -20t71 -56.5t49 -76.5t33 -94.5t19.5 -96t12 -94.5q14 -121 23 -352t10 -267q35 -21 35 -68q0 -40 -27 -61q20 -272 94 -491q2 -8 2 -25q0 -30 -22 -48t-53 -18q-53 0 -70 50 q-78 224 -98 522q-28 0 -91 1t-98 1q-291 0 -448 -47v-58q0 -158 26 -297q29 -23 29 -57q0 -1 -1 -6t-1 -8v-15q-1 -17 -18.5 -33t-34.5 -18l-15 -2h-18q-61 0 -72 53q-44 184 -47 373q-45 -27 -59 -41q4 -16 4 -24q0 -32 -19.5 -55t-54.5 -23h-49q-30 0 -54 25t-24 55z M299 608q198 47 518 47q18 0 52.5 -1t50.5 -1q-1 47 -8.5 143.5t-8.5 147.5q-1 27 -1.5 107.5t-3.5 128.5t-11 116.5t-26.5 122t-47.5 94.5q-28 41 -68 41q-46 0 -103 -64.5t-105 -155t-92.5 -192t-70 -171.5t-32.5 -97q-20 -99 -43 -266z" />
<glyph unicode="B" horiz-adv-x="1515" d="M-324 356q0 37 26.5 58.5t61.5 21.5q29 0 50.5 -15.5t21.5 -45.5q0 -11 -2 -17q0 -2 -1 -6.5t-1 -7.5q0 -108 354 -135q0 5 1 17t1 18q0 27 -3 78.5t-3 64.5q0 32 2 124t2 122v33v39q0 22 -1 54.5t-1 51.5q0 36 2 63q4 175 19 313t57 253q-23 -18 -47 -37.5t-31 -25.5 t-19.5 -15t-22.5 -15t-29 -18q-18 -12 -37 -12q-23 0 -44.5 36t-21.5 62t25 43q138 109 216.5 152t244.5 96q95 31 196 31q111 0 201 -38t127 -120q20 -47 20 -96q0 -176 -258 -375q163 -2 303 -59t222 -170q94 -128 94 -275q0 -130 -72.5 -244t-198.5 -176 q-151 -77 -356 -114t-407 -37q-28 0 -80.5 -4t-77.5 -4q-27 0 -39 2q-166 18 -206 25q-205 39 -263 161q-18 37 -23 84q-2 4 -2 59zM354 854q0 -39 5.5 -117.5t5.5 -118.5v-30q0 -25 -4.5 -87t-4.5 -95q0 -85 21 -136q6 -15 6 -32q0 -27 -18 -45h41q342 0 579 96 q40 17 63.5 27.5t58.5 29.5t60.5 41.5t42.5 48.5q43 67 43 160q0 110 -59 184q-74 91 -191.5 139t-248.5 48q-151 0 -275 -62q-16 -8 -35 -8q-27 0 -44 20.5t-17 47.5q0 42 39 65q176 107 301 213q1 1 29 26t41 37t38.5 39.5t39 47t25 44t11.5 44.5q0 22 -10 37 q-54 94 -197 94q-75 0 -155.5 -25.5t-138.5 -60.5q-5 -3 -16.5 -10.5t-16.5 -10.5q8 -2 12 -2q22 0 37.5 -12t15.5 -33q0 -16 -4 -24q-18 -42 -31.5 -91t-21 -85t-13 -96.5t-7 -87.5t-4 -98.5t-3.5 -90.5v-31z" />
<glyph unicode="C" horiz-adv-x="1452" d="M91 658q0 135 31 269q69 296 320 542q88 86 250 162t297 76q47 0 84 -10q125 -33 186.5 -106t61.5 -167q0 -137 -112 -262t-276 -156q-12 -2 -17 -2q-25 0 -39 15t-14 36q0 20 13 36.5t37 21.5q99 22 179.5 104t80.5 172q0 43 -20 79q-62 113 -194 113t-273 -101 q-177 -128 -285.5 -321.5t-134.5 -405.5q-5 -45 -5 -83q0 -74 14 -146t46.5 -141.5t80.5 -122.5t121.5 -87.5t163.5 -39.5q9 -1 28 -1q131 0 278.5 55t232.5 138q29 28 61 28q25 0 43 -16.5t18 -40.5q0 -27 -23 -51q-108 -119 -283 -180.5t-350 -61.5q-141 0 -231 37 q-104 42 -179 111t-115 154t-58 171t-18 182z" />
<glyph unicode="D" horiz-adv-x="1437" d="M23 119q0 30 21 53t54 23q8 0 35 -9q105 -47 225 -47q119 0 241.5 46t225.5 127t184.5 182.5t128 221.5t46.5 236q0 20 -4 66q-13 111 -58 205t-113.5 160.5t-156 113t-186 68.5t-203.5 22q-28 0 -74 -4v-4v-2q-10 -186 -18 -621t-25 -669q-3 -32 -26 -50t-50 -18 q-28 0 -48.5 18t-20.5 50q1 38 5.5 244.5t6.5 280.5t7 232t11.5 279t14.5 242q-2 0 -5 -1t-5 -1q-31 0 -50.5 23t-19.5 52q0 22 13 40t36 24q126 33 262 33q171 0 326 -55.5t273.5 -156t188.5 -252t70 -331.5q0 -53 -2 -80q-8 -96 -51.5 -202.5t-111.5 -206.5t-160.5 -192 t-193.5 -160.5t-216.5 -109t-224.5 -40.5q-178 0 -318 106q-34 22 -34 64z" />
<glyph unicode="E" horiz-adv-x="1056" d="M66 1416q0 31 26 50q47 36 117 76q1 33 1 97q0 65 -1 98v4q0 25 16 39t39 14q24 0 42.5 -15t19.5 -42q4 -47 4 -142q89 34 168 47q71 13 167 13q29 0 87.5 -1.5t87.5 -1.5q96 0 166 13q14 2 19 2q35 0 54.5 -22.5t19.5 -53.5t-19 -53.5t-53 -22.5q-3 0 -6.5 0.5t-8 1.5 t-6.5 1q-101 19 -221 19q-248 0 -457 -83q-2 -54 -5 -108t-9.5 -125t-9.5 -102.5t-13 -124.5t-12 -107q77 17 185 17q20 0 212 -9q29 -2 45 -21t16 -43t-16 -42.5t-45 -20.5q-17 -1 -54 -1q-24 0 -75 1t-77 1q-126 0 -206 -24q-17 -149 -22 -274q0 -6 -7 -82t-7 -125 q0 -227 123 -227q28 0 59 10q32 10 67.5 24t61 24.5t66.5 29.5t59.5 28t65.5 32t61 30q18 8 30 8q27 0 46.5 -20.5t19.5 -46.5q0 -33 -33 -52q-3 -2 -34.5 -20t-44 -25t-48 -26t-56 -29.5t-57 -27.5t-62 -27t-60.5 -22.5t-63 -19t-58.5 -11.5t-57.5 -5q-167 0 -196 170 q-26 149 -26 313q0 148 19.5 321.5t48.5 372.5t40 323q-31 -15 -47 -27q-15 -11 -32 -11q-22 0 -38 19t-16 44z" />
<glyph unicode="F" horiz-adv-x="1005" d="M79 8q0 2 0.5 4t0.5 4q15 154 42 492t46 516q3 28 7.5 206.5t27.5 268.5q-4 12 -4 20q0 31 26 48q1 2 10 22t15 29q15 26 47 26q39 0 49 -34q190 57 402 57q174 0 346 -41q38 -9 38 -53q0 -22 -12.5 -38t-33.5 -16q-1 0 -3.5 0.5t-3.5 0.5q-186 24 -344 24 q-231 0 -420 -57q-24 -87 -31 -205q-7 -110 -7 -242q1 -8 1 -18v-31q0 -119 -4 -174q81 35 221 35q38 0 111 -3t107 -3q51 0 96 6q1 0 5 0.5t5 0.5q27 0 45 -20t18 -45q0 -41 -42 -51q-35 -9 -78.5 -13.5t-73 -5t-83.5 -1t-75 -0.5h-20h-51q-152 0 -197 -39 q-41 -451 -45 -662q-1 -32 -22.5 -49t-50.5 -17q-27 0 -46 15t-19 43z" />
<glyph unicode="G" horiz-adv-x="1415" d="M89 731q0 67 7 117q15 106 56 216.5t107.5 215t150.5 187t192.5 135t224.5 57.5h25q163 0 259 -90.5t96 -222.5q0 -150 -122 -279q-15 -16 -32 -16q-19 0 -35 16.5t-16 36.5q0 19 14 33q83 90 83 183q0 92 -75.5 154t-181.5 62q-80 0 -154 -39q-153 -84 -239 -172 q-113 -119 -175 -271t-62 -313q0 -106 28 -206q23 -83 56.5 -155.5t80 -134t109 -97.5t133.5 -36q88 0 188 58q239 140 334 391q-264 -7 -338 -7l-148 3q-31 1 -48.5 20.5t-17.5 46.5t17.5 47t48.5 21q87 4 183 6.5t217.5 4t181.5 2.5q29 0 49.5 -21.5t20.5 -50.5 q0 -13 -2 -19q-33 -121 -99.5 -233.5t-157 -201.5t-209 -142.5t-244.5 -53.5q-27 0 -54 3q-92 8 -169.5 60t-128.5 128.5t-86.5 173.5t-51.5 193.5t-16 189.5z" />
<glyph unicode="H" horiz-adv-x="1265" d="M-217 852q0 14 2 20q5 16 22.5 32.5t42.5 21.5q46 20 78.5 26.5t95 14.5t144.5 28q10 3 10 15v51q0 156 2.5 241t14 218.5t40.5 247.5t76 223q15 35 70 35q5 0 14.5 -0.5t12.5 -0.5q47 0 47 -104q0 -11 -4 -23q-68 -229 -88.5 -357.5t-20.5 -315.5v-168q0 -12 12.5 -25 t26.5 -10q173 20 371 20q18 0 55 -1t57 -1q7 0 12 5t5 10q13 196 71 524q8 42 22.5 58t49.5 16q37 0 54.5 -10t21.5 -44v-14l-2 -12q-7 -48 -20.5 -138.5t-21.5 -146t-17 -131t-13 -137.5q0 -10 10 -21.5t21 -13.5q24 -7 32.5 -17.5t8.5 -29.5q0 -39 -64 -59q-10 -3 -10 -17 q0 -368 127 -719q4 -12 4 -14q0 -4 -4 -16q-13 -39 -25.5 -54.5t-38.5 -15.5h-16q-58 0 -65 29q-134 358 -134 778v10q0 12 -10 23.5t-24 11.5q-70 4 -99 4q-166 0 -377 -27q-15 -3 -12 -22q0 -26 1 -126.5t1 -136.5t2.5 -128t7 -138.5t13.5 -127.5t22 -136.5t32 -123.5 t44 -128q4 -8 4 -12q0 -39 -27 -55.5t-63 -16.5q-60 0 -88 62q-38 91 -61 191.5t-32 223.5t-11 201.5t-2 221.5v202q0 12 -11.5 25t-27.5 10q-97 -18 -151 -26t-80 -9.5t-40 -3.5q-10 -2 -28 -2q-19 0 -28.5 0.5t-21.5 3.5t-17 10.5t-5 20.5z" />
<glyph unicode="I" horiz-adv-x="512" d="M121 332v61q0 55 3 111.5t10 137.5t9 103q21 239 21 627v205q0 42 16.5 68t50.5 26q40 0 71.5 -23.5t31.5 -62.5v-51q0 -9 -4 -21v-53q0 -316 -29 -659q-1 -15 -15 -158t-14 -221q0 -227 84 -363q13 -19 13 -36q0 -30 -29 -50t-66 -20q-53 0 -84 45q-44 71 -56.5 146 t-12.5 188z" />
<glyph unicode="J" horiz-adv-x="1077" d="M-49 389q0 98 54 161t158 63q35 0 77 -9q20 -4 30.5 -20t10.5 -35q0 -23 -13.5 -40.5t-36.5 -17.5q-1 0 -3 0.5t-3 0.5q0 1 -10 0h-10q-62 0 -92.5 -30t-30.5 -80q0 -87 75 -173t171 -86q60 0 116 39q134 93 201 221q101 205 125 512q9 119 17.5 343t21.5 384l37 68 q13 6 33 6q33 0 56.5 -23t23.5 -56q0 -7 -1 -11q-15 -124 -23.5 -305.5t-13 -314.5t-30.5 -294t-76 -286q-162 -405 -450 -420q-3 0 -10 -0.5t-11 -0.5q-72 0 -136 24.5t-110 66t-80 93.5t-50.5 108.5t-16.5 111.5z" />
<glyph unicode="K" horiz-adv-x="1548" d="M90 109q0 36 4 94q1 215 9 693t8 730q0 33 22 50.5t51 17.5t51.5 -18.5t22.5 -51.5q-1 -146 -7 -439.5t-7 -441.5l112 213q211 357 553 674q46 42 79 70t92.5 72.5t117 68t107.5 23.5q58 0 100 -33q88 -66 88 -174q0 -85 -47 -195q-17 -47 -72 -47q-28 0 -48.5 16 t-20.5 44q0 2 6 26q39 112 39 156q0 61 -47 61q-35 0 -103 -39q-117 -72 -190 -145q-19 -19 -37 -38t-38.5 -41.5t-34.5 -38.5t-37 -43t-33 -39.5t-36 -44t-32.5 -40t-35 -44t-32.5 -40.5l-106 -141q61 -8 121 -32t122 -67t114 -117.5t83 -170.5q8 -24 22.5 -77t26.5 -94.5 t33 -99.5t42 -101.5t53 -90t67 -76.5t83 -49.5t103 -19.5q6 0 23 -0.5t26 -0.5q62 0 97 21q18 12 34 12q29 0 48.5 -22.5t19.5 -52.5q0 -18 -9.5 -44.5t-25.5 -35.5q-51 -35 -75.5 -41t-140.5 -14q-13 -1 -22 -1h-8q-127 8 -226.5 65.5t-151.5 156.5q-29 41 -57 114.5 t-49.5 148t-54.5 159t-70.5 153.5t-98.5 125t-137 80q-23 7 -54 7q-39 0 -57 -13q-104 -164 -163.5 -318.5t-72.5 -324.5v-160q0 -33 -19.5 -51.5t-47.5 -18.5t-49.5 19.5t-22.5 50.5q0 12 -2 34t-2 32z" />
<glyph unicode="L" horiz-adv-x="1193" d="M122 312q0 70 7 148.5t19 174.5t16 145q5 55 16.5 194.5t19 214.5t23.5 188t37 206q10 43 51 43q25 0 45 -17.5t20 -43.5q0 -9 -1 -13q-33 -153 -55.5 -445t-26.5 -327q-4 -32 -7 -199t-6 -316t-8 -152q60 38 126 68.5t119 50t132 34.5t122.5 22.5t137 13.5t129.5 8 t142 5h3q36 0 55.5 -22t19.5 -53q0 -33 -21.5 -58.5t-57.5 -25.5q-6 0 -20 2q-76 14 -158 14q-166 0 -325.5 -52.5t-364.5 -150.5q-21 -10 -46 -10q-35 0 -63.5 20t-39.5 54q-40 124 -40 279z" />
<glyph unicode="M" horiz-adv-x="1806" d="M-268 182q0 127 63 260q16 37 55 37q28 0 51 -20t23 -51v-46q0 -38 -28 -57q-17 -74 -17 -108v-19q80 -115 141 -115q43 0 80 66q107 128 148 197q106 193 168 424q40 144 99 435t99 435q6 25 24 39t40 14q31 0 54.5 -21t23.5 -55v-14q-74 -413 -74 -661q0 -333 109 -525 q47 -78 96 -78q37 0 79.5 37.5t75 85.5t69 118.5t53.5 110t36 85.5q198 459 236 864q1 31 23.5 51.5t49.5 20.5q28 0 49 -19.5t21 -52.5v-14q0 -69 -22.5 -207.5t-50 -276t-50 -309.5t-22.5 -299q0 -404 231 -455q53 -12 53 -61q0 -31 -21 -56.5t-52 -25.5q-3 0 -9.5 1 t-9.5 1q-336 72 -336 567q0 66 2 101q-194 -434 -397 -434q-68 0 -129 41q-58 37 -98 101.5t-60.5 147.5t-29.5 156t-13 162q-108 -417 -321 -678q-78 -96 -144 -150.5t-135 -54.5q-82 0 -158 84q-75 80 -75 221z" />
<glyph unicode="N" horiz-adv-x="1492" d="M136 895q0 164 9 285q8 147 21 201q28 125 115 180q15 9 33 9q25 0 48 -20q59 -56 116 -152t92 -179t83 -203t72 -174q117 -247 268 -543q14 90 28.5 222t24 229t31 219.5t49.5 219.5t79.5 201t121.5 189q19 25 50 25t56.5 -26t25.5 -59q0 -29 -21 -51 q-92 -95 -149.5 -231.5t-81 -289t-36 -299t-30 -312t-47.5 -277.5q-6 -25 -27.5 -39.5t-46.5 -14.5q-41 0 -59 36q-95 188 -292 619t-315 653q-35 64 -52 64q-22 0 -22 -110q0 -12 0.5 -35t0.5 -33v-19q0 -5 -0.5 -15t-0.5 -15q0 -55 5 -156t6 -142q3 -188 3 -375 q0 -219 -5 -375q-1 -29 -20.5 -45t-45.5 -16t-44.5 16t-18.5 45q-2 100 -13 372.5t-11 420.5z" />
<glyph unicode="O" horiz-adv-x="1560" d="M115 801q0 199 54 383t157 313q27 40 69 78q162 143 381 143q112 0 209 -32q283 -88 406 -373q57 -137 57 -307q0 -215 -85 -440t-214 -380q-89 -105 -210.5 -162t-248.5 -57q-135 0 -252 66.5t-192 199.5q-131 232 -131 568zM268 831q0 -176 72 -382 q46 -136 146.5 -216.5t222.5 -80.5q180 0 317 178q250 325 250 651q0 28 -4 86q-6 62 -17.5 113.5t-33.5 103.5t-52 92t-76 72t-104 49q-146 41 -223 41q-154 0 -303 -123q-16 -12 -38 -40t-36 -56q-121 -245 -121 -488z" />
<glyph unicode="P" horiz-adv-x="1273" d="M-485 1382v29q16 232 415 385q339 131 664 131q276 0 496 -96q108 -45 182.5 -105.5t105.5 -152.5q13 -41 13 -80q0 -82 -43.5 -164t-108.5 -147q-38 -38 -80.5 -76t-79 -68.5t-88 -68t-85 -61.5t-93 -61t-88 -55.5t-95.5 -57.5t-90.5 -52.5t-96 -54.5t-91.5 -52 q1 -25 2 -74.5t2 -74.5q2 -14 2 -45q0 -70 -12 -198t-14 -152q-3 -39 -27 -59.5t-57 -20.5q-39 0 -79 20.5t-40 53.5q0 25 18 49q33 50 33 159q0 33 3.5 83t3.5 72q0 3 -0.5 9t-0.5 9v49q-20 -12 -52 -20t-52 -21q-21 -15 -41 -15q-31 0 -51.5 26t-20.5 58q0 51 47 74 q30 15 85.5 62t84.5 61v90v41q0 27 -1 80t-1 80q0 141 41 313q96 408 207 408q33 0 62 -33q14 -17 14 -39q0 -24 -16.5 -43.5t-38.5 -24.5q-7 -11 -9 -20q-16 -37 -24 -70q-25 -80 -35 -139q-21 -99 -29 -330q-4 -172 -4 -258q261 153 563 373q11 8 51 36.5t59.5 44t56 44.5 t57 52t44.5 52.5t36.5 60t15.5 60.5v19q0 132 -199 213q-230 90 -485 90q-196 0 -401 -58q-498 -140 -498 -329q0 -23 12 -47q8 -11 8 -25q0 -27 -23 -48.5t-50 -21.5q-26 0 -43 23q-41 59 -41 108zM410 1565q14 -11 24 -11h4q-13 0 -28 11z" />
<glyph unicode="Q" horiz-adv-x="1550" d="M49 539q0 174 54 347t147 298q56 75 138 151t180.5 142t211 107.5t213.5 41.5q214 0 330 -184q10 -12 10 -33q0 -26 -18 -44.5t-43 -18.5q-30 0 -45 24q-85 123 -236 123q-82 0 -178.5 -38t-180.5 -96.5t-154.5 -127t-112.5 -131.5q-179 -281 -179 -522q0 -32 2 -48 q6 -72 25.5 -145.5t52.5 -145t86 -126t119 -74.5q44 -16 98 -16q189 0 389 200q-103 96 -194 96q-76 0 -158 -65q-15 -12 -37 -12q-26 0 -44.5 18.5t-18.5 44.5q0 20 16 39q85 98 219 98q103 0 248 -67q26 -12 64 -41q73 97 118 192q80 171 80 357q0 47 -6 94 q-6 54 -28.5 112t-57 110t-86 86t-108.5 34q-37 0 -95 -23q-101 -48 -217 -129q-18 -12 -37 -12q-27 0 -45 19t-18 45q0 27 25 49q106 87 196.5 132.5t181.5 45.5q142 0 287 -119q158 -128 158 -420q0 -140 -37 -295q-49 -189 -205 -387l45 -55q168 -215 379 -215 q134 0 283 82q15 6 28 6q28 0 46 -22t18 -48q0 -32 -27 -47q-189 -125 -356 -125q-116 0 -242 54q-24 10 -50 28t-44.5 33t-48.5 47t-41.5 45.5t-46 54.5t-41.5 50q-240 -244 -475 -244q-62 0 -123 18q-109 35 -190.5 102t-129.5 155t-71 186.5t-23 208.5z" />
<glyph unicode="R" horiz-adv-x="1230" d="M90 551q0 206 37.5 435.5t101.5 432.5q34 109 78 182t101.5 113.5t121.5 57t150 16.5q39 0 84 -25q158 -99 158 -383q0 -54 -19 -194q-26 -150 -107 -261.5t-212 -211.5q18 -7 69 -47q58 -49 132 -121t126 -124.5t123 -110.5t135 -95t148 -61.5t176 -24.5q62 0 117 8 q4 0 9.5 1t8.5 1q38 0 61 -25t23 -59q0 -32 -20.5 -54.5t-59.5 -25.5q-102 -8 -153 -8q-280 0 -449 123q-28 20 -87.5 80.5t-124.5 126t-137 130t-145.5 106.5t-129.5 42q-22 0 -41 -8q-39 -22 -58 -35q-17 -10 -43 -10v-110v-199q0 -121 -2 -182q0 -33 -21 -51.5t-51 -18.5 q-28 0 -50 18.5t-25 51.5q-2 38 -7.5 124t-9 136.5t-6 124t-2.5 135.5zM235 704q0 -1 0.5 -3t0.5 -3q11 7 31.5 13.5t45 13t31.5 8.5q65 41 106.5 69.5t97.5 74.5t90.5 87.5t63.5 98t39 117.5q19 90 19 180q0 28 -4 82q-8 61 -27 83.5t-61 35.5q-16 8 -39 8q-7 0 -24 0.5 t-26 0.5q-51 0 -89.5 -16.5t-63.5 -66.5q-61 -149 -126 -390.5t-65 -392.5z" />
<glyph unicode="S" horiz-adv-x="1062" d="M37 222q0 114 63 209.5t170 129.5q8 3 15 3q22 0 49 -24t27 -44q0 -28 -25 -39q-59 -26 -95.5 -89t-36.5 -130q0 -58 25.5 -90.5t89.5 -41.5q48 -8 111 -8q110 0 205 33q107 38 151.5 91t44.5 122q0 95 -72 191t-181 180q-48 37 -84 67.5t-85.5 79.5t-81.5 93t-55 99.5 t-23 107.5q0 17 1 26q15 167 87.5 276.5t223.5 149.5q39 11 114 11q76 0 148.5 -43t83.5 -112v-9q0 -23 -25 -43t-46 -20q-32 0 -41 36q-6 26 -45.5 45.5t-69.5 19.5q-44 0 -93.5 -19t-94 -53t-74 -89.5t-29.5 -120.5q0 -75 47 -141q136 -184 256 -277q79 -59 148 -136.5 t106 -158.5q47 -98 47 -186q0 -116 -82.5 -199t-234.5 -121q-153 -40 -293 -40q-260 0 -322 146q-24 55 -24 118z" />
<glyph unicode="T" horiz-adv-x="827" d="M-154 1821v10q0 25 15 46t41 21h90q101 0 283.5 -6t281.5 -6q55 0 139.5 -1t119.5 -1q145 0 310 19q6 2 17 2q26 0 41.5 -18.5t15.5 -43.5q0 -23 -12.5 -46.5t-34.5 -27.5q-91 -17 -144 -22.5t-131.5 -9.5t-156.5 -11h-23q-16 0 -48 1.5t-48 1.5q-6 -8 -13 -32t-9 -28 q-24 -84 -38 -169.5t-18 -141.5t-10 -173t-10 -190q-10 -166 -10 -409v-232q0 -195 -17 -366q-3 -35 -26 -55.5t-52 -20.5q-30 0 -52 20t-25 56q-11 158 -11 262q0 123 10 356t11 340v64q0 110 10.5 264t13.5 315q0 1 2 65.5t2 65.5q-329 18 -466 23q-48 5 -48 78z" />
<glyph unicode="U" horiz-adv-x="1470" d="M-227 1118v15q0 102 32 194.5t93.5 167.5t163.5 119.5t231 44.5q1 0 40 -5t40 -5q59 -2 94 -50t35 -147q0 -51 -13 -131q-16 -93 -61.5 -227.5t-62.5 -214.5q-19 -82 -32.5 -206t-13.5 -212q0 -13 5 -76q21 -182 139 -182q76 0 167 63t136 119q29 35 53.5 69.5t48 79 t37 69.5t35.5 82.5t28.5 73.5t31 86.5t28.5 80.5q3 213 50.5 398.5t138.5 313.5q23 33 61 33q20 0 33 -8q4 -2 10 -8q33 -17 33 -58q0 -12 -2 -18q-68 -432 -174 -729q12 -260 89 -510.5t195 -413.5q11 -18 11 -30q0 -24 -21.5 -43t-46.5 -19q-22 0 -41 19 q-123 128 -205 322t-100 433q-9 -16 -40.5 -85.5t-49.5 -94.5q-41 -58 -92 -117t-120.5 -124t-149 -105.5t-150.5 -40.5q-51 0 -95 20q-102 48 -157 147.5t-55 221.5q0 83 15.5 211t31.5 199q19 83 65.5 221t65.5 233q6 34 6 70v50q0 37 -2.5 58t-12 38t-28.5 18 q-14 2 -43 2q-71 0 -126.5 -25.5t-121.5 -91.5q-54 -52 -82 -131.5t-31 -163.5q-1 -26 -18 -40.5t-39 -14.5q-23 0 -39.5 14.5t-17.5 40.5z" />
<glyph unicode="V" horiz-adv-x="1216" d="M154 1579q0 13 4 25q16 31 53 31q13 0 27 -7l12 -6q27 -14 27 -51q0 -8 -1 -12q-1 -2 -2 -6.5t-2 -6.5v-6q22 -140 86 -399t86 -375q11 -54 28.5 -168.5t36 -208t42.5 -170.5q15 59 33.5 169.5t25.5 143.5q9 39 29 126t32 137.5t32 123t40 132.5q34 101 57 161t61 148 t83 159t98 130q63 68 172 135t189 67q8 0 20 -2q90 -11 90 -137q0 -28 -4 -55q-4 -30 -23.5 -46.5t-44.5 -16.5q-11 0 -16 1q-21 4 -35.5 22t-14.5 43q0 10 1 15q8 39 -2 49q-5 5 -12 5q-20 0 -62 -27t-71 -50.5t-35 -29.5q-115 -103 -193 -274q-117 -243 -192 -539 q-18 -72 -38.5 -193.5t-36 -212t-48.5 -198.5t-78 -185q-7 -12 -24 -22q-13 -7 -30 -7q-36 0 -52 29q-49 98 -78.5 211t-56.5 284t-37 222q-15 75 -84.5 375t-91.5 467z" />
<glyph unicode="W" horiz-adv-x="1517" d="M126 1303q0 112 1 167q0 24 17.5 37.5t41.5 13.5q25 0 45 -14t21 -39q16 -343 34.5 -658t29.5 -458l10 -143q4 16 11 45.5t31.5 117t52.5 173t73 201t94 212.5q15 33 56 33q40 0 56 -33q32 -62 57 -136.5t37 -129.5t30 -144t30 -138q29 -121 61 -121q16 0 33 28 t32.5 79.5t27 94.5t24.5 102.5t17 74.5q98 367 221 649.5t321 525.5q18 24 45 24t48.5 -24t21.5 -55q0 -25 -16 -45q-184 -227 -298.5 -495.5t-205.5 -618.5q-6 -21 -20 -98.5t-30.5 -148.5t-40.5 -148.5t-59.5 -129.5t-77.5 -61q-15 -3 -29 -3q-35 0 -66.5 20.5t-55 52 t-45.5 82.5t-36.5 98t-30 114t-24.5 114.5t-22 116t-20 103.5q-26 -74 -53 -190.5t-46 -201t-60 -180.5t-99 -161q-18 -18 -48 -18q-16 0 -30 8q-41 30 -67.5 73.5t-40 103.5t-18 99.5t-9.5 108.5q-1 20 -2 29q-30 404 -30 891z" />
<glyph unicode="X" horiz-adv-x="1595" d="M-149 -68q0 44 33 72q46 38 92.5 87t111.5 124t87 100q153 169 261 336q142 216 265 389q-33 71 -53 107q-57 105 -130 195.5t-149 138.5q-71 44 -127 44q-39 0 -75 -20q-39 -22 -74 -54t-35 -60q0 -1 1 -8.5t1 -12.5q0 -30 -15.5 -50.5t-37.5 -24.5h-8q-39 0 -54 50 q-7 25 -7 55q0 74 46 133.5t107 97.5q82 51 166 51q92 0 173 -59q207 -148 361 -460q75 101 140 181q18 23 71.5 93t89.5 115.5t96.5 110.5t109.5 104t110.5 68t117.5 29q92 0 171 -76q20 -20 20 -50q0 -14 -5 -27q-6 -20 -21.5 -35t-33.5 -15q-15 0 -27 9q-42 32 -91 32 q-125 0 -312 -219q-175 -203 -369 -467q-1 -2 6 -17q12 -29 46 -120t64.5 -167.5t72.5 -170t89 -172.5t93 -131q81 -89 152 -89q90 0 176 132q10 14 15 18q14 13 33 13q34 0 56 -36q16 -26 16 -56q0 -45 -34 -72q-107 -85 -152 -110q-76 -44 -142 -44q-76 0 -146 56 q-67 54 -127.5 143t-95 162t-80.5 185q-24 59 -68.5 177.5t-64.5 168.5q-23 -35 -105.5 -160t-137 -202.5t-112.5 -150.5q-93 -117 -221 -253q-20 -21 -73 -73t-87.5 -92t-60.5 -82q-10 -14 -16 -19q-14 -13 -32 -13q-32 0 -54 35q-17 27 -17 56z" />
<glyph unicode="Y" horiz-adv-x="1163" d="M86 1444q0 128 35 221q7 19 25 30t38 11q54 0 54 -49v-12q-4 -31 -5 -33q-8 -39 -8 -92q0 -91 21 -197t57 -201.5t94 -159t123 -63.5t139 66q245 216 381 649q15 43 58 43q25 0 44 -18t19 -46q0 -2 -1 -7t-1 -7q-15 -81 -47 -178t-85 -203.5t-117 -196t-149 -155 t-175 -80.5q10 -133 12.5 -378t7.5 -345v-4q0 -28 -19 -43.5t-44 -15.5q-22 0 -40 12t-24 35q-43 145 -43 350q0 59 3 120t10 155t8 116q-89 22 -162 93t-117.5 167.5t-68 204t-23.5 211.5z" />
<glyph unicode="Z" horiz-adv-x="1249" d="M55 807q0 22 16 39t44 18q131 5 295 19q89 152 168 260q22 33 153.5 204t171.5 218q-100 14 -254 14q-144 0 -261.5 -18t-149.5 -52q-18 -18 -41 -18q-24 0 -44 17.5t-20 41.5q0 12 10 29q38 53 213 89t361 36q71 0 130 -6.5t110 -20t79.5 -39.5t28.5 -61q0 -12 -2 -18 q-12 -56 -52 -117t-82 -104.5t-97 -99.5t-82 -91q-79 -95 -170 -252l307 23h6q30 0 46.5 -21.5t16.5 -50.5t-17 -51.5t-48 -22.5h-4q-23 2 -66 2q-62 0 -317 -20q-120 -226 -164 -301q-2 -4 -19.5 -34.5t-33 -61t-33 -68.5t-28.5 -74t-11 -61q0 -28 11.5 -41t41.5 -13h4 q126 6 256 33q139 30 393.5 101t319.5 88q6 2 19 2q28 0 44.5 -20t16.5 -46q0 -46 -43 -61q-463 -167 -813 -226q-117 -20 -170 -20q-73 0 -117 24q-110 55 -110 166q0 57 26 123.5t70.5 146.5t56.5 107q6 13 111 223q-33 -2 -99 -2q-40 0 -118 4q-28 3 -44 21.5t-16 42.5z " />
<glyph unicode="[" horiz-adv-x="681" d="M135 594v14q0 231 19 661t39 662q5 52 24 76.5t57 24.5h19q104 -17 239 -17q30 0 88 0.5t87 0.5q97 0 165 -7q35 -4 35 -88v-10q0 -33 -12 -44.5t-47 -11.5h-25q-58 0 -114 4.5t-111 4.5h-70q-131 0 -188 8q-13 -158 -25 -556t-12 -587q0 -28 1 -86.5t1 -88.5 q0 -29 -2 -91v-48q0 -76 4 -204.5t4 -210.5q0 -12 4.5 -76.5t4.5 -89.5q0 -13 -1 -18h173q167 0 282 -4q43 -3 61.5 -23t18.5 -59t-20 -56.5t-64 -19.5q-37 -1 -105.5 -3.5t-123.5 -2.5q-44 0 -93 1t-108.5 2.5t-93.5 2.5q-40 0 -65 27.5t-25 72.5q0 3 -2 16t-2 17v10 q0 13 -2.5 47t-2.5 41v119q0 101 -6 293.5t-6 296.5z" />
<glyph unicode="\" horiz-adv-x="854" d="M-19 1334q0 20 14 35.5t33 15.5t31 -15q103 -113 195 -225t190.5 -250.5t175 -270t138.5 -279.5t90 -284q2 -12 2 -17q0 -29 -21 -47.5t-48 -18.5q-47 0 -64 49q-60 164 -157 342.5t-186 312t-201.5 312.5t-186.5 319q-5 12 -5 21z" />
<glyph unicode="]" horiz-adv-x="817" d="M33 -190q0 35 31 52t79 17q22 0 41 -8q111 -45 262 -45q28 0 88 1.5t93 1.5q40 0 61 -1q4 117 4 267q0 118 -3.5 358t-3.5 361q0 561 69 919q-78 1 -159.5 9.5t-164.5 8.5l-260 16h-2q-29 0 -46.5 20t-17.5 48q0 4 2.5 8.5t8 8t10.5 7t14.5 6.5t15.5 5t17 5t15.5 4.5 t15 4t12.5 2.5q100 25 166 25q18 0 75 -3t109 -3q69 0 135.5 2t110.5 2h55q39 0 63.5 -26.5t24.5 -63.5q0 -13 -2 -21q-56 -246 -75 -514.5t-19 -605.5q0 -86 1 -254.5t1 -251.5q0 -235 -8 -418q-2 -37 -27.5 -66.5t-60.5 -29.5h-10q-70 5 -217.5 5t-245.5 14.5t-207 60.5 q-51 23 -51 72z" />
<glyph unicode="^" horiz-adv-x="772" d="M24 1383q0 18 11 30q34 42 100.5 114.5t91.5 102.5q35 41 67 61.5t76 20.5h11q77 -7 162 -108q4 -4 52 -72t77 -86q30 -20 30 -48q0 -25 -20.5 -45t-45.5 -20q-29 0 -46 31q-33 56 -108 137t-124 81q-18 0 -30 -13q-49 -56 -76 -85.5t-74 -71.5t-90 -69q-10 -6 -23 -6 q-18 0 -29.5 13.5t-11.5 32.5z" />
<glyph unicode="_" horiz-adv-x="1955" d="M127 2q0 23 15 40t42 19q271 19 602 19q156 0 468 -5t468 -5q38 0 59 -25t21 -59t-21 -59t-59 -25q-48 0 -248.5 1.5t-272 2.5t-242 3.5t-271.5 6.5t-241 11t-263 16q-27 2 -42 19t-15 40z" />
<glyph unicode="`" horiz-adv-x="651" d="M121 1677q0 79 63 142q36 36 88 36q48 0 84.5 -33.5t36.5 -78.5q0 -40 -28 -78q-48 -39 -48 -104q0 -58 32 -122t69 -104q18 -18 18 -39q0 -23 -17.5 -37t-41.5 -14q-43 0 -64 41q-16 30 -71.5 112t-88 150.5t-32.5 128.5z" />
<glyph unicode="a" horiz-adv-x="1097" d="M104 301q0 45 19 94q44 91 142 141t208 50q98 0 201 -56q8 -4 14 2l2 13q-4 120 -28 200q-18 61 -77.5 97.5t-131.5 36.5q-75 0 -125 -39q-2 -4 -4 -4q-19 -19 -48 -19q-31 0 -56 24.5t-25 51.5q0 25 26 45q98 82 248 82q103 0 189 -47t130 -139q58 -139 58 -342 q0 -111 -12 -222v-8q6 -21 34.5 -51t30.5 -33q63 -84 123.5 -115.5t165.5 -44.5q28 -4 38.5 -18t10.5 -39q0 -32 -23.5 -57t-58.5 -25h-12q-63 0 -133.5 21t-110.5 57q-26 22 -61.5 77.5t-67.5 80.5l-18 16q-12 8 -31 8q-32 0 -93.5 -40t-68.5 -42q-110 -44 -209 -47h-6 q-96 0 -168 92t-72 199zM258 281q0 -29 10 -45q55 -80 142 -80q74 0 152 48.5t106 90.5q2 3 2 8q0 6 -4 14l-4 7q-60 125 -185 125q-83 0 -151 -49t-68 -119z" />
<glyph unicode="b" horiz-adv-x="1169" d="M156 696q0 118 22 243t70 247.5t115.5 218.5t166 155.5t213.5 59.5q7 0 19 -1t18 -1q65 -6 112.5 -52t69.5 -110t22 -135q0 -46 -8 -82q-33 -153 -145 -303q69 -60 111.5 -200t42.5 -292q0 -123 -29 -220t-88 -146q-91 -78 -190 -78q-75 0 -152 40t-139.5 106.5t-113 148 t-80.5 168.5t-35 164q-2 23 -2 69zM311 743q0 -89 17.5 -175t53.5 -165.5t97.5 -139t142.5 -83.5q33 -10 60 -10q76 0 120 69t44 171q0 98 -33.5 246.5t-63.5 148.5q-2 0 -6 -4q-27 -19 -46 -21q-93 -93 -241 -205q-17 -16 -41 -16q-29 0 -51 27.5t-22 62.5q0 43 36 70 q336 259 432 473q28 60 28 125q0 63 -32.5 113.5t-82.5 50.5q-22 0 -58.5 -16t-66.5 -38q-88 -60 -154 -171.5t-97.5 -234t-35.5 -243.5v-35z" />
<glyph unicode="c" horiz-adv-x="1105" d="M125 462q0 76 23.5 186t53.5 177q110 246 260 315q35 17 86.5 31.5t83.5 14.5q80 0 163 -37.5t127 -109.5q24 -41 24 -127q0 -60 -43 -114.5t-101.5 -84t-111.5 -29.5q-47 0 -82 31.5t-45 93.5v10q0 25 19 42t44 17q17 0 32.5 -11.5t21.5 -31.5q3 -20 26 -20 q28 0 58.5 30t30.5 67q0 33 -24 60q-26 28 -64 47.5t-75 19.5q-21 0 -33 -2q-58 -17 -102 -65t-89 -121q-107 -174 -107 -338q0 -50 8 -85q46 -228 288 -228q183 0 341 53.5t264 142.5q23 20 47 20q23 0 39.5 -19t16.5 -44q0 -35 -36 -60q-17 -11 -61.5 -41t-61 -40.5 t-56.5 -35.5t-59 -34.5t-56.5 -28.5t-61.5 -27t-61 -20t-69 -16.5t-71 -8.5t-80 -4q-72 0 -154.5 13.5t-136.5 40.5q-108 54 -162 152.5t-54 218.5z" />
<glyph unicode="d" horiz-adv-x="1255" d="M59 298q0 86 27 185t70 174q103 174 260 264q25 17 107 17q244 0 328 -126q33 126 58.5 241t38 175t47.5 247t55 288q0 1 11 17q14 21 56 21q7 0 15 -2q4 2 10 2q22 0 36.5 -11.5t14.5 -33.5v-12q-4 -33 -30.5 -166t-51.5 -269.5t-46.5 -331.5t-21.5 -362q0 -103 9 -202 q0 -177 53 -283q8 -13 8 -28q0 -25 -18.5 -44t-42.5 -19q-23 0 -42 19q-101 96 -101 334q0 57 9 176q-47 -117 -98.5 -204t-123.5 -162t-168.5 -117t-216.5 -50h-2q-23 -6 -46 -6q-79 0 -133.5 58.5t-67.5 144.5q-3 32 -3 66zM198 296q0 -11 2 -15q3 -56 24.5 -82t74.5 -44 q189 30 304.5 155t196.5 345q-3 10 -6.5 17t-12.5 15.5t-10 10.5q-55 63 -114 84.5t-130 21.5q-17 0 -53 -8.5t-54 -17.5q-60 -29 -93.5 -68.5t-71.5 -109.5q-57 -104 -57 -304z" />
<glyph unicode="e" horiz-adv-x="1083" d="M98 453q0 108 36.5 212t108.5 190t169 130q90 41 186 41q108 0 180 -53.5t72 -155.5q0 -47 -21 -108q-45 -130 -159 -210.5t-248 -80.5q-86 0 -178 45v-21q0 -154 106 -211q75 -45 174 -45q168 0 346 121q28 19 50 19q29 0 47 -24t18 -56q0 -57 -47 -88 q-99 -66 -215.5 -108t-224.5 -42q-116 0 -209.5 55.5t-147.5 174.5q-43 101 -43 215zM268 592q42 -14 72 -19q23 -6 72 -6q98 0 171 54t95 145q2 6 2 20q0 41 -30.5 74t-71.5 33l-3 -4q-65 -4 -128.5 -51.5t-108.5 -112.5q-48 -72 -70 -133z" />
<glyph unicode="f" horiz-adv-x="935" d="M-86 520q0 24 14.5 42t41.5 19q143 5 321 17q27 231 83 389q53 148 151 257t195 109q64 0 118.5 -55t91.5 -170q2 -9 2 -23q0 -24 -18 -38.5t-42 -14.5q-47 0 -63 42q-40 109 -93 109q-38 0 -80.5 -50.5t-73.5 -115.5t-51.5 -118t-22.5 -68l-34 -241q125 11 371 29 q1 0 2 1t2 1q26 0 41 -20t15 -47q0 -21 -11 -37t-31 -19q-207 -34 -404 -47q-15 -145 -32 -513q-4 -76 -4 -228v-272v-76q0 -30 -26.5 -56.5t-53.5 -26.5q-18 0 -43.5 29.5t-28.5 53.5q-11 83 -11 186q0 28 1 90t1 97q0 63 9 259q16 316 27 446h-154h-154q-27 1 -41.5 18.5 t-14.5 41.5z" />
<glyph unicode="g" horiz-adv-x="1073" d="M-27 -918q0 59 17 136q18 78 64 152t102 130t134.5 117t144.5 103.5t151 98.5t135 93l2 4q4 48 13.5 144.5t13.5 144.5q0 8 -5 8q-4 -2 -6 -2q-126 -107 -303 -107q-132 0 -206 95t-74 227q0 97 45 186t115 148.5t155 95t166 35.5q59 0 110 -19t92.5 -58.5t65 -107 t23.5 -157.5q0 -14 1 -24.5t1 -16.5q0 -68 -2 -151t-9.5 -213.5t-20 -258.5t-34.5 -276t-51.5 -277t-74 -251t-98.5 -208.5t-128 -139t-160 -52.5q-5 0 -17 1t-18 1q-166 18 -255 128.5t-89 270.5zM123 -922q0 -44 18 -90q73 -123 178 -123q63 0 117.5 41t81.5 103 q114 229 178 692q0 8 -6 8q-2 0 -4 -2q-16 -12 -80 -58.5t-91 -67t-73.5 -58.5t-81.5 -72q-39 -37 -61 -58.5t-60.5 -65t-60 -78t-38.5 -81.5t-17 -90zM295 406q12 -152 121 -168h8q4 0 15 -1t16 -1q64 0 116.5 19.5t84.5 45.5t59 66t38.5 66t24.5 61q8 20 8 57 q0 100 -44.5 148.5t-116.5 48.5q-71 0 -148 -44t-129.5 -120t-52.5 -156v-16v-6z" />
<glyph unicode="h" horiz-adv-x="1126" d="M103 97q0 1 0.5 3.5t0.5 4.5q7 101 58 248q9 60 19.5 176t17.5 166q53 368 76 901q2 30 22.5 46.5t47.5 16.5q26 0 44.5 -16t18.5 -44v-3q-23 -542 -75 -899q150 214 315 214q21 0 48 -5q92 -19 142.5 -87t62.5 -170q6 -61 6 -124q0 -54 -6 -158q-1 -15 -8 -60t-7 -65 q0 -35 18 -35q7 0 20 8q16 9 32 9q28 0 49.5 -22.5t21.5 -49.5q0 -26 -21 -44q-76 -63 -132 -63q-62 0 -93.5 69t-31.5 169q0 25 1 38q5 65 5 127q0 317 -101 317q-54 0 -133 -94q-153 -179 -229 -371q-15 -127 -48 -216q-9 -23 -31 -36t-46 -13q-27 0 -45.5 16t-18.5 46z " />
<glyph unicode="i" horiz-adv-x="665" d="M115 492q0 229 78 448q20 55 79 55q32 0 55 -20t23 -51q0 -13 -2 -25q-31 -84 -55.5 -205.5t-24.5 -228.5q0 -83 16.5 -144.5t61 -102t113.5 -40.5q37 0 86 12q12 3 22 3q34 0 55 -25.5t21 -58.5q0 -57 -55 -74q-80 -21 -139 -21q-72 0 -129.5 26t-95.5 70.5t-63 106.5 t-35.5 130t-10.5 145zM337 1314q0 8 2 19t2 12v18q0 5 2.5 11.5t2.5 16.5q0 35 37 68.5t70 33.5q2 0 26 -6q73 -31 76 -107v-14q0 -46 -17.5 -92t-48.5 -74q-31 -24 -59 -24t-51 20.5t-23 50.5q0 12 -9.5 32t-9.5 35z" />
<glyph unicode="j" horiz-adv-x="649" d="M-252 -319q0 77 25 150.5t75.5 124t112.5 50.5q70 0 129 -59l5 -5q24 -20 24 -51q0 -32 -23 -56.5t-55 -24.5q-19 0 -38 11l-1 1q-17 12 -29 12q-17 0 -30 -28t-13 -76q0 -63 23.5 -109.5t58.5 -46.5q48 0 113 76q101 126 174 345q100 323 100 636q0 100 -14 240 q-2 4 -2 12q0 31 25 49t55 18q25 0 45.5 -14.5t23.5 -41.5q23 -148 23 -306q0 -400 -154 -778q-161 -389 -387 -404q-9 -2 -24 -2q-62 0 -110 23.5t-76 63.5t-42 88t-14 102zM325 1233q0 47 33.5 74t77.5 27q39 0 70 -29t31 -69v-7q-9 -135 -91 -135q-42 0 -81 27 q-20 20 -37 61v40z" />
<glyph unicode="k" horiz-adv-x="1447" d="M111 -6q0 148 47 291q10 94 53.5 599.5t85.5 772.5q8 43 57 43q25 0 44.5 -14t19.5 -39v-7q-13 -96 -24 -193.5t-22.5 -217t-17.5 -186t-18.5 -218t-16.5 -194.5q5 0 10 -1t7 -1q6 0 10 2t6.5 4.5t10 11t14.5 15.5q118 126 206.5 193.5t233.5 135.5q51 25 135 25h35 q113 0 178.5 -44.5t65.5 -131.5q0 -95 -84 -217q-23 -33 -53 -33q-24 0 -44 18.5t-20 42.5q0 9 8 33q35 69 35 119q0 41 -28 61.5t-76 20.5q-40 0 -78.5 -13t-59 -25t-61.5 -41.5t-55 -39.5q-107 -72 -193 -158q100 -36 168.5 -74.5t128.5 -107.5q36 -42 90.5 -115.5 t93.5 -124.5t98 -107t120 -89q149 -80 319 -80q134 0 305 51q16 4 23 4q27 0 44 -21t17 -48q0 -49 -47 -66q-195 -66 -369 -66q-304 0 -507 203q-52 52 -130 143.5t-149 165.5t-149 130q-65 45 -132 45q-12 0 -20 -5q-29 -4 -50.5 -15.5t-34 -25.5t-22 -38t-14 -43 t-11.5 -50t-13 -51q-12 -121 -37 -297q0 -12 -2 -18q-3 -23 -18.5 -35t-35.5 -12q-28 0 -51 18t-24 47q-2 23 -2 68z" />
<glyph unicode="l" horiz-adv-x="831" d="M16 571q0 15 8 30q80 129 106 166q10 299 84.5 583.5t213.5 498.5q48 71 118 113t135 42q64 0 103 -41.5t39 -126.5q0 -34 -6 -76q-14 -78 -39 -155.5t-63 -156t-71.5 -141.5t-89 -146.5t-90.5 -134.5t-99.5 -141t-94.5 -133q0 -11 -1 -40t-1 -46q0 -59 3 -114 t10.5 -121.5t23 -120.5t37.5 -100.5t57.5 -72.5t80.5 -26q66 0 140 51q20 11 33 11q27 0 49 -23t22 -50q0 -25 -22 -41q-131 -102 -239 -102q-73 0 -133.5 44.5t-99.5 120.5t-63 166.5t-33 191.5q0 11 -1 31t-1 29q-2 0 -2 -2q-19 -28 -50 -28q-25 0 -44.5 18t-19.5 43z M294 1007q99 141 160 244q7 11 31 50.5t32.5 54.5t30 51.5t31.5 56t27 53t27 58t21 54.5t18 58q11 37 11 80q0 78 -50 78q-29 0 -62.5 -31.5t-60.5 -89.5q-158 -351 -216 -717z" />
<glyph unicode="m" horiz-adv-x="1630" d="M55 49v295q0 412 51 660q8 40 50 40q24 0 42.5 -16t18.5 -41v-14q-39 -203 -39 -551q219 534 492 534q25 0 37 -2q211 -25 211 -303q0 -4 -1.5 -13t-1.5 -13q174 272 338 282q6 2 21 2q66 0 109.5 -30t63.5 -80.5t29.5 -112.5t15.5 -129t14.5 -126.5t32.5 -109.5t65 -73 q28 -17 28 -49q0 -25 -16.5 -44.5t-40.5 -19.5q-13 0 -19 2q-44 12 -76 41.5t-49.5 64.5t-30 84.5t-17 89t-10.5 91.5t-11 80q-25 133 -94 133q-39 0 -89.5 -41t-98 -102.5t-91 -132t-73.5 -130.5t-42 -96q-7 -23 -26 -35t-41 -12q-28 0 -47 16.5t-19 47.5v2q1 14 7 74 t11 135t5 137q0 245 -86 245q-46 0 -121 -75q-67 -70 -124 -155.5t-103.5 -187t-77.5 -182.5t-70 -196q-15 -45 -63 -45q-26 0 -45 16t-19 45z" />
<glyph unicode="n" horiz-adv-x="1431" d="M104 465q0 116 2.5 177t21 150t56.5 160q9 17 32.5 34.5t35.5 17.5q25 0 50.5 -17t25.5 -41q0 -13 -6 -31q-74 -170 -74 -421q0 -41 6 -117q56 105 106 183.5t115.5 159t131.5 132.5t149.5 85t173.5 34l20 -2q93 -6 149 -66.5t56 -148.5v-9q0 -5 -2 -32t-2 -33 q-18 -216 -18 -326q0 -64 9 -96t23 -41.5t43 -11.5l39 2l33 2q26 0 41.5 -22t15.5 -50q0 -21 -18.5 -47.5t-40.5 -32.5q-18 -7 -67.5 -11.5t-73.5 -4.5h-11q-41 0 -69.5 15t-44 36.5t-23.5 61t-10 72.5t-2 87q0 59 7 160.5t7 132.5v8q0 99 -19 149t-63 50q-81 0 -168 -59.5 t-155 -143.5q-185 -237 -324 -553q-18 -37 -49 -37q-29 0 -59 19t-33 49q-17 257 -17 377z" />
<glyph unicode="o" horiz-adv-x="1153" d="M129 428q0 165 113 371l6 10l2 4q1 3 5 10.5t5 10.5q98 124 266 147q0 17 1 37l1 20v13v20q0 23 8.5 36.5t36.5 18.5q15 2 31 2q25 0 43 -6q19 -6 32 -29.5t13 -52.5v-16q-6 -22 -8 -53q123 -30 193 -121q116 -142 116 -309q0 -177 -137 -332q-73 -82 -165 -129t-189 -47 q-144 0 -248 104q-125 125 -125 291zM287 424q0 -33 2 -54t12.5 -48.5t30.5 -47.5q43 -40 95 -64t97 -24q131 0 226 121q92 118 92 230q0 61 -20.5 124.5t-65.5 102.5q-36 33 -101 51q-40 -230 -57 -237q-15 -5 -23 -5q-28 0 -51.5 14.5t-23.5 41.5v6q9 54 18 196 q-71 -3 -121 -63q-1 -1 -3 -6t-3 -6q-2 -2 -4.5 -6.5t-3.5 -6.5q-10 -13 -10 -16q-35 -65 -60.5 -148t-25.5 -155z" />
<glyph unicode="p" horiz-adv-x="1075" d="M104 94q0 575 215 795q124 121 314 121q12 0 25 -1t28.5 -2.5t24.5 -2.5q116 -11 188 -80q90 -93 90 -271q0 -109 -34.5 -221.5t-88.5 -193.5q-23 -39 -67 -86q-128 -125 -314 -125q-104 0 -213 34l-8 -8q10 -389 59 -718.5t162 -630.5q4 -16 4 -29q0 -23 -14 -41 q-23 -20 -59 -20q-32 0 -51 16q-11 14 -17 31q-83 224 -163.5 641.5t-80.5 791.5zM266 223l8 -8q101 -33 185 -33q152 0 246 97l8 6q49 52 82 125q34 133 34 223q0 118 -53 168l-8 8q-39 39 -98 39q-56 0 -119.5 -32t-116.5 -85l-6 -6l-2 -2q-80 -80 -100 -168l-27 -96 q-27 -153 -33 -236z" />
<glyph unicode="q" horiz-adv-x="993" d="M37 394q0 101 51 203.5t131 180.5t184.5 127.5t205.5 49.5q39 0 73 -7q45 -8 45 -51q0 -26 -18.5 -47t-47.5 -21h-12q-32 5 -57 5q-86 0 -161 -42.5t-124.5 -109.5t-78 -147t-28.5 -158q0 -3 0.5 -8t0.5 -7q4 -116 80 -116q41 0 90.5 29t81.5 59q181 163 223 377 q10 51 60 51q30 0 54 -21t24 -53q0 -9 -1 -14q-90 -496 -90 -872q0 -246 37 -459q20 12 41 28.5t35.5 28.5t38 35.5l32.5 32.5t35 36.5t31 32.5q20 20 45 20q27 0 48 -21t21 -49q0 -25 -18 -44q-9 -10 -51 -56.5t-54.5 -59t-48 -47t-58.5 -49.5t-59 -35.5t-73 -33.5 q-7 -3 -20 -3q-23 0 -44 16.5t-26 38.5q-59 267 -59 580q0 237 34 511q-81 -102 -167.5 -165.5t-165.5 -63.5q-80 0 -142 69q-98 108 -98 249z" />
<glyph unicode="r" horiz-adv-x="1277" d="M147 -8q28 396 31 964q0 28 20.5 44t47.5 16q31 0 53.5 -13t22.5 -42v-17q0 -139 -3 -412q51 113 144 215.5t217 180.5q75 47 166 78.5t168 31.5q86 0 143 -51t70 -164v-8q0 -26 -32 -54.5t-55 -28.5q-21 0 -38 12.5t-23 36.5q-22 97 -109 97q-84 0 -167 -44t-152 -116 q-158 -166 -237 -326t-138 -387q-8 -32 -26 -52.5t-43 -20.5q-26 0 -43 14t-17 40v6z" />
<glyph unicode="s" horiz-adv-x="880" d="M-6 188q0 71 76 127q16 11 34 11q26 0 45 -22t19 -50q0 -26 -16 -45q-13 -13 -13 -21q0 -24 48.5 -45t98.5 -31t74 -10h9h6q104 11 153 66q66 73 66 158q0 74 -55 123q-34 30 -90 59t-102.5 51.5t-91.5 54t-71 81t-26 116.5q0 73 60 136.5t145 97.5t167 34q81 0 132 -37 t51 -112q0 -15 -4 -43q-9 -45 -58 -45q-26 0 -45.5 15t-19.5 40v4v6q0 35 -43 35q-37 0 -94.5 -23.5t-71.5 -35.5q-68 -49 -68 -95q0 -78 203 -153q57 -21 108 -62.5t76 -93.5q41 -77 41 -172q0 -151 -106 -241q-63 -53 -148.5 -85t-171.5 -32q-124 0 -207 63 q-110 86 -110 176z" />
<glyph unicode="t" horiz-adv-x="919" d="M79 1045q0 22 16 41t40 20v2q185 -9 236 -14q142 436 371 558q16 7 26 7q24 0 50 -22t26 -43q0 -27 -25 -42q-179 -110 -305 -473l246 -24q27 -3 42.5 -22t15.5 -42t-15 -39t-43 -16q-191 0 -287 6q-35 -135 -47 -258q-1 -12 -4.5 -48t-6 -67.5t-2.5 -50.5 q0 -80 9.5 -148t30.5 -129.5t61.5 -96.5t96.5 -35q82 0 192 75q14 9 28 9q24 0 43 -20.5t19 -44.5q0 -22 -19 -38q-149 -120 -280 -120q-143 0 -232 99t-96 294q0 6 -0.5 19.5t-0.5 20.5q0 258 66 553q-95 10 -210 39q-42 12 -42 50z" />
<glyph unicode="u" horiz-adv-x="1476" d="M155 383q0 106 28.5 306t30.5 261q0 31 24 49t57 18q73 0 76 -50q0 -1 0.5 -5.5t0.5 -5.5v-28q0 -59 -33 -240.5t-33 -269.5q0 -179 108 -226q34 -13 61 -13q43 0 88 26.5t83.5 67.5t79 102t71.5 119t64.5 130t55 123t45.5 110t34 81q9 23 37 34.5t61 11.5t57 -12t24 -32 q0 -69 -28 -223t-28 -228q0 -359 245 -359q12 0 26.5 2t21.5 3q1 0 7.5 0.5t7.5 0.5h13q33 0 58 -28.5t25 -60.5q0 -18 -11 -32t-30 -18q-84 -19 -145 -19q-72 0 -131 21t-97.5 53.5t-67.5 79t-44 89.5t-24 92.5t-11.5 82t-2.5 63.5v35q0 5 -5 5q-2 0 -4 -3 q-66 -126 -109 -227q-45 -78 -104 -131.5t-119 -77t-104 -32.5t-86 -9q-7 0 -10.5 0.5t-8.5 0.5q-1 0 -7.5 2t-7.5 2q-131 14 -185 108t-54 251z" />
<glyph unicode="v" horiz-adv-x="1452" d="M182 940q0 26 32.5 48t57.5 22q42 0 56 -47q33 -96 80 -286t53 -212t17.5 -65t19 -70.5t21 -63.5t28.5 -63q6 -6 10 -6q35 0 176 254q77 144 163 273t160 219.5t149 166.5t129 121t102 76q31 24 49 24q31 0 53.5 -28.5t22.5 -63.5q0 -45 -35 -70q-172 -114 -349.5 -339 t-312.5 -461q-9 -15 -33 -61.5t-41.5 -78t-46 -76t-53.5 -72.5t-57 -49t-62 -22h-4h-5q-59 0 -110.5 55t-85.5 136.5t-65 191.5t-49 203t-37 189t-29 133q-4 16 -4 22z" />
<glyph unicode="w" horiz-adv-x="1714" d="M117 1001q0 31 23.5 50.5t52.5 19.5q51 0 65 -49q41 -149 97.5 -431t68.5 -337l2 -2h2q20 37 89.5 173.5t120.5 221.5t112 162q22 25 57 25h29q45 0 57 -13q55 -83 88 -169.5t62.5 -205.5t46.5 -172l2 -2h2q79 120 227 416t252 457q2 5 16 10q13 8 33 8q22 0 53.5 -21 t44.5 -42q6 -15 6 -31q0 -20 -30 -80q-140 -221 -262 -447.5t-186 -350.5t-95 -158q-12 -11 -39.5 -21t-44.5 -10q-50 0 -70 41q-31 69 -83.5 269.5t-104.5 291.5q-2 2 -4 0q-58 -87 -162.5 -296t-179.5 -310q-27 -37 -76 -37q-55 0 -72 55q-40 160 -99 484t-99 483 q0 5 -1 11t-1 7z" />
<glyph unicode="x" horiz-adv-x="1585" d="M-136 -442q0 47 41 80q88 70 193.5 173.5t160.5 181.5q121 172 214 318q32 50 89 144t77 126q-43 65 -78.5 114t-88.5 113t-103 99.5t-90 35.5q-56 0 -88 -72q-14 -32 -40 -32q-19 0 -35 18.5t-16 44.5q0 17 7 34q68 157 168 157q46 0 98.5 -31t111 -93t108 -124 t116.5 -153q47 72 96 141q92 127 195.5 208.5t203.5 81.5q130 0 229 -149q13 -19 13 -42q0 -30 -20 -54.5t-44 -24.5q-22 0 -38 23q-69 103 -153 103q-42 0 -88 -26.5t-85 -64.5t-83.5 -97t-74 -105.5t-67.5 -109.5q58 -81 94.5 -130t88.5 -112.5t89.5 -98t79.5 -59.5 t76 -25q53 0 94 56q20 28 45 28q26 0 46.5 -31t20.5 -67q0 -62 -58 -76q-21 -5 -55.5 -17t-61.5 -18.5t-54 -6.5q-21 0 -40 4q-93 17 -181 102q-67 65 -124.5 141.5t-131.5 189.5q-192 -313 -324 -502q-78 -113 -156 -205t-204 -218q-20 -20 -54 -41t-48 -21q-28 0 -49.5 27 t-21.5 62z" />
<glyph unicode="y" horiz-adv-x="1214" d="M-103 -1000q0 76 31 176q0 1 2.5 6.5t2.5 6.5q43 106 121 209.5t178 192t198 159t209 136.5q20 9 36 9q25 0 45 -22t20 -48q0 -13 -0.5 -18t-5.5 -13.5t-15 -15.5q-1 -1 -5.5 -3.5t-5.5 -3.5q-444 -271 -606 -546q-65 -115 -65 -195q0 -72 37.5 -135t114.5 -103 q129 -68 243 -68q157 0 224 128q90 178 141 394.5t65.5 402.5t14.5 425q0 57 -5 342q0 3 -1.5 5t-4.5 1q-5 0 -5 -2q-53 -105 -110.5 -183t-135.5 -132.5t-158 -54.5q-7 1 -13 1t-15 1q-1 0 -12 1t-12 1q-56 11 -98.5 43t-67.5 74.5t-40 101t-20 114.5t-5 123q0 59 5 156 t6 116q0 31 20 48t47 17q28 0 47.5 -16.5t19.5 -46.5q0 -6 -5.5 -71.5t-5.5 -117.5q0 -411 130 -411h1q32 0 72 29q134 91 224.5 259t130.5 352q5 23 22 35.5t38 12.5q29 -2 49.5 -19t20.5 -47q1 -101 9.5 -358t8.5 -397v-42v-36q0 -383 -61 -683q-26 -133 -61.5 -242 t-73 -182.5t-82 -130t-84 -88t-82.5 -51t-74.5 -25.5t-63.5 -6q-48 0 -68 8h-4q-33 1 -74.5 10t-96 27.5t-104.5 52t-93 78t-69 112t-26 147.5z" />
<glyph unicode="z" horiz-adv-x="1179" d="M136 130q0 40 17 63q58 83 136 173.5t128 142.5t185.5 187t193.5 194q2 1 2 7t-3 11t-5 7l-3 2q0 1 -2 1q-107 14 -158 14q-120 0 -206 -18t-211 -66q-2 0 -2 -2h-13q-21 0 -36.5 22.5t-15.5 57.5q0 59 42 78q131 56 224.5 76.5t223.5 20.5q129 0 270 -36 q15 -5 45.5 -59.5t30.5 -83.5v-17q-44 -74 -145.5 -184t-241.5 -250.5t-207 -214.5q-6 -6 -8 -12q-1 -2 -1 -15q0 -27 20 -27h6q23 2 97 11t126.5 13t100.5 4h35q24 0 65 0.5t58 0.5q14 0 34 1t28 1q30 0 41 -7t11 -33q0 -42 -3 -57q-4 -24 -26 -39.5t-59.5 -22.5t-70 -9 t-75.5 -2h-8q-70 -2 -222 -25q-140 -20 -200 -20q-81 0 -153 24q-20 6 -32.5 30.5t-12.5 57.5z" />
<glyph unicode="{" horiz-adv-x="729" d="M-87 830q0 27 15.5 50t43.5 32q80 26 140.5 75.5t96 106.5t65.5 133t48.5 143.5t46.5 149.5t57 141q26 53 70 96.5t104 76.5t109 53.5t116 43.5q9 3 18 3q25 0 42.5 -21t17.5 -47q0 -36 -31 -52q-106 -53 -177 -117.5t-112.5 -142.5t-67 -149t-60.5 -175.5t-71 -181.5 q-64 -131 -169 -206q108 -54 186 -167q52 -78 52 -251q0 -28 -1.5 -85t-1.5 -85q0 -61 4.5 -105.5t20.5 -93.5t43.5 -82t77 -58t117.5 -34q42 -4 64.5 -29t22.5 -58q0 -36 -25 -63t-68 -27q-5 0 -19 2q-280 39 -356 253q-21 60 -32.5 134.5t-15.5 137.5t-10.5 131t-23 124.5 t-47 107.5t-89 91t-142.5 65q-29 9 -44 31t-15 49z" />
<glyph unicode="|" horiz-adv-x="491" d="M101 323q0 76 2 153.5t6.5 164t8.5 151t13 164t13.5 151t16.5 163.5t16.5 149.5t18.5 161.5t17 150q4 25 20.5 39.5t37.5 14.5q20 0 35.5 -14t18.5 -40q15 -168 15 -372q0 -236 -31.5 -704t-32.5 -695q0 -38 -22.5 -58.5t-54.5 -20.5t-57 21t-28 58q-13 173 -13 363z" />
<glyph unicode="}" horiz-adv-x="724" d="M-93 -228q0 30 16 52.5t47 26.5q96 13 160 46t95.5 79.5t47 101t21.5 118.5t12 124t25 125t54 114q75 106 215 194q-49 51 -85 123.5t-55.5 148t-38 159t-31.5 160t-37 148t-54.5 125.5t-83.5 89.5t-124 43.5q-27 4 -44 24t-17 44q0 41 45 53q67 16 122 16q77 0 134 -31 t90.5 -85t56 -124t36.5 -150.5t25.5 -162.5t29 -161.5t42 -146t69 -117.5t106.5 -75q29 -11 46.5 -36.5t17.5 -54.5q0 -47 -43 -73q-86 -53 -136.5 -93t-92.5 -95t-61 -123.5t-25 -165.5q-10 -154 -51 -232q-73 -142 -178 -206t-269 -76q-1 0 -2.5 -0.5t-2.5 -0.5 q-38 0 -60 28.5t-22 65.5z" />
<glyph unicode="~" horiz-adv-x="1517" d="M95 489q0 17 11 31q10 13 39.5 52.5t48 62.5t50 60t58.5 59.5t60 46t67.5 34.5t69.5 11q12 0 18 -1q127 -11 255 -100q15 -10 53 -42t70.5 -52.5t63.5 -25.5q28 -5 64 -5q85 0 156.5 35.5t155.5 103.5q19 16 42 16q24 0 41 -17.5t17 -41.5q0 -30 -28 -51 q-70 -51 -121 -83t-126 -61t-141 -29q-85 0 -163 47q-24 15 -99 71t-130.5 84t-109.5 28q-78 0 -144 -66q-29 -27 -95 -96.5t-104 -104.5q-15 -14 -33 -14q-19 0 -32.5 14t-13.5 34z" />
<glyph unicode="&#xa0;" />
<glyph unicode="&#xa9;" horiz-adv-x="1585" d="M135 642q0 219 135 371.5t355 168.5q200 81 367 81q245 0 364 -182q81 -124 81 -272q0 -115 -49.5 -230.5t-131 -207t-191 -156.5t-223.5 -84q-72 -11 -137 -11q-109 0 -205.5 28.5t-175 84.5t-128.5 148t-59 209q-2 36 -2 52zM234 665q0 -40 10 -92q34 -164 153 -257 t280 -93q63 0 134 17q146 36 264.5 120t175.5 209q60 125 60 253q0 155 -97 233q-105 84 -280 84q-123 0 -243 -41.5t-197 -110.5q-19 -16 -42 -16q-36 0 -55 37q-77 -62 -120 -151.5t-43 -191.5zM487 632q0 111 91.5 206.5t198.5 95.5q83 0 143 -66q11 -12 11 -30 q0 -19 -12.5 -34t-30.5 -15q-13 0 -24 8q-35 24 -79 24q-74 0 -137.5 -60t-63.5 -123q0 -54 53 -81q59 -31 150 -31q124 0 200 52q14 10 30 10q23 0 39.5 -20t16.5 -44q0 -38 -41 -51q-165 -48 -286 -48q-206 0 -250 146q-9 30 -9 61z" />
<glyph unicode="&#xab;" horiz-adv-x="1144" d="M79 444q0 54 45 115q13 18 51 73.5t57.5 82.5t59 73.5t70.5 72t75 50t89 33.5q10 2 15 2q21 0 33.5 -14t12.5 -34q0 -19 -12 -35t-33 -22q-38 -11 -73.5 -34.5t-69.5 -62.5t-54 -65t-55 -78.5t-45 -66.5q-22 -32 -22 -57q0 -16 8 -29t25 -24t32 -18.5t39.5 -18 t36.5 -16.5q41 -21 101 -70t74 -59q31 -21 31 -51q0 -29 -26 -52t-57 -23q-44 0 -59 51q-10 34 -53 65.5t-92.5 52t-103 47.5t-76.5 52q-24 24 -24 60zM560 503v5q0 35 20.5 79t46.5 76q130 154 201 255q17 25 45 25q21 0 36 -14t15 -35q0 -11 -8 -27q-22 -37 -111.5 -150 t-115.5 -181q-2 -6 -2 -10q0 -33 65 -79t134 -77.5t100 -37.5q43 -7 43 -49q0 -30 -22 -57t-51 -27q-17 0 -35 12q-26 18 -76.5 43.5t-94.5 48.5t-88 52t-71.5 67t-30.5 81z" />
<glyph unicode="&#xad;" d="M119 616q0 36 59.5 61t167.5 25q83 0 170 -3t194 -11t174.5 -26.5t67.5 -45.5q0 -48 -94.5 -60.5t-368.5 -12.5h-135q-99 0 -150 7.5t-68 22.5t-17 43z" />
<glyph unicode="&#xae;" horiz-adv-x="1249" d="M109 577q0 82 37 160t104 140q0 18 22 34q261 179 471 179q116 0 209 -60t138.5 -148.5t45.5 -192.5q0 -113 -50.5 -224t-137.5 -191q-139 -129 -337 -129q-121 0 -232 52.5t-186 148.5q-84 109 -84 231zM197 583q0 -145 125 -245q117 -98 279 -98q109 0 205.5 49.5 t154.5 142.5q69 110 69 249q0 127 -68 214t-202 90h-10q-118 0 -232.5 -38t-185.5 -113q-17 -17 -37 -17q-98 -104 -98 -234zM375 555q0 65 21.5 124.5t64.5 96.5q24 20 62.5 33t77.5 13q64 0 97 -36q30 -34 30 -79q0 -53 -38 -101q-32 -36 -69 -53l4 -2q4 -4 35.5 -34 t55.5 -45.5t46 -15.5q2 0 4 0.5t4 0.5h9q23 0 36 -14t13 -34q0 -19 -11 -33t-31 -14q-7 0 -16 3q-85 19 -156 79q-3 3 -18.5 16.5t-20.5 17.5t-18.5 15t-21 15.5l-20 12t-23.5 11.5t-23 7q-4 0 -6 2v-78v-2q0 -16 -11 -25t-25 -9q-29 0 -38 28q-14 47 -14 100zM471 627 q11 0 23 -4q16 -3 32 -3q62 0 97 39q21 26 21 49q0 14 -11 21q-16 8 -38 8q-37 0 -70.5 -23.5t-43.5 -56.5q-8 -20 -10 -30z" />
<glyph unicode="&#xbb;" horiz-adv-x="948" d="M123 195q0 52 54 61q83 14 160 89t77 157q0 30 -14 61q-19 39 -44.5 72.5t-63 67.5t-61.5 53t-73 56q-19 14 -19 36q0 21 15.5 38t36.5 17q13 0 24 -7q316 -192 316 -380q0 -9 -2 -27q-5 -46 -20.5 -85t-35.5 -66t-52 -55t-58.5 -46t-67 -46t-65.5 -47q-24 -18 -47 -18 q-26 0 -43 21t-17 48zM500 883q0 20 17 34.5t38 14.5q27 0 41 -24q13 -21 83.5 -65.5t79.5 -51.5q31 -26 47 -40.5t38 -43t30 -55.5q13 -48 13 -102q0 -84 -29 -152q-19 -43 -43 -76.5t-68.5 -82t-58.5 -64.5q-25 -32 -57 -32q-26 0 -44.5 21t-18.5 47q0 45 55 62 q49 16 93 99.5t48 140.5q3 20 3 35q0 76 -68 135q-18 16 -64.5 50.5t-80 66t-49.5 63.5q-5 12 -5 20z" />
<glyph unicode="&#x401;" horiz-adv-x="1048" d="M19 1416q0 30 30 50q51 34 136 76q58 28 139 53q126 37 195 47q83 13 193 13q34 0 102 -1.5t101 -1.5q110 0 192 13q16 2 22 2q40 0 63 -22.5t23 -53.5t-22 -53.5t-62 -22.5q-4 0 -7.5 0.5t-8.5 1.5t-8 1q-117 19 -255 19q-288 0 -530 -83q-6 -169 -57 -567q89 17 215 17 q23 0 245 -9q33 -2 52 -21t19 -43t-19 -42.5t-52 -20.5q-20 -1 -62 -1q-27 0 -86 1t-90 1q-146 0 -238 -24q-19 -141 -26 -274q-1 -13 -5.5 -51t-7.5 -79t-3 -77q0 -227 142 -227q32 0 68 10q44 12 86.5 26t98.5 36t78 31t96 40.5t82 34.5q19 8 35 8q31 0 53.5 -20.5 t22.5 -46.5q0 -34 -38 -52q-4 -2 -40 -19.5t-51 -25t-55.5 -26.5t-64.5 -29.5t-66 -27.5t-71.5 -27t-70 -22.5t-73 -19t-68 -11.5t-66.5 -5q-192 0 -227 170q-30 147 -30 313q0 148 22.5 321.5t56 372.5t46.5 323q-32 -13 -55 -27q-18 -11 -37 -11q-26 0 -44 19t-18 44z M263 1898v8q3 28 26.5 46.5t53.5 18.5q2 0 6 -1.5t6 -1.5q32 -4 53.5 -25.5t21.5 -50.5q0 -2 -1 -5t-1 -5q-3 -28 -24.5 -45.5t-51.5 -17.5q-2 0 -7 1t-8 1q-33 4 -53.5 25.5t-20.5 51.5zM803 1922v8q4 28 26.5 46.5t52.5 18.5h12q32 -4 54 -27.5t22 -53.5v-7 q-4 -28 -26 -46t-51 -18q-3 0 -7 0.5t-7 0.5q-33 4 -54.5 26.5t-21.5 51.5z" />
<glyph unicode="&#x404;" horiz-adv-x="1634" d="M92 687q0 96 18 192q29 155 88.5 296t147.5 264t211.5 218t270.5 150q161 60 286 60q127 0 215 -63q73 -52 124 -120t51 -134q0 -77 -78 -135q-22 -16 -47 -16q-27 0 -47 17.5t-20 43.5q0 19 14 41q5 8 5 16q0 35 -65 86.5t-94 59.5q-46 12 -94 12q-62 0 -120 -19 q-208 -65 -380 -227q-107 -102 -180 -249.5t-99 -307.5q138 112 356 164t452 52q167 0 309 -25q30 -6 45 -25.5t15 -46.5q0 -41 -28 -77t-67 -36q-17 0 -32 7q-133 59 -317 59q-153 0 -299 -40.5t-266.5 -127.5t-168.5 -206q40 -224 189.5 -350t379.5 -126q30 0 45 1 q216 12 430.5 77t381.5 179q33 23 65 23q39 0 65.5 -28.5t26.5 -65.5q0 -55 -58 -83q-105 -52 -179.5 -86.5t-183.5 -79t-198 -71t-195 -45t-202 -18.5q-132 0 -251 33q-128 35 -229 111t-164.5 177.5t-96 220.5t-32.5 248z" />
<glyph unicode="&#x406;" horiz-adv-x="512" d="M94 412q0 54 3.5 112.5t10.5 135t9 104.5q20 228 20 627v204q0 37 27.5 56.5t66.5 19.5q40 0 71.5 -23.5t31.5 -62.5v-51q0 -9 -4 -21v-53q0 -316 -29 -659q-1 -15 -15 -158t-14 -221q0 -227 84 -363q13 -19 13 -36q0 -30 -29 -50t-66 -20q-53 0 -84 45q-96 153 -96 414z " />
<glyph unicode="&#x407;" horiz-adv-x="700" d="M-18 1927v4q1 60 30 108t82 103q23 23 56 23q48 0 73 -37q31 -57 31 -107q0 -28 -8 -47q-21 -58 -101 -112q-20 -13 -36 -13q-1 0 -25 6q-12 -4 -21 -4q-32 0 -56.5 22.5t-24.5 53.5zM186 356q0 42 2.5 93t5 86t7 92t6.5 82q20 228 20 624v205q0 37 28 57.5t67 20.5 q40 0 73 -23.5t33 -62.5v-53q0 -9 -4 -21v-51q0 -271 -33 -662q-2 -32 -9 -111t-11 -142.5t-4 -122.5q0 -234 82 -367q10 -15 10 -35q0 -30 -27.5 -48.5t-64.5 -18.5q-52 0 -82 43q-99 158 -99 415zM479 2028q0 84 62 114q25 15 61 15q42 0 81 -27t67 -70q8 -12 8 -41 q0 -47 -39 -71q-13 -9 -41 -9q-17 0 -35 9q-8 -25 -35 -43q-26 -13 -41 -13q-49 0 -67 41q-21 51 -21 95zM637 2021l1 2z" />
<glyph unicode="&#x40e;" horiz-adv-x="1226" d="M-123 1407v18q1 1 2 4.5t2 4.5q30 123 134.5 227t226.5 104q49 0 90 -16q26 -10 47 -27t36 -42.5t26.5 -47t19 -58.5t12 -57.5t7.5 -63.5t4 -57.5t2 -57.5t1 -46q2 -18 2 -55v-35q0 -117 11 -182q16 -90 73 -90t166 100q57 53 250 246l29 27q14 164 41 272q11 48 18.5 75 t27 64.5t46.5 63.5q36 28 70 28q68 0 116 -73q15 -20 15 -64q0 -68 -54 -184q-45 -102 -139 -209q-1 -16 -5.5 -95.5t-6.5 -109t-7.5 -90.5t-13 -108t-18.5 -95q-45 -203 -138 -386t-233 -302q-86 -71 -203.5 -121.5t-228.5 -50.5q-125 0 -209 70q-100 84 -100 192 q0 71 46 141.5t124 124.5q32 21 51 21q31 0 52.5 -23.5t21.5 -52.5q0 -44 -47 -67q-88 -48 -88 -115q0 -49 47 -88t116 -39l7 2q1 0 3 -1t3 -1q211 12 358 172q80 85 138 187t93 214.5t54 220t29 234.5q-156 -139 -166 -149q-188 -175 -308 -175q-69 0 -108 62 q-44 66 -57 145.5t-13 192.5v67q0 68 -2 101q-1 10 -3 50t-4.5 64t-8.5 58.5t-18 59t-29 40.5q-25 25 -62 25q-47 0 -101 -48.5t-89.5 -105t-46.5 -96.5q-11 -41 -51 -41q-25 0 -42.5 11.5t-17.5 35.5zM496 2165q0 170 65 264q17 23 37 29q6 2 20 2q25 0 46 -14t28 -36 q8 -28 -10 -49q-45 -61 -45 -178q0 -71 18 -129q14 -49 41.5 -79.5t64.5 -30.5q7 0 25 4q37 10 76 49q51 51 93.5 109.5t102.5 157t75 122.5q16 25 36 31q6 2 19 2q25 0 47 -15t29 -37q6 -22 -9 -47q-23 -33 -56 -89.5t-59.5 -102.5t-64 -101t-73.5 -95t-83 -73.5t-96 -48.5 q-42 -10 -75 -10h-9q-161 0 -221 197q-22 78 -22 168z" />
<glyph unicode="&#x410;" horiz-adv-x="1284" d="M-121 328q0 14 17 39q82 118 245 188q22 295 113 549q210 596 489 596h7q53 0 95.5 -20t71 -56.5t49 -76.5t33 -94.5t19.5 -96t12 -94.5q14 -121 22.5 -352t10.5 -267q35 -21 35 -68q0 -40 -27 -61q20 -272 94 -491q2 -8 2 -25q0 -30 -22 -48t-53 -18q-53 0 -70 50 q-78 224 -98 522q-28 0 -91 1t-98 1q-291 0 -448 -47v-58q0 -158 26 -297q29 -23 29 -57q0 -1 -1 -6t-1 -8v-15q-1 -17 -18.5 -33t-34.5 -18l-15 -2h-18q-61 0 -72 53q-44 184 -47 373q-45 -27 -59 -41q4 -16 4 -24q0 -32 -19.5 -55t-54.5 -23h-49q-30 0 -54 25t-24 55z M299 608q198 47 518 47q18 0 52.5 -1t50.5 -1q-1 47 -8.5 143.5t-8.5 147.5q-1 27 -1.5 107.5t-3.5 128.5t-11 116.5t-26.5 122t-47.5 94.5q-28 41 -68 41q-46 0 -103 -64.5t-105 -155t-92.5 -192t-70 -171.5t-32.5 -97q-20 -99 -43 -266z" />
<glyph unicode="&#x411;" horiz-adv-x="1222" d="M-247 1255q0 58 36.5 102t90.5 68.5t125.5 40t129.5 20.5t116 5h6q9 0 29 -0.5t29 -0.5q39 134 81 253q12 33 52 33q19 0 32.5 -10t13.5 -29v-8q-17 -101 -56 -242q307 -8 350 -8q232 0 422 30t351 111q23 10 36 10q28 0 48 -22t20 -49q0 -45 -45 -62 q-200 -79 -414.5 -110t-465.5 -31q-124 0 -224 4q-39 1 -112 5q-49 -183 -67 -290q-10 -57 -23 -161q13 6 22 9q152 54 313 66q75 5 90 5q29 0 66 -5q12 -2 54 -14.5t45 -12.5h1q16 2 22 2q44 0 51 -33q75 -30 111.5 -95.5t36.5 -148.5q0 -80 -31 -153q-53 -127 -143.5 -241 t-202.5 -194q-65 -46 -148.5 -72.5t-166.5 -26.5q-41 0 -86 8q-121 23 -181 109q-25 35 -33 80q-20 15 -20 39q0 9 5 24q3 8 7 24q-2 43 -9 73q-3 9 -3 17q0 35 38 51q2 18 10 186q-45 34 -45 81q0 58 64 125q23 191 44 303q24 124 57 249q-10 0 -28 0.5t-28 0.5 q-67 0 -119 -4q-109 -9 -167.5 -45t-83.5 -126q-9 -33 -44 -33q-17 0 -32 9.5t-19 25.5q-8 27 -8 58zM243 313q0 -29 3 -56v-6v-7q22 -51 79 -83.5t119 -32.5h12q149 8 251 94q182 154 255 323q38 88 38 143q0 27 -7 49q-15 49 -75 96q-4 -1 -13 -1q-18 0 -29 5 q-7 4 -11.5 9t-6.5 5q-1 0 -5 2.5t-7 2.5q-6 0 -26 3.5t-30 4.5q-50 2 -75 2q-23 0 -34 -1q-124 -7 -221 -31q-112 -28 -163 -62q-2 -19 -6.5 -58t-6.5 -59q0 -4 -1 -12.5t-2 -13.5v-1q0 -4 -2 -10q-4 -26 -15.5 -99.5t-15.5 -113.5q7 -12 7 -24q0 -9 -7 -27q-1 -2 -2.5 -7 t-2.5 -8v-26z" />
<glyph unicode="&#x412;" horiz-adv-x="1394" d="M-432 356q0 37 26.5 58.5t61.5 21.5q29 0 50.5 -15.5t21.5 -45.5q0 -11 -2 -17q0 -2 -1 -6.5t-1 -7.5q0 -108 354 -135q1 10 1 34q0 27 -2.5 79t-2.5 65q0 32 2 124t2 122v33v38q0 23 -1 56t-1 52q0 10 2 62q4 175 19 313t57 253q-21 -16 -46.5 -37t-31.5 -26t-20 -15 t-23 -15.5t-29 -17.5q-18 -12 -37 -12q-23 0 -44 36t-21 62q0 27 24 43q138 109 216.5 152t244.5 96q95 31 197 31q111 0 200.5 -38t126.5 -120q21 -49 21 -96q0 -176 -258 -375q163 -2 302.5 -59t221.5 -170q94 -128 94 -275q0 -131 -72 -244.5t-198 -175.5 q-151 -77 -356.5 -114t-407.5 -37q-28 0 -80 -4t-78 -4q-13 0 -39 2q-165 18 -206 25q-204 39 -262 160q-18 38 -23 85q-2 4 -2 59zM245 855q0 -39 6 -118t6 -119q0 -5 -0.5 -15t-0.5 -15q0 -25 -4 -87t-4 -95q0 -87 20 -136q6 -15 6 -32q0 -27 -18 -45h41q343 0 580 96 q40 17 63.5 27.5t58.5 29.5t60.5 41.5t42.5 48.5q43 67 43 160q0 109 -60 184q-74 91 -191.5 139t-248.5 48q-150 0 -274 -62q-16 -8 -35 -8q-27 0 -44.5 20.5t-17.5 47.5q0 42 39 65q176 107 301 213q2 2 29 26t41 37t39.5 40t39 46.5t25 44t11.5 44.5q0 21 -11 37 q-54 94 -196 94q-75 0 -156.5 -25.5t-138.5 -60.5q-5 -3 -16.5 -10.5t-16.5 -10.5q8 -2 12 -2q22 0 38 -12t16 -33q0 -16 -4 -24q-18 -42 -31.5 -91t-21 -85t-13 -96.5t-7 -87.5t-4 -98.5t-3.5 -90.5q0 -5 -0.5 -15t-0.5 -15z" />
<glyph unicode="&#x413;" horiz-adv-x="1060" d="M-523 1253q0 43 24.5 83t68.5 71t91 56t106 45.5t98.5 32t83.5 22.5q144 35 305 37q9 28 21 54q20 42 54 65.5t71 23.5q42 0 73 -29.5t38 -83.5q3 -27 -10 -45q20 -2 88 -10.5t102.5 -12.5t90.5 -8t102 -4q217 0 341 85q25 17 51 17q32 0 53.5 -24.5t21.5 -54.5 q0 -47 -47 -64q-246 -89 -451 -89q-22 0 -66 2q-74 4 -214 20t-199 20q-2 -18 -2 -22q-3 -57 -3 -113q0 -65 3 -129q2 -38 2 -114q0 -191 -25 -397q-86 -717 -437 -769q-6 -1 -17 -1q-34 0 -52.5 21t-18.5 50q0 33 21.5 60t56.5 27q14 0 26 -4q6 -2 9 -2q20 0 46 25.5 t51.5 65.5t41 67.5t28.5 54.5q61 123 89 317q38 256 38 524q0 34 -2 100q-3 138 -3 145q0 58 4 99q-7 0 -17.5 -0.5t-15.5 -0.5q-42 -1 -133.5 -18.5t-195 -45t-181 -70t-77.5 -85.5q0 -17 11 -34t11 -34q0 -27 -20 -48t-45 -21q-27 0 -42 21q-48 63 -48 122z" />
<glyph unicode="&#x414;" horiz-adv-x="1986" d="M-16 34q0 44 6 89l6 18q0 1 1 3t1 3h2q14 32 51 37q126 13 238 21q33 88 74 227.5t82.5 262t91.5 223.5q192 386 514 761q-5 17 -20 71t-28.5 91.5t-31.5 67.5q-47 105 -168 108q-44 -4 -67 -24t-23 -49q0 -27 19 -54t52 -45q18 -18 18 -41q0 -26 -18.5 -47t-42.5 -21 q-17 0 -32 11q-133 93 -133 205q0 89 77.5 155t178.5 66q119 0 202 -94q53 -59 94 -136t69.5 -168t47 -166.5t41 -180t37.5 -160.5q23 -89 78 -281.5t80 -294.5q5 -21 18.5 -79t21 -86.5t23.5 -79.5t31 -83t39 -70.5t53 -68.5q6 -6 14 -18q29 -1 89 -1l212 3q34 0 60 -26 t26 -59q0 -13 -4 -24q-20 -56 -70 -157t-80 -185.5t-30 -164.5q0 -47 10 -91q3 -12 3 -23q0 -39 -26.5 -61.5t-61.5 -22.5q-33 0 -59 22t-30 63q-3 34 -3 68q0 53 6.5 102t25.5 107.5t28.5 85.5t41.5 102t39 92q-219 -4 -493 -4q-652 0 -1254 26q1 -27 4 -53.5t9 -59 t9.5 -50.5t12.5 -58.5t12 -52.5q8 -35 20 -132t27 -145q5 -15 5 -31q0 -33 -24 -50.5t-58 -17.5q-35 0 -61 18t-26 50q0 14 6 31q12 35 12 74q0 54 -28 159t-31 124q-16 101 -16 169zM459 213q174 6 349 6q115 0 675 -10q-52 87 -96 205t-65.5 195.5t-58.5 232.5t-49 202 q-19 76 -58 236t-60 242q-95 -126 -171 -235.5t-160 -250.5t-143.5 -268t-104 -273.5t-58.5 -281.5z" />
<glyph unicode="&#x415;" horiz-adv-x="1130" d="M67 461q0 63 15 125q51 218 276 379q-38 44 -57 108q-13 51 -13 110q0 108 44 213t126.5 184.5t184.5 105.5q37 9 78 9q78 0 151.5 -29.5t123 -87.5t49.5 -129q0 -48 -25 -101q-16 -33 -54 -33q-20 0 -34 10.5t-14 28.5q0 10 6 22q9 22 9 44q0 64 -68 107.5t-139 43.5 q-21 0 -36 -4q-131 -34 -205 -154q-71 -113 -71 -222q0 -95 63 -155q143 74 219 74q37 0 62 -12q94 -41 94 -124q0 -28 -12 -59q-20 -46 -74.5 -68.5t-120.5 -22.5q-56 0 -98 16q-43 15 -84 39q-29 -20 -74 -56q-85 -70 -134.5 -161.5t-49.5 -191.5q0 -44 10 -87 q19 -85 62 -147t104 -97.5t132 -52.5t155 -17q195 0 415 78.5t357 178.5q24 17 48 17q27 0 45.5 -20t18.5 -46q0 -40 -41 -64q-56 -34 -102 -55q-99 -47 -177.5 -80t-184.5 -70.5t-210 -57.5t-199 -20q-201 0 -347 97q-107 71 -165.5 187.5t-58.5 246.5zM592 956 q40 -8 70 -8h4h9q22 0 40.5 4.5t18.5 10.5q0 7 -23 12q-7 2 -23 2q-41 0 -96 -21z" />
<glyph unicode="&#x416;" horiz-adv-x="2404" d="M-369 -446q0 53 52 74q54 22 109 51t116.5 69.5t100 67.5t110.5 80t98 71q286 205 482 378q164 147 367 363q-249 247 -428 402q-109 94 -197 161t-201.5 137t-233 110.5t-240.5 49.5q-26 2 -39 17t-13 37q0 26 17 45.5t44 19.5h4q108 -7 218.5 -37t206.5 -73t201 -109.5 t188.5 -129t181.5 -149t168 -154t160 -157.5q2 202 25 377q4 33 8.5 62.5t16 92.5t24.5 114.5t34.5 112.5t45 102.5t56.5 70t69 28.5q26 0 56 -15q25 -13 25 -37q0 -16 -11 -35.5t-25.5 -37t-16.5 -20.5q-2 -2 -13.5 -20.5t-22 -34t-21 -35t-14.5 -30.5q-28 -81 -38 -149 q-43 -281 -46 -512q188 204 287 304q206 208 422 332t472 153q180 20 238 20q258 0 290 -161q1 -4 1 -12q0 -28 -23.5 -47.5t-51.5 -19.5q-36 0 -50 34q-18 45 -139 45q-37 0 -81 -4t-84 -9t-50 -6q-255 -23 -448 -133q-69 -40 -140 -93t-124 -99.5t-124.5 -119.5 t-110.5 -116t-115 -128.5t-108 -120.5q-6 -6 -17.5 -18.5t-16.5 -18.5q212 -223 329 -328q362 -322 628 -322q163 0 300 121q27 24 56 24q31 0 53 -25t22 -57q0 -45 -46 -73q-186 -111 -382 -111q-105 0 -214 33t-201.5 84t-193.5 129t-178 150t-168 165q-7 8 -22 23 q21 -369 93 -670q2 -12 2 -18q0 -36 -30 -59.5t-67 -23.5q-28 0 -48.5 16t-23.5 47q-6 59 -34.5 319.5t-39.5 400.5q-271 -278 -525 -476q-198 -155 -378 -275q-44 -29 -204 -124t-237 -157q-27 -23 -59 -23q-34 0 -58.5 27.5t-24.5 62.5z" />
<glyph unicode="&#x417;" horiz-adv-x="1333" d="M70 346q0 123 55 219.5t147 96.5q50 0 109 -33q41 -20 41 -64q0 -33 -25 -60.5t-57 -27.5q-18 0 -39 12q-3 3 -12 3q-19 0 -30 -33.5t-11 -83.5q0 -70 22.5 -135t65.5 -88q101 -52 215 -52q104 0 188 37q146 61 236.5 187.5t91.5 283.5v13q0 64 -13.5 132t-39 129.5 t-69.5 100.5t-97 39q-56 0 -123 -47v-4q-9 -17 -30.5 -29t-39.5 -12h-14q-31 0 -56.5 28t-25.5 60q0 28 27 49q6 4 15 13.5t15 13.5q-8 3 -8 14q0 12 11 31.5t28.5 46.5t26.5 45q7 16 22.5 50.5t24.5 56t19.5 52t15.5 56.5q2 14 2 37q0 73 -74 73q-58 0 -136 -40.5 t-136 -102.5t-58 -115q0 -10 13 -36q10 -18 10 -41q0 -32 -26.5 -56t-57.5 -24q-46 0 -66 39q-34 58 -34 118q0 106 91.5 209.5t217.5 164.5t233 61q10 0 28 -3t23 -4q144 -28 144 -184q0 -131 -103 -354q6 0 16.5 1t16.5 1q105 0 185.5 -77t121.5 -199.5t41 -264.5 q0 -106 -25.5 -207.5t-75.5 -193t-133 -162t-190 -104.5q-122 -37 -243 -37q-81 0 -153.5 18t-136.5 54.5t-109 99.5t-62 147q-10 45 -10 82z" />
<glyph unicode="&#x418;" horiz-adv-x="1443" d="M80 397v33q9 144 55 531t47 604q-6 24 -6 30q0 35 22 53.5t54 18.5t55 -18.5t23 -53.5q0 -84 -4 -173t-8 -152t-15 -165t-16 -145t-20 -162t-19 -151q-21 -158 -21 -278v-2q0 -14 9.5 -104.5t9.5 -125.5q0 -29 -6 -35q27 19 55 49.5t43.5 51.5t45 66t38.5 57 q197 296 376 623t384 739q18 34 59 34q31 0 56 -20t26 -51q1 -13 1 -38q0 -12 -0.5 -37t-0.5 -38q0 -141 -19 -403t-22 -314q-1 -30 -5.5 -107.5t-4.5 -119.5q0 -285 51 -684v-10q0 -29 -20 -45.5t-48 -16.5q-31 0 -54 19t-27 53q-46 343 -46 733q0 29 2.5 88.5t2.5 89.5 q1 77 6.5 160.5t14.5 192t13 159.5l-295 -542q-28 -49 -86 -158.5t-97.5 -179t-97 -160.5t-118.5 -164t-127 -129q-56 -47 -102 -47q-38 0 -68.5 34.5t-48 84.5t-28.5 113.5t-15 115t-4 96.5z" />
<glyph unicode="&#x419;" horiz-adv-x="1488" d="M-102 1128v7q13 148 130 293t261 233q15 10 39 10q28 0 52 -16.5t30 -44.5q18 -87 18 -203q0 -105 -18.5 -239t-41 -242t-41 -243t-18.5 -241q0 -92 6 -135q19 -170 97 -170q44 0 103.5 54.5t117.5 138.5t98 150t70 122q234 455 317 864q34 218 37 232q6 29 29 45t51 16 q33 0 57.5 -18t24.5 -49q0 -1 -2 -5.5t-2 -5.5v-14q0 -14 -2 -16q-20 -158 -29 -205q-35 -283 -35 -481q0 -455 133 -906q4 -16 4 -26q0 -33 -26.5 -54.5t-59.5 -21.5q-58 0 -75 57q-118 394 -136 803q-109 -259 -239 -469q-26 -44 -43.5 -72.5t-48.5 -73.5t-56.5 -75 t-60.5 -65t-68 -56t-73 -35t-80 -14q-65 0 -123 31q-152 78 -152 403q0 36 2.5 77.5t5 69.5t6.5 69t5 55q7 83 55.5 348t48.5 403v23q-83 -68 -141 -148t-64 -153q-1 -37 -27.5 -57.5t-60.5 -20.5q-31 0 -53 18.5t-22 52.5zM504 2185q0 135 56.5 274t135.5 203q27 21 54 21 q35 0 62.5 -26t27.5 -58q0 -34 -27 -53q-58 -44 -96.5 -144.5t-38.5 -195.5q0 -73 28 -119.5t85 -46.5q49 0 104 31q75 41 143 93.5t167.5 143.5t127.5 115q26 20 53 20q35 0 63 -27t28 -59q0 -29 -25 -51q-40 -33 -112 -101t-129 -118.5t-129 -103.5t-147.5 -82t-148.5 -29 q-46 0 -90 12q-100 28 -146 107.5t-46 193.5z" />
<glyph unicode="&#x41a;" horiz-adv-x="1634" d="M90 109q0 36 4 94q1 215 9 693t8 730q0 33 22 50.5t51 17.5t51.5 -18.5t22.5 -51.5q-1 -146 -7 -439.5t-7 -441.5l24 54q-10 15 -10 41q0 29 16 45q37 40 82 73q211 357 553 674q46 42 79 70t92.5 72.5t117 68t107.5 23.5q58 0 100 -33q88 -66 88 -174q0 -85 -47 -195 q-17 -47 -72 -47q-28 0 -48.5 16t-20.5 44q0 2 6 26q39 112 39 156q0 61 -47 61q-35 0 -103 -39q-117 -72 -190 -145q-19 -19 -37 -38t-38.5 -41.5t-34.5 -38.5t-37 -43t-33 -39.5t-36 -44t-32.5 -40t-35 -44t-32.5 -40.5l-106 -141q111 -15 205 -111t147 -243 q11 -30 28.5 -92t34.5 -119t40.5 -126.5t51 -125.5t60.5 -104.5t75 -75.5t89 -27q57 0 127 43q18 12 35 12q29 0 48 -22.5t19 -52.5q0 -41 -32 -60q-97 -65 -203 -65q-92 0 -171.5 57.5t-135.5 163.5q-19 37 -48 120t-56.5 167t-67.5 179.5t-80.5 168t-95 120.5t-111.5 48 q-35 0 -68 -17q-223 -351 -246 -659v-160q0 -33 -19.5 -51.5t-47.5 -18.5t-49.5 19.5t-22.5 50.5q0 12 -2 34t-2 32z" />
<glyph unicode="&#x41b;" horiz-adv-x="1251" d="M-287 354q0 76 36.5 134.5t109.5 82.5q16 4 26 4q28 0 46 -18.5t18 -42.5q0 -44 -51 -61q-48 -15 -48 -80q0 -63 41.5 -128t104.5 -83q21 -6 39 -6q27 0 54 10.5t50 27t47 43t42 50.5t38.5 59t33.5 59t29 59.5t23 51.5t18.5 44.5t12.5 29.5q51 120 96 275t73.5 280 t74.5 279.5t100 275.5q17 39 90 39q46 0 83.5 -17t41.5 -45q47 -325 51 -925q4 -197 10 -256q25 -245 158 -373q12 -12 25 -23q16 -13 16 -32q0 -34 -40 -64.5t-83 -30.5q-27 0 -45 15q-58 49 -101.5 118t-68 138t-40.5 154t-21.5 151.5t-7.5 144.5q-2 83 -3.5 302.5 t-7.5 338.5q-21 -76 -52.5 -220t-63 -267t-68.5 -219q-29 -76 -56.5 -137t-73 -138t-95 -134.5t-120.5 -109.5t-151 -79q-56 -17 -94 -17q-85 0 -155 52.5t-106 129.5t-36 158z" />
<glyph unicode="&#x41c;" horiz-adv-x="1806" d="M-268 182q0 127 63 260q16 37 55 37q28 0 51 -20t23 -51v-46q0 -38 -28 -57q-17 -74 -17 -108v-19q80 -115 141 -115q43 0 80 66q107 128 148 197q106 193 168 424q40 144 99 435t99 435q6 25 24 39t40 14q31 0 54.5 -21t23.5 -55v-14q-74 -413 -74 -661q0 -333 109 -525 q47 -78 96 -78q37 0 79.5 37.5t75 85.5t69 118.5t53.5 110t36 85.5q198 459 236 864q1 31 23.5 51.5t49.5 20.5q28 0 49 -19.5t21 -52.5v-14q0 -69 -22.5 -207.5t-50 -276t-50 -309.5t-22.5 -299q0 -404 231 -455q53 -12 53 -61q0 -31 -21 -56.5t-52 -25.5q-3 0 -9.5 1 t-9.5 1q-336 72 -336 567q0 66 2 101q-194 -434 -397 -434q-68 0 -129 41q-58 37 -98 101.5t-60.5 147.5t-29.5 156t-13 162q-108 -417 -321 -678q-78 -96 -144 -150.5t-135 -54.5q-82 0 -158 84q-75 80 -75 221z" />
<glyph unicode="&#x41d;" horiz-adv-x="1105" d="M-375 662q0 35 29 55q9 6 52 37.5t53 38.5t47.5 33t52 34.5t47.5 28.5t53.5 29.5t50.5 23t57.5 22.5t57.5 17v82q0 275 28.5 507.5t104.5 450.5q17 41 64 41q36 0 66 -23t30 -54q0 -15 -2 -21q-62 -176 -84.5 -353.5t-22.5 -393.5v-195q154 25 340 25q17 0 53 -1.5 t54 -1.5q8 204 61 582q4 32 29.5 53t56.5 21q32 0 55 -21.5t23 -62.5v-21q-5 -48 -17 -146.5t-18.5 -155.5t-13.5 -138t-10 -149q28 -6 43.5 -26t15.5 -46t-16.5 -46t-44.5 -20v-26q0 -400 106 -768q4 -12 4 -19q0 -30 -30.5 -49.5t-65.5 -19.5q-61 0 -72 47 q-110 368 -110 815v26q-16 0 -47 2.5t-48 2.5q-154 0 -344 -33q0 -25 2 -39q0 -18 0.5 -130t1 -143t3 -132.5t6.5 -146t11.5 -132t18 -143.5t26.5 -127t36 -132q4 -12 4 -16q0 -25 -24 -40t-58 -15t-63 14t-37 41q-61 182 -82 398t-21 483v231q0 1 -3 -0.5l-6 -3t-3 -0.5 q-54 -12 -96.5 -27.5t-84 -39.5t-65 -40t-73 -54t-74.5 -56q-21 -14 -39 -14q-28 0 -48 25t-20 55z" />
<glyph unicode="&#x41e;" horiz-adv-x="1560" d="M115 801q0 199 54 383t157 313q27 40 69 78q162 143 381 143q112 0 209 -32q283 -88 406 -373q57 -137 57 -307q0 -215 -85 -440t-214 -380q-89 -105 -210.5 -162t-248.5 -57q-135 0 -252 66.5t-192 199.5q-131 232 -131 568zM268 831q0 -176 72 -382 q46 -136 146.5 -216.5t222.5 -80.5q180 0 317 178q250 325 250 651q0 28 -4 86q-6 62 -17.5 113.5t-33.5 103.5t-52 92t-76 72t-104 49q-146 41 -223 41q-154 0 -303 -123q-16 -12 -38 -40t-36 -56q-121 -245 -121 -488z" />
<glyph unicode="&#x41f;" horiz-adv-x="1286" d="M-498 1280v12q20 100 73.5 180t122.5 131.5t160 89t177.5 56t183.5 27.5q23 3 91 3q25 0 69 -0.5t57 -0.5q31 0 64 -1.5t59.5 -2.5t64.5 -5t59.5 -6t64 -8t59.5 -8.5t64.5 -10t59.5 -9.5t64.5 -10.5t61.5 -10.5q153 -25 295 -25q270 0 524 88q18 7 27 7q24 0 40 -15.5 t21 -38.5q4 -8 4 -24q0 -30 -17 -55t-50 -33q-323 -88 -553 -88q-79 0 -144 8q-22 2 -37.5 5.5t-33.5 6.5q-18 -38 -37 -124t-21 -118q-4 -23 -17 -96t-19.5 -124t-8.5 -99q-4 -106 -4 -164q2 -160 15 -289t30.5 -200.5t34.5 -117.5t30 -66l13 -21q2 -20 2 -25 q0 -10 -1.5 -17.5t-3.5 -11t-4 -5.5l-4 -4l-3 -1q-40 -25 -99 -25q-2 0 -7 0.5t-7 0.5q-37 4 -47 24q-127 223 -127 636q0 193 26 392q14 115 31 207t31.5 140.5t26.5 80t19 41.5l7 9q-309 70 -469 80h-90q-5 0 -15.5 2.5t-18 2.5t-11.5 -5q-14 -19 -36 -66t-53.5 -133.5 t-54 -222.5t-24.5 -287v-51q0 -453 111 -787q2 -5 2 -14q0 -22 -23 -38.5t-59 -20.5q-16 -2 -22 -2q-27 0 -46.5 7.5t-30 21.5t-15 23t-9.5 23q-23 75 -55 346q-22 164 -22 359q0 58 1 86q2 80 7.5 155t15 136t20 114.5t23.5 97.5t24 78t24 63t20.5 45.5t16 32.5t9.5 17 q-479 -46 -576 -364q-11 -29 -79 -29h-11q-18 3 -29.5 15t-11.5 30z" />
<glyph unicode="&#x420;" horiz-adv-x="1273" d="M-485 1382v29q16 232 415 385q339 131 664 131q276 0 496 -96q108 -45 182.5 -105.5t105.5 -152.5q13 -41 13 -80q0 -82 -43.5 -164t-108.5 -147q-38 -38 -80.5 -76t-79 -68.5t-88 -68t-85 -61.5t-93 -61t-88 -55.5t-95.5 -57.5t-90.5 -52.5t-96 -54.5t-91.5 -52 q1 -25 2 -74.5t2 -74.5q2 -14 2 -45q0 -70 -12 -198t-14 -152q-3 -39 -27 -59.5t-57 -20.5q-39 0 -79 20.5t-40 53.5q0 25 18 49q33 50 33 159q0 33 3.5 83t3.5 72q0 3 -0.5 9t-0.5 9v49q-20 -12 -52 -20t-52 -21q-21 -15 -41 -15q-31 0 -51.5 26t-20.5 58q0 51 47 74 q30 15 85.5 62t84.5 61v90v41q0 27 -1 80t-1 80q0 141 41 313q96 408 207 408q33 0 62 -33q14 -17 14 -39q0 -24 -16.5 -43.5t-38.5 -24.5q-7 -11 -9 -20q-16 -37 -24 -70q-25 -80 -35 -139q-21 -99 -29 -330q-4 -172 -4 -258q261 153 563 373q11 8 51 36.5t59.5 44t56 44.5 t57 52t44.5 52.5t36.5 60t15.5 60.5v19q0 132 -199 213q-230 90 -485 90q-196 0 -401 -58q-498 -140 -498 -329q0 -23 12 -47q8 -11 8 -25q0 -27 -23 -48.5t-50 -21.5q-26 0 -43 23q-41 59 -41 108zM410 1565q14 -11 24 -11h4q-13 0 -28 11z" />
<glyph unicode="&#x421;" horiz-adv-x="1476" d="M105 615q0 156 36 312q41 176 139 337.5t233 293.5q103 100 291.5 189t345.5 89q52 0 98 -12q146 -39 217 -123.5t71 -194.5q0 -159 -130 -304t-322 -182q-14 -2 -18 -2q-29 0 -46 17.5t-17 41.5q0 23 15.5 42t43.5 25q115 26 209 122t94 200q0 46 -24 91 q-72 132 -226 132q-153 0 -317 -117q-206 -148 -332.5 -373.5t-156.5 -473.5q-6 -47 -6 -97q0 -86 16.5 -169.5t54 -164t93.5 -142.5t141 -102.5t190 -45.5q11 -1 34 -1q152 0 323.5 63.5t270.5 160.5q32 32 71 32q30 0 50.5 -18.5t20.5 -46.5q0 -30 -27 -60 q-126 -138 -329 -210t-407 -72q-162 0 -270 44q-98 39 -174 100.5t-123.5 131t-78 154t-42.5 165t-12 168.5z" />
<glyph unicode="&#x422;" horiz-adv-x="1638" d="M-80 1720q0 21 11.5 38t31.5 20q41 10 100 10q48 0 106 -9.5t91 -17t109 -29t94 -26.5q261 -70 569 -76q35 -2 101 -2q673 0 1091 240q18 12 37 12q30 0 50 -24t20 -56q0 -50 -45 -69q-221 -105 -422.5 -167t-417.5 -83q-2 0 -4 -2q-53 -79 -92.5 -289.5t-42.5 -294.5 q-4 -82 -4 -125q0 -126 34 -332q5 -49 31.5 -146.5t48.5 -133.5q2 0 2 -2q10 -7 16.5 -16.5t12.5 -24.5t8 -19q-2 -33 -21 -59t-51 -26q-8 0 -12 1q-16 0 -44 19.5t-38 40.5q-81 146 -107 302t-26 371q0 22 -0.5 68.5t-0.5 69.5q0 81 5 137q9 86 14.5 130.5t28 144 t53.5 167.5q0 4 -2 6h-2q-13 0 -34 2.5t-35 2.5q-51 0 -78 2q-54 0 -156 8h-2q-11 -3 -18.5 -9t-13 -13t-7.5 -9l-2 -2q-4 -8 -10 -23q-3 -13 -16 -47q-5 -17 -15.5 -53t-15.5 -53q-3 -10 -14.5 -54t-16 -62t-11 -51t-9.5 -60q-13 -114 -13 -209q0 -102 15 -263 q28 -267 69 -393q0 -2 2 -2q17 -24 17 -59q0 -29 -27 -47.5t-61 -18.5q-21 0 -44.5 21.5t-29.5 50.5v2q-59 143 -74 301q-18 198 -20 252q-4 106 -4 164q0 210 37 342q1 3 13 53.5t21 83t27.5 82t38.5 84.5q0 4 -2 6h-2q-81 11 -248 49q-16 3 -42.5 8t-42.5 8t-39 8.5 t-44 12.5q-6 0 -6 -4q-4 -22 -19 -70t-20 -75q-23 -109 -33 -308q-6 -114 -6 -204q0 -131 10 -248q12 -143 71 -459q1 -7 -0.5 -33t-1.5 -28q0 -32 -29.5 -54t-63.5 -22q-25 0 -54 23t-32 51q-4 72 -24 250t-25 239q-9 180 -9 240q0 23 5 135q1 15 3 75.5t4 86t5.5 73 t9.5 85t14 73.5q7 34 28.5 109.5t29.5 117.5q0 4 -2 4q-126 35 -219 35h-19h-2q-41 0 -41 45z" />
<glyph unicode="&#x423;" horiz-adv-x="1226" d="M-123 1407v18q1 1 2 4.5t2 4.5q30 123 134.5 227t226.5 104q49 0 90 -16q26 -10 47 -27t36 -42.5t26.5 -47t19 -58.5t12 -57.5t7.5 -63.5t4 -57.5t2 -57.5t1 -46q2 -18 2 -55v-35q0 -117 11 -182q16 -90 73 -90t166 100q57 53 250 246l29 27q14 164 41 272q11 48 18.5 75 t27 64.5t46.5 63.5q36 28 70 28q68 0 116 -73q15 -20 15 -64q0 -68 -54 -184q-45 -102 -139 -209q-1 -16 -5.5 -95.5t-6.5 -109t-7.5 -90.5t-13 -108t-18.5 -95q-45 -203 -138 -386t-233 -302q-86 -71 -203.5 -121.5t-228.5 -50.5q-125 0 -209 70q-100 84 -100 192 q0 71 46 141.5t124 124.5q32 21 51 21q31 0 52.5 -23.5t21.5 -52.5q0 -44 -47 -67q-88 -48 -88 -115q0 -49 47 -88t116 -39l7 2q1 0 3 -1t3 -1q211 12 358 172q80 85 138 187t93 214.5t54 220t29 234.5q-156 -139 -166 -149q-188 -175 -308 -175q-69 0 -108 62 q-44 66 -57 145.5t-13 192.5v67q0 68 -2 101q-1 10 -3 50t-4.5 64t-8.5 58.5t-18 59t-29 40.5q-25 25 -62 25q-47 0 -101 -48.5t-89.5 -105t-46.5 -96.5q-11 -41 -51 -41q-25 0 -42.5 11.5t-17.5 35.5z" />
<glyph unicode="&#x424;" horiz-adv-x="1355" d="M68 825q0 79 12 158q9 63 22 124.5t35 135.5t49 137.5t66.5 125.5t85 105.5t107 70t130.5 26.5h7q23 33 59 33t53 -39v-2q183 -26 315 -135t195.5 -270.5t63.5 -358.5v-12q-1 -98 -25 -208.5t-74 -221t-118 -199.5t-165.5 -146t-207.5 -59q-12 -86 -25 -137 q-11 -49 -61 -49q-28 0 -51 19t-23 48q0 3 1 8.5t1 8.5q2 11 12 52t13 64q-120 28 -213.5 99.5t-149.5 170.5t-85 213.5t-29 237.5zM207 819q0 -98 18 -183t58 -162t110.5 -134.5t167.5 -87.5q11 129 12.5 372t6.5 337q2 50 19 199.5t17 230.5q0 99 -20 178h-10 q-64 0 -120 -37t-94.5 -93t-69.5 -128t-48 -135t-27 -123q-20 -109 -20 -234zM698 233q94 10 177.5 80t137 168.5t84.5 207t31 200.5v35q-9 119 -32 214.5t-66 183t-116.5 147.5t-174.5 85q13 -76 13 -147q0 -78 -16 -227.5t-17 -218.5q-2 -74 -2.5 -227.5t-4.5 -273.5 t-14 -227z" />
<glyph unicode="&#x425;" horiz-adv-x="1683" d="M-325 -68q0 44 41 72q57 38 115.5 87.5t138.5 123.5t110 100q189 167 328 336q171 209 332 389q-43 73 -66 107q-72 105 -163.5 195.5t-186.5 138.5q-90 44 -160 44q-49 0 -93 -20q-49 -22 -93 -54t-44 -60q0 -1 1 -8.5t1 -12.5q0 -30 -19.5 -50.5t-46.5 -24.5h-10 q-50 0 -68 50q-9 27 -9 55q0 39 18.5 76t49 66.5t61 50.5t63.5 38q104 51 209 51q115 0 217 -59q257 -147 452 -460q93 99 176 181q25 24 91 93t111.5 115.5t120.5 110.5t137 103.5t138.5 68.5t146.5 29q116 0 215 -76q25 -19 25 -50q0 -11 -6 -27q-8 -20 -27 -35t-42 -15 q-19 0 -33 9q-51 32 -115 32q-155 0 -392 -219q-219 -202 -462 -467q-1 -1 0.5 -5t4.5 -8l3 -4q14 -28 57 -120t81.5 -167.5t90.5 -169.5t111 -173t117 -131q100 -89 191 -89q112 0 220 132q8 10 20 18q19 13 41 13q41 0 70 -36q20 -27 20 -56q0 -45 -43 -72 q-137 -87 -198 -114q-91 -40 -171 -40q-96 0 -183 56q-64 41 -120.5 97t-104.5 127t-80 127.5t-74 138.5q-33 64 -91 185.5t-77 160.5q-34 -40 -133.5 -161t-169 -200t-141.5 -152q-118 -118 -278 -253q-25 -21 -91 -73t-109.5 -92t-76.5 -82q-12 -14 -19 -19 q-19 -13 -41 -13q-41 0 -68 35q-20 25 -20 56z" />
<glyph unicode="&#x426;" horiz-adv-x="1351" d="M57 -106q0 26 20 45q43 39 103 73q1 12 1 37q0 64 -15.5 197t-15.5 198q0 105 9 415q2 74 2 112q0 34 -0.5 102t-0.5 103q0 294 49 462q13 46 59 46q22 0 41.5 -13t25.5 -36q5 -15 6 -30q4 -21 -8 -40q-5 -118 -22 -711q-8 -250 -8 -374v-45q0 -28 -2.5 -94t-2.5 -101 q0 -99 16 -168q92 32 270 69.5t217 47.5q122 31 148 37q-3 31 -12 96t-14 116t-5 98q0 2 0.5 6.5t0.5 6.5q3 184 27 367q11 83 46 338.5t52 395.5q3 24 23.5 41.5t43.5 17.5q24 0 40 -20q2 -3 6.5 -8t6.5 -7q11 -14 11 -32q0 -20 -10 -36v-17q0 -74 -7 -161.5t-14.5 -147.5 t-21.5 -164.5t-20 -151.5q-3 -21 -11 -81.5t-11.5 -94t-9 -86t-8 -98.5t-2.5 -90q0 -153 34 -263q60 6 90 6q165 0 250 -86q72 -72 72 -183q0 -63 -26 -133q-6 -15 -40 -103.5t-44 -117t-33 -96t-36.5 -120.5t-23.5 -109q-43 -235 -43 -395q0 -77 8 -138q20 -167 58 -296.5 t120 -214.5q19 -20 19 -43q0 -31 -28 -57t-61 -26q-39 0 -59 40q-16 32 -49.5 94t-52 99.5t-40.5 93t-33 107.5q-38 170 -38 343q0 50 3 100q15 213 78 465q20 81 77.5 219t75.5 197q13 42 13 76q0 129 -192 129q-122 0 -365 -64q-60 -16 -209 -44t-256.5 -61.5 t-190.5 -89.5q-14 -10 -30 -10q-22 0 -36.5 18.5t-14.5 42.5z" />
<glyph unicode="&#x427;" horiz-adv-x="1054" d="M61 1120q0 88 21 252t22 225q1 29 23.5 44.5t54.5 15.5q31 0 50.5 -15t19.5 -43q0 -44 -17.5 -190t-17.5 -227q0 -232 117 -293q59 -29 119 -29q91 0 204 68q37 246 88 475.5t76 288.5q16 30 62 30q37 0 69.5 -21.5t32.5 -49.5q0 -19 -2 -25q-57 -126 -76.5 -201 t-40.5 -239q0 -7 -6 -75t-6 -75v-4q7 0 20 10.5t19 10.5q15 0 26 -13.5t11 -33.5q0 -29 -23 -52q-11 -11 -27 -29.5t-30 -32t-33 -26.5q-1 -25 -15.5 -112.5t-15.5 -110.5q0 -8 -5.5 -58t-10 -112.5t-4.5 -116.5q0 -247 80 -247q12 0 14 2h14q25 0 39.5 -22.5t14.5 -53.5 q0 -27 -12 -48.5t-35 -27.5q-27 -8 -56 -8q-108 0 -158.5 124t-50.5 337q0 158 21 331q-97 -38 -199 -38q-106 0 -198 45q-179 94 -179 370z" />
<glyph unicode="&#x428;" horiz-adv-x="1658" d="M101 -114q0 9 1 14q6 27 21 51q9 64 9 153q0 51 -4 152.5t-4 150.5v48q8 256 30 467q53 527 173 885q17 48 73 48q26 0 45.5 -14.5t19.5 -39.5q0 -4 -2 -16q-102 -443 -137 -868q-19 -224 -25 -467q-1 -36 -6 -136t-5 -155q0 -53 2 -79q33 15 73 29t71 23t78 20.5t67 16 t67.5 14l52.5 10.5q52 11 71 14q-2 11 -9.5 44t-10.5 49t-8 43t-7 50.5t-2 46.5v22q0 135 32 325q9 52 32.5 182.5t35.5 200.5t24.5 177.5t15.5 197.5h1q4 31 30.5 50.5t56.5 19.5q23 0 40 -14t19 -42q4 -49 4 -109q0 -45 -3.5 -96t-7 -89t-12.5 -97.5t-14 -88t-17 -97.5 t-16 -90q-45 -259 -49 -382q-3 -99 -3 -114q0 -107 18 -168q90 8 168 8q116 0 232 -18q52 -9 105 -21q-61 150 -72 275q-9 102 -9 203q0 160 19 311q8 66 14 107t18.5 110.5t25.5 117t35.5 109t49 105.5t64 86.5t82.5 71.5q17 11 33 11q26 0 45.5 -22t19.5 -50 q0 -31 -26 -51q-55 -41 -93 -112.5t-59.5 -182t-28.5 -165t-17 -170.5q-1 -12 -2 -18q-16 -192 -16 -292q0 -351 136 -504q142 -42 226 -58q31 -6 46 -26t15 -47q0 -42 -30 -78.5t-72 -36.5q-23 0 -50 15q-63 38 -153 71q-25 -14 -51 -14q-47 0 -68 49l-1 1v1 q-195 51 -420 51q-58 0 -128 -5q-15 -22 -41 -35t-54 -13q-43 0 -61 28l-18 -3q-18 -4 -108 -21t-136.5 -27.5t-118.5 -32.5t-122 -48q-21 -43 -79 -52q-1 -1 -4 -3.5t-5 -3.5q-17 -16 -47 -16q-27 0 -46 14t-19 39z" />
<glyph unicode="&#x429;" horiz-adv-x="2050" d="M127 -147q0 29 27 53q53 50 135 94q-12 52 -42.5 165.5t-49 201t-25.5 170.5q-18 159 -18 323q0 197 28 324q6 33 14 70.5t24 102.5t37 120.5t46.5 109t59 84.5t69.5 31q27 0 55 -19q27 -18 27 -47q0 -24 -18 -45.5t-44 -23.5q7 0 7.5 -1.5t-3.5 -6.5q-4 -3 -6 -5.5 t-5.5 -8.5t-6.5 -12q-24 -52 -34 -79q-38 -102 -46 -143q-45 -233 -49 -388v-54q0 -245 42 -485q4 -25 12.5 -78.5t14.5 -87t16 -80t21 -83.5q166 55 422 55q69 0 201 -6q-5 52 -17.5 169t-19 184t-13.5 164.5t-8 179.5q-2 98 -2 146q0 279 34 474q7 40 11 60.5t14 62t19 66 t25.5 58t35.5 53.5t46 38.5t59 25.5q5 1 14 1q24 0 38 -17t14 -40q0 -39 -34 -53q-26 -11 -46.5 -38.5t-32.5 -68.5t-20.5 -81t-12 -93.5t-5 -88.5t-2.5 -83t-1 -60q-3 -69 -3 -138q0 -260 34 -566q26 -242 37 -363q257 -14 425 -57l39 -12q-8 254 -8 382q0 236 18 415 q25 253 75 444q15 55 73 181.5t68 201.5q4 26 22.5 41t41.5 15q24 0 40 -14.5t16 -42.5q0 -65 -22 -133.5t-52 -143.5t-41 -128q-46 -213 -62 -426q-8 -98 -13 -216.5t-7.5 -198t-5.5 -223.5t-4 -204q50 -21 142.5 -67.5t135.5 -65.5q37 -16 37 -55q0 -36 -28.5 -69 t-63.5 -33q-24 0 -43 16q-95 77 -236 131q-16 -4 -23 -4q-37 0 -49 27q-189 57 -463 75q9 -194 9 -260q0 -55 -4 -161q-10 -181 -59.5 -511.5t-61.5 -472.5q-3 -36 -29.5 -55.5t-60.5 -19.5q-32 0 -54 16t-22 45q0 13 2 19q129 553 129 1128v18q0 120 -10 263 q-140 10 -254 10q-193 0 -328 -37q2 -6 2 -16q0 -33 -29 -56.5t-63 -23.5q-44 0 -62 37q-18 -9 -79 -50q-20 -14 -45 -14q-28 0 -48 18.5t-20 43.5z" />
<glyph unicode="&#x42a;" horiz-adv-x="1783" d="M65 1597q0 26 12.5 47.5t37.5 24.5q65 10 159 10q41 0 124 -2.5t125 -2.5q119 0 213 19.5t175 73.5q16 15 56 41q17 11 35 11q29 0 51.5 -23t22.5 -52q0 -27 -23 -46q-22 -18 -33 -25q-105 -83 -192 -216.5t-142 -283t-85 -304.5t-30 -293v-33q2 -58 4 -88.5t9 -81.5 t22.5 -91t38.5 -73q95 -137 251 -137q93 0 186.5 48.5t160.5 125.5q73 83 138.5 197.5t65.5 212.5q0 124 -124 178q-70 31 -148 31q-163 0 -366 -152q-18 -14 -39 -14q-29 0 -49.5 25t-20.5 57q0 39 33 61q114 74 244.5 119t246.5 45q76 0 138.5 -21t113 -66t81 -122.5 t34.5 -182.5q0 -2 0.5 -6t0.5 -7q0 -108 -62 -233t-157.5 -226.5t-219 -169t-237.5 -67.5q-39 0 -78 9q-92 21 -166 65t-123.5 103.5t-82.5 136.5t-48 161t-15 179q0 242 88 509t226 474q-45 -7 -99 -7q-22 0 -34 1q-7 0 -43 4t-82.5 7.5t-85.5 3.5q-159 0 -160 -58 q-3 -90 -6.5 -120.5t-20.5 -117.5q-7 -39 -52 -39q-23 0 -40.5 13.5t-17.5 36.5v4q7 57 7 122q0 94 -17 193q0 2 -0.5 6t-0.5 6z" />
<glyph unicode="&#x42b;" horiz-adv-x="1654" d="M118 581q0 131 27.5 286.5t61 272.5t83.5 286.5t75 267.5q10 38 48 38q22 0 39.5 -16t17.5 -40q0 -7 -1 -11q-18 -96 -101 -426t-100 -516q-2 -32 -2 -56q0 -64 8 -137t28.5 -154.5t50.5 -146t79.5 -107t110.5 -42.5q59 0 127 39q98 56 151 166t53 230q0 126 -58 212 t-163 86q-87 0 -198 -68q-19 -12 -40 -12q-28 0 -48 23.5t-20 52.5q0 50 50 70q182 73 317 73q254 0 306 -262q13 -65 13 -142q0 -158 -58 -300t-172 -221q-96 -67 -215 -67q-147 0 -273.5 95.5t-162.5 241.5q-34 133 -34 284zM1225 447q0 524 227 1165q14 37 52 37 q22 0 38 -14t16 -37q0 -5 -2 -15q-11 -48 -43.5 -179.5t-47 -193t-38.5 -179t-35.5 -196t-21 -180t-9.5 -192.5q0 -227 54 -430q3 -12 3 -22q0 -33 -25.5 -53.5t-57.5 -20.5q-25 0 -43.5 14t-23.5 41q-43 227 -43 455z" />
<glyph unicode="&#x42c;" horiz-adv-x="993" d="M94 848q0 34 1 71.5t2.5 82.5t2.5 71q7 121 56.5 332t60.5 293q9 51 57 51q31 0 56.5 -22t25.5 -56v-12q-14 -92 -46 -240.5t-53 -275.5t-24 -244q-1 -8 -1 -17.5t0.5 -21.5t0.5 -18q90 47 211 47q130 0 239.5 -60t158.5 -174q39 -85 39 -190q0 -146 -72.5 -281.5 t-194.5 -206.5q-83 -53 -176 -53q-134 0 -225 122.5t-102 289.5q-17 244 -17 512zM227 623q0 -233 45 -390q25 -84 66.5 -123.5t91.5 -39.5q63 0 132.5 56.5t118 139t58.5 156.5q4 28 4 37q0 123 -95.5 204.5t-217.5 81.5q-126 0 -203 -77v-45z" />
<glyph unicode="&#x42d;" horiz-adv-x="1558" d="M66 266q0 29 21.5 50t49.5 21q35 0 58 -34q64 -90 162.5 -135t211.5 -45q188 0 334 106q106 77 182 186t115 236q-38 4 -82.5 15t-71.5 20t-85 31t-82 31q-106 39 -184 39q-80 0 -171 -42q-25 -13 -72 -32t-63 -27q-13 -7 -26 -7q-22 0 -37 16.5t-15 37.5q0 26 25 41 q13 8 90.5 61.5t130 76.5t106.5 23q15 0 23 -1q130 -13 281 -74q11 -5 54 -23.5t67.5 -28t62.5 -19t68 -9.5h10q8 58 8 90q1 17 1 53q0 85 -11.5 163.5t-38 159.5t-79.5 144t-128 95q-82 35 -175 35q-155 0 -298.5 -90.5t-212.5 -229.5q-13 -26 -42 -26q-22 0 -39.5 14.5 t-17.5 35.5q0 8 3 17q61 170 239.5 297.5t367.5 127.5q90 0 167 -32q197 -82 302.5 -265.5t105.5 -405.5q0 -41 -5 -93q-3 -47 -8 -75q38 -24 38 -72q0 -24 -13.5 -42.5t-40.5 -23.5q-9 0 -13 -2q-112 -438 -489 -614q-136 -63 -279 -63q-141 0 -268.5 61.5t-218.5 177.5 q-18 22 -18 49z" />
<glyph unicode="&#x42e;" horiz-adv-x="1662" d="M53 1208q0 190 15 494q1 31 25 48t57 17q35 0 62.5 -20t27.5 -53q0 -90 -11.5 -228t-11.5 -202q0 -112 10 -207q6 -65 15.5 -248.5t15.5 -249.5q124 124 377 238q3 169 47 338q-6 8 -6 30q0 23 8 37q15 27 31 45q6 18 11 31t12 25.5t10.5 18t14 17t14.5 15.5t20.5 19.5 t23.5 21.5q51 45 121 92q176 131 328 131q131 0 231 -100q187 -196 187 -529q0 -168 -50 -339t-135 -300q-83 -132 -225 -235t-272 -103q-175 0 -263 199q-87 192 -106 426q-154 -75 -242 -152q-109 -101 -127 -221q-4 -66 -4 -102q3 -66 23 -174v-11q0 -34 -23 -56.5 t-53 -22.5q-21 0 -39 14t-27 39q-17 58 -20 117q-3 21 -14 80.5t-17 106t-6 85.5q0 32 12 78q-9 85 -16 212t-16 212q-15 151 -15 366zM784 698q0 -135 33 -256q58 -223 178 -245q28 -4 47 -4q99 0 180.5 68.5t135.5 168.5q178 320 178 582q0 192 -90 311q-80 111 -203 111 q-107 0 -212 -89.5t-159 -209.5q-88 -216 -88 -437z" />
<glyph unicode="&#x42f;" horiz-adv-x="1130" d="M-74 336q0 28 20 43.5t48 15.5q52 0 69 -47q6 -15 21 -65.5t28 -88.5t39.5 -71t59.5 -33q1 0 4 2t4 2q91 10 170 62.5t131 132.5q150 237 197 549q-183 -115 -301 -115q-103 0 -185 74q-102 94 -102 239q0 118 70 287q119 312 395 344h20q47 0 88.5 -25t69.5 -61t51 -86 t36 -91.5t22 -84.5q18 -95 18 -211q0 -148 -27 -301q7 -45 14.5 -134.5t12.5 -127.5q8 -77 18 -129.5t29 -105.5t52 -80t79 -27q69 0 164 57q18 12 35 12q28 0 45.5 -21.5t17.5 -51.5q0 -40 -30 -58q-139 -88 -256 -88q-152 0 -226 164q-40 92 -55 248q-76 -186 -172 -299 q-72 -87 -173 -151t-200 -64q-31 0 -69 10q-36 10 -66 32t-49.5 47.5t-37.5 63.5t-28 67.5t-24 72t-23 65.5q-4 16 -4 27zM258 1053q0 -6 1 -15.5t1 -15.5q24 -170 143 -170q27 0 60.5 9.5t60 21t62 32t53.5 32.5t49.5 34t36.5 25q1 1 7 3t7 3q11 101 11 170v35 q-4 107 -27 169q-26 117 -127 117q-67 0 -154 -47q-71 -83 -127.5 -196t-56.5 -207z" />
<glyph unicode="&#x430;" horiz-adv-x="1097" d="M111 315q0 49 18 93q42 89 137 137.5t203 48.5q31 0 49 -2q67 -7 146 -51q-4 111 -27 188q-17 54 -70 86.5t-116 32.5q-66 0 -111 -37q-26 -20 -55 -20q-35 0 -61.5 25t-26.5 56q0 32 26 52q101 82 242 82q101 0 184.5 -47t126.5 -138q58 -129 58 -327q0 -91 -15 -222 q23 -18 60 -59q56 -75 115 -109.5t151 -44.5q57 -8 57 -61q0 -35 -25.5 -64.5t-64.5 -29.5h-12q-7 1 -34 5t-38 5.5t-34.5 6.5t-37.5 9.5t-32.5 12t-33.5 17.5t-28 22q-25 23 -68.5 82t-70.5 81q-7 7 -21 7q-25 0 -79.5 -36.5t-67.5 -41.5q-107 -42 -201 -45h-6 q-97 0 -167 90t-70 196zM281 295q0 -25 6 -37q49 -68 123 -68q67 0 138.5 45t94.5 80q-21 64 -67 95.5t-103 31.5q-74 0 -133 -43.5t-59 -103.5z" />
<glyph unicode="&#x431;" horiz-adv-x="1183" d="M150 647q0 180 50 354t142 304q273 378 600 526q42 17 112 44t115 45t108.5 47t107 54.5t94.5 63.5t86.5 79t68 96t52.5 118q22 57 75 57q36 0 76.5 -31t40.5 -67q0 -3 -2.5 -14.5t-3.5 -16.5h-2q-36 -113 -100 -200.5t-143.5 -144.5t-170 -101t-191.5 -83t-194.5 -77 t-192 -95.5t-173.5 -127.5q-104 -99 -191 -224.5t-147 -283.5t-60 -303v-4v-13q0 -96 39 -188q42 -106 126 -180t169 -74q138 0 184 203q2 8 9.5 43.5t11.5 62t4 51.5q0 42 -21 103l-4 4q-64 22 -88 22q-79 0 -108 -92q-2 0 -2 -2q0 -39 -25 -60.5t-61 -21.5t-61 22.5 t-25 63.5q0 130 83 206.5t193 76.5q97 0 174.5 -61t102.5 -177q6 -31 6 -96q0 -124 -48 -246.5t-139.5 -206.5t-201.5 -84q-79 0 -154 41q-165 85 -243 239.5t-78 348.5z" />
<glyph unicode="&#x432;" horiz-adv-x="1169" d="M123 696q0 118 24.5 243t77 247.5t126.5 218.5t182.5 155.5t234.5 59.5q7 0 20.5 -1t20.5 -1q71 -6 123.5 -52t76 -110t23.5 -135q0 -46 -8 -82q-37 -154 -160 -303q76 -60 123 -200t47 -292q0 -123 -32 -220t-97 -146q-100 -78 -209 -78q-83 0 -167.5 40t-153 106.5 t-124 148t-88.5 168.5t-38 164q-2 23 -2 69zM293 743q0 -89 19.5 -175t58.5 -165.5t107.5 -139t156.5 -83.5q38 -10 65 -10q83 0 132 69t49 171q0 98 -37 246.5t-70 148.5q-2 0 -6 -4q-28 -18 -51 -21q-109 -99 -264 -205q-19 -16 -45 -16q-32 0 -56 27.5t-24 62.5 q0 44 39 70q369 259 475 473q30 62 30 125t-36 113.5t-91 50.5q-24 0 -64 -16t-73 -38q-143 -88 -225.5 -273.5t-89.5 -375.5v-35z" />
<glyph unicode="&#x433;" horiz-adv-x="1042" d="M-152 1044q0 27 14 50.5t42 33.5q100 41 230 71t251 30q327 0 383 -225q8 -31 8 -74q0 -138 -110 -314q-9 -15 -37.5 -59t-42.5 -68t-31 -62t-23 -71q-2 -14 -2 -37q0 -66 41 -104.5t103 -38.5q59 0 121 41q21 14 49 14q36 0 63 -29t27 -65q0 -44 -37 -69 q-97 -66 -221 -66q-136 0 -234 78t-98 209q0 59 14 100q17 56 52.5 122.5t68.5 117.5t65.5 116.5t45.5 122.5q2 14 2 41q0 72 -58 105t-153 33q-104 0 -226.5 -28t-191.5 -58q-14 -7 -35 -7q-36 0 -58 26.5t-22 63.5z" />
<glyph unicode="&#x434;" horiz-adv-x="1320" d="M-41 27v5q0 41 26.5 69.5t53.5 36.5l27 9q14 24 38.5 64t100 143t149.5 181q124 128 207 200l19 17q19 18 37 35t18 18q-13 74 -69 132.5t-122 76.5q-43 11 -43 51q0 29 23.5 53.5t56.5 24.5h13q50 -10 94.5 -36.5t76.5 -60.5t62.5 -82t50.5 -89t41 -93q5 -13 111 -305 q3 -10 18.5 -71.5t32.5 -101.5t41 -58q21 -30 35 -51q0 -2 4 -2q35 -5 78 -19q110 -34 110 -131q0 -62 -41.5 -151t-92.5 -177.5t-62 -126.5q-15 -51 -72 -51q-30 0 -53 17.5t-23 44.5q0 15 6 30q17 34 52.5 96.5t63 115t46.5 100.5q4 10 12 26t12.5 26.5t4.5 18.5 q0 23 -39 29q-71 12 -182 12h-31q-34 0 -100.5 -1t-100.5 -1q-73 0 -110 2q-82 4 -123 4q-66 0 -256 -20q-43 -22 -43 -57v-5q4 -23 46.5 -170.5t43.5 -158.5v-8q0 -42 -44 -42q-12 0 -34 5q-40 10 -103 182t-67 244zM260 184l4 -4q92 19 209 19q36 0 107.5 -2t107.5 -2h41 q90 4 137 6q-2 12 -2 14l-12 25q-10 29 -28.5 67.5t-28.5 67.5l-25.5 76.5l-30 90t-26.5 76.5q-15 40 -19 52q0 2 -4 2h-2q-41 -23 -90 -68.5t-72 -71.5t-69 -81q-120 -136 -195 -265z" />
<glyph unicode="&#x435;" horiz-adv-x="1083" d="M98 453q0 108 36.5 212t108.5 190t169 130q90 41 186 41q108 0 180 -53.5t72 -155.5q0 -47 -21 -108q-45 -130 -159 -210.5t-248 -80.5q-86 0 -178 45v-21q0 -154 106 -211q75 -45 174 -45q168 0 346 121q28 19 50 19q29 0 47 -24t18 -56q0 -57 -47 -88 q-99 -66 -215.5 -108t-224.5 -42q-116 0 -209.5 55.5t-147.5 174.5q-43 101 -43 215zM268 592q42 -14 72 -19q23 -6 72 -6q98 0 171 54t95 145q2 6 2 20q0 41 -30.5 74t-71.5 33l-3 -4q-65 -4 -128.5 -51.5t-108.5 -112.5q-48 -72 -70 -133z" />
<glyph unicode="&#x436;" horiz-adv-x="2091" d="M-156 -160q0 40 25.5 71.5t67.5 31.5q18 0 30 -4q6 -2 21 -2q38 0 90.5 29t89 58.5t89.5 77.5t62 56q271 221 338 274q30 22 89.5 68.5t89.5 68.5q-77 86 -144 151.5t-146 128t-156 96.5t-146 34q-106 0 -187 -84q-18 -18 -43 -18q-26 0 -47.5 19t-21.5 44q0 20 16 39 q121 143 285 143q79 0 165.5 -32t168 -88t149.5 -114.5t135 -127.5q14 129 33.5 235.5t47 195.5t65.5 139t82 50q18 0 34 -8q43 -17 43 -63q0 -23 -13.5 -42.5t-37.5 -25.5q0 -2 -2 -4q-10 -26 -16 -51q-26 -95 -35 -152q-27 -158 -45 -323q43 32 124 106t142 112 q27 16 76.5 47t65.5 41t50.5 29.5t52.5 26.5t49.5 19t62 19.5t71.5 16.5q55 11 114 11h27q88 0 144 -17.5t123 -66.5q30 -24 30 -58q0 -33 -24.5 -59.5t-56.5 -26.5q-21 0 -39 15q-38 26 -54 35t-43 15.5t-67 6.5q-162 0 -303 -85q-109 -65 -166 -108.5t-124 -103.5 t-151 -123q-8 -5 -23.5 -16.5t-23.5 -16.5q58 -61 97.5 -101t96.5 -92t102 -85.5t103.5 -69.5t112 -56.5t117 -34t129.5 -13.5q67 0 122.5 15.5t139.5 53.5q29 11 45 11q37 0 59.5 -27.5t22.5 -64.5q0 -32 -19.5 -58t-56.5 -33q-29 -6 -92.5 -19.5t-95 -19.5t-83 -12 t-99.5 -6q-116 0 -213 31q-126 41 -221 107t-214 180q-44 44 -133 147q-4 -98 -4 -147q0 -15 -1 -46.5t-1 -48.5q0 -106 33 -166q12 -18 12 -38q0 -39 -35.5 -68t-76.5 -29q-29 0 -51 18t-29 54q-13 57 -13 248q0 19 5 184q-233 -179 -400 -321q-141 -117 -197 -154 q-134 -89 -292 -109q-6 -2 -19 -2q-42 0 -63 23.5t-21 58.5z" />
<glyph unicode="&#x437;" horiz-adv-x="1284" d="M4 -418q0 177 123.5 292t333.5 151q1 0 7 2t7 2h14q36 0 57 -26t21 -60q0 -53 -57 -64q-180 -29 -266 -109t-86 -188q0 -100 64.5 -202t163.5 -166t194 -64q123 0 192 113q76 126 129 321t53 387q0 107 -19 199t-59.5 172t-111 135t-166.5 74q-53 11 -53 72 q0 33 20.5 58.5t55.5 25.5q6 0 6 6v2q0 7 29.5 77.5t33.5 88.5q12 49 12 80q0 46 -21.5 70t-57.5 24q-53 0 -108.5 -31.5t-98.5 -89.5q-2 -2 -8.5 -12t-6.5 -11q-28 -28 -65 -28q-34 0 -59 20t-25 49q0 17 16 39q59 78 198 171t243 93q126 0 147 -127q0 -1 2 -9t2 -9 q6 -60 6 -78q0 -89 -24.5 -193t-67.5 -177q0 -9 4 -11q86 -47 150 -122.5t101 -168t55 -191t18 -204.5v-65q0 -1 -1 -12.5t-1 -12.5q-4 -68 -11.5 -132.5t-22.5 -147t-35.5 -155t-53 -147.5t-73 -132.5t-98 -103t-124.5 -65.5q-62 -18 -117 -18q-88 0 -174.5 37t-155 98.5 t-121.5 140t-81 162.5q-29 88 -29 170z" />
<glyph unicode="&#x438;" horiz-adv-x="1476" d="M155 383q0 106 28.5 306t30.5 261q0 31 24 49t57 18q73 0 76 -50q0 -1 0.5 -5.5t0.5 -5.5v-28q0 -59 -33 -240.5t-33 -269.5q0 -179 108 -226q34 -13 61 -13q43 0 88 26.5t83.5 67.5t79 102t71.5 119t64.5 130t55 123t45.5 110t34 81q9 23 37 34.5t61 11.5t57 -12t24 -32 q0 -69 -28 -223t-28 -228q0 -359 245 -359q12 0 26.5 2t21.5 3q1 0 7.5 0.5t7.5 0.5h13q33 0 58 -28.5t25 -60.5q0 -18 -11 -32t-30 -18q-84 -19 -145 -19q-72 0 -131 21t-97.5 53.5t-67.5 79t-44 89.5t-24 92.5t-11.5 82t-2.5 63.5v35q0 5 -5 5q-2 0 -4 -3 q-66 -126 -109 -227q-45 -78 -104 -131.5t-119 -77t-104 -32.5t-86 -9q-7 0 -10.5 0.5t-8.5 0.5q-1 0 -7.5 2t-7.5 2q-131 14 -185 108t-54 251z" />
<glyph unicode="&#x439;" horiz-adv-x="1382" d="M109 371q0 106 29.5 309t31.5 260q0 49 61 49q37 0 69 -22.5t36 -57.5v-22q0 -58 -39 -236t-39 -264q0 -147 92 -190q38 -15 66 -15q58 0 113.5 46t102 124t82 152t73 161t55.5 121q38 66 88 66q35 0 63.5 -30t28.5 -62q0 -52 -16.5 -146t-16.5 -137q0 -149 59 -232 t199 -83q5 0 16 -0.5t17 -0.5q30 0 51 5q1 0 4 2t4 2q29 0 48.5 -26.5t19.5 -59.5q0 -59 -49 -70q-73 -16 -148 -16q-67 0 -122 17.5t-91 45t-62.5 66t-40.5 74.5t-22 78.5t-10 69.5t-2 54v29q-59 -80 -100 -174q-41 -70 -93 -120t-104 -74.5t-95.5 -35t-83.5 -10.5 q-13 0 -31 2.5t-23 2.5q-221 26 -221 348zM512 1325q0 78 33 148q17 40 51 40q21 0 36 -16.5t15 -42.5q0 -6 -4 -22q-8 -27 -8 -62q0 -51 24 -87t66 -36q17 0 47 10q108 45 172 138q17 26 47 26q27 0 49.5 -20.5t22.5 -48.5q0 -15 -16 -39q-62 -94 -132 -143.5t-165 -49.5 q-3 0 -10.5 2t-10.5 2q-108 6 -162.5 60.5t-54.5 140.5z" />
<glyph unicode="&#x43a;" horiz-adv-x="1447" d="M90 43q0 150 23.5 421.5t27.5 362.5q1 17 2 66t3.5 78t10 69t24.5 69.5t44 49.5q23 15 39 15q26 0 45 -23t19 -53q0 -40 -29 -60q-31 -22 -31 -157q0 -39 3 -103.5t3 -81.5v-18q-3 -32 -8 -97t-8 -96q76 148 170.5 268.5t222.5 217.5t269 137q112 33 206 33 q155 0 217 -94q52 -73 52 -152q0 -101 -84 -201q-19 -24 -47 -24q-27 0 -48.5 22.5t-21.5 52.5q0 27 16 46q68 80 68 129q0 75 -152 75q-50 0 -102.5 -9t-67.5 -15q-52 -15 -118 -49q-209 -123 -318 -285q0 -1 -1.5 -2t-0.5 -2q114 -56 187 -125.5t147 -177.5 q19 -27 78.5 -116.5t92.5 -135t89 -108.5t109 -101q173 -123 415 -123q100 0 222.5 22.5t234.5 63.5q12 4 21 4q35 0 58.5 -21t29.5 -57v-8q0 -43 -39 -59q-106 -48 -238.5 -77.5t-259.5 -29.5q-221 0 -352 49q-142 52 -259.5 156t-242.5 260q-41 51 -85 124t-73.5 123.5 t-84.5 110.5t-126 105q-155 -250 -215 -483q-6 -24 -24 -36.5t-41 -12.5q-28 0 -50 17t-22 46z" />
<glyph unicode="&#x43b;" horiz-adv-x="1396" d="M124 342q0 76 27 139q15 36 60 36q20 0 34 -10.5t14 -31.5q0 -7 -1 -11q-3 -15 -3 -41q0 -35 5.5 -73t17.5 -75.5t33 -62t49 -24.5q18 0 41 12q39 21 75.5 62.5t57.5 75.5t48 86q156 290 206 571q6 31 31.5 49t55.5 18q26 0 43.5 -14.5t17.5 -41.5q0 -3 -2 -15 q-1 -7 -3.5 -21t-4.5 -21q-19 -111 -19 -196q0 -249 143 -391q71 -70 194 -73q1 5 25 7.5t65 11.5t75 30q27 33 65 33q31 0 54.5 -22.5t23.5 -51.5q0 -32 -31 -55l-38 -28.5t-32.5 -24t-25 -17.5t-25 -15t-21 -9.5t-25 -8t-25.5 -4t-33.5 -3.5t-37.5 -0.5t-49 -0.5 q-112 0 -209 64q-156 102 -212 313q-96 -214 -219 -346q-104 -111 -213 -111q-45 0 -83 19q-73 36 -111 110.5t-38 161.5z" />
<glyph unicode="&#x43c;" horiz-adv-x="1859" d="M22 230q0 20 1 30t1 29t1 28q1 24 19.5 38t41.5 14h5q80 0 80 -48q0 -1 -0.5 -5t-0.5 -5q-8 -51 -8 -99q0 -164 125 -165h2q134 0 248 178q155 236 233 631q6 33 70 33q27 0 49 -18t22 -46q0 -12 -2 -18q-14 -70 -14 -141q0 -46 0.5 -78t4 -83.5t10 -87.5t19 -78 t29.5 -68t44 -44t61 -18q43 0 94 51q70 70 120.5 175t97.5 233.5t83 195.5q13 31 53 31q26 0 46 -17t20 -44q0 -37 -10.5 -124t-10.5 -130q0 -299 117 -447q17 -27 17 -45q0 -32 -26.5 -56t-57.5 -24q-39 0 -62 39q-103 171 -119 408q-33 -82 -64 -140.5t-75 -115.5 t-102 -87t-127 -30h-6q-63 3 -108.5 20t-72.5 40t-45 61.5t-27.5 74t-20.5 87.5q-3 17 -5 26q-115 -271 -283 -399q-41 -32 -97 -52t-111 -20q-88 0 -138 45q-65 53 -93 117t-28 148z" />
<glyph unicode="&#x43d;" horiz-adv-x="1241" d="M172 1022q0 33 25 56.5t55 23.5q40 0 57 -39q53 -95 53 -322v-73q68 6 222 6q107 0 125 -2q19 202 61 356q6 26 25 39.5t43 13.5q35 0 62.5 -14t27.5 -43q0 -7 -4 -23q-54 -232 -64 -354q21 -4 49.5 -7.5t44 -6t36.5 -12.5t40 -29q12 -12 12 -49q0 -50 -28 -58 q-12 -4 -45 -4q-25 0 -55.5 4.5t-47.5 8.5l-18 4q-2 -90 -2 -133q0 -410 106 -644q6 -18 6 -34q0 -34 -25.5 -59t-55.5 -25q-39 0 -56 39q-129 287 -129 739q0 39 4 133h-235h-103q-7 -247 -20 -438q-3 -33 -27.5 -53.5t-54.5 -20.5q-29 0 -49.5 17.5t-20.5 48.5v8 q6 75 10.5 283t4.5 346q0 28 -1 59t-1 33q-1 12 -2 56.5t-4.5 79.5t-12.5 52q-8 16 -8 37z" />
<glyph unicode="&#x43e;" horiz-adv-x="1114" d="M82 409q0 183 117 402l6 11l2 4q1 4 5.5 12t5.5 11q100 134 276 160q0 19 1 40t1 22q1 4 1 13q0 4 -0.5 11t-0.5 11q0 24 9 39t38 21q14 2 31 2q28 0 45 -6q20 -6 34 -31.5t14 -58.5q0 -11 -1 -17q-7 -32 -9 -58q127 -33 200 -131q121 -156 121 -335q0 -192 -142 -360 q-75 -89 -171 -140t-197 -51q-148 0 -257 113q-129 135 -129 316zM245 404q0 -36 2 -58.5t13 -52t32 -51.5q45 -44 98.5 -70t101.5 -26q133 0 233 132q96 127 96 248q0 66 -21.5 135.5t-67.5 111.5q-37 36 -104 55q-42 -249 -60 -257q-12 -4 -23 -4q-29 0 -54 15t-25 44v7 q11 63 19 213q-38 -2 -66.5 -16.5t-58.5 -52.5q-1 -1 -3 -6.5t-3 -6.5q-4 -4 -9 -13q-11 -17 -11 -18q-36 -69 -62.5 -159.5t-26.5 -169.5z" />
<glyph unicode="&#x43f;" horiz-adv-x="1210" d="M100 961q0 26 17 54.5t39 28.5q8 0 28 -12q113 -64 283 -82q38 -5 92 -5q130 0 290 30.5t310 101.5q17 10 39 10q29 0 47.5 -22t18.5 -51q0 -27 -16 -49t-46 -31q-39 -10 -119 -33.5t-110 -32.5q-24 -26 -39.5 -58t-21.5 -72.5t-7.5 -70t-1.5 -77.5q0 -10 1 -30.5 t1 -29.5q3 -67 40.5 -184.5t78.5 -163.5q33 -42 33 -69q0 -9 -2 -13q-11 -33 -31 -42t-59 -9q-11 0 -34 13t-36 26q-64 70 -94.5 161.5t-48.5 248.5q0 213 43 317q-86 -19 -243 -19q-123 0 -175 11q-2 0 -2.5 -2.5t-0.5 -6t-1 -5.5q-14 -55 -19 -95q-13 -105 -16 -194 q-4 -90 -4 -137q2 -70 10.5 -130t16.5 -92t8 -34q0 -32 -29.5 -54t-63.5 -22q-81 0 -86 61v13q-1 13 -2 34.5t-2 48.5t-1.5 63.5t-0.5 72.5v49q9 342 52 459q-15 5 -27 11t-24.5 15t-19.5 14.5t-22 19t-22 19.5q-21 18 -21 46z" />
<glyph unicode="&#x440;" horiz-adv-x="1075" d="M104 94q0 575 215 795q124 121 314 121q12 0 25 -1t28.5 -2.5t24.5 -2.5q116 -11 188 -80q90 -93 90 -271q0 -109 -34.5 -221.5t-88.5 -193.5q-23 -39 -67 -86q-128 -125 -314 -125q-104 0 -213 34l-8 -8q10 -389 59 -718.5t162 -630.5q4 -16 4 -29q0 -23 -14 -41 q-23 -20 -59 -20q-32 0 -51 16q-11 14 -17 31q-83 224 -163.5 641.5t-80.5 791.5zM266 223l8 -8q101 -33 185 -33q152 0 246 97l8 6q49 52 82 125q34 133 34 223q0 118 -53 168l-8 8q-39 39 -98 39q-56 0 -119.5 -32t-116.5 -85l-6 -6l-2 -2q-80 -80 -100 -168l-27 -96 q-27 -153 -33 -236z" />
<glyph unicode="&#x441;" horiz-adv-x="1064" d="M100 418q0 77 23.5 189t54.5 179q112 250 264 320q37 17 88 32t84 15q81 0 166 -38.5t129 -110.5q25 -42 25 -130q0 -91 -87.5 -161t-172.5 -70q-47 0 -83 32t-46 95v10q0 26 19 43t44 17q19 0 34.5 -11t21.5 -32q3 -21 26 -21q29 0 59.5 30.5t30.5 67.5q0 35 -24 62 q-27 28 -65.5 48t-76.5 20q-14 0 -32 -3q-59 -18 -104.5 -67t-90.5 -121q-108 -177 -108 -344q0 -50 8 -86q48 -231 293 -231q187 0 347 54t267 144q24 21 47 21q24 0 40.5 -19.5t16.5 -44.5q0 -37 -36 -61q-16 -11 -62 -41.5t-62.5 -41t-57.5 -36t-60 -35.5t-57 -29.5 t-62.5 -27t-62.5 -20t-70.5 -17t-72 -8.5t-81.5 -4q-73 0 -156.5 13.5t-138.5 41.5q-110 55 -164.5 154.5t-54.5 222.5z" />
<glyph unicode="&#x442;" horiz-adv-x="1871" d="M170 551q0 24 4 74q8 59 30.5 152.5t28.5 137.5q-1 5 -13.5 29.5t-12.5 32.5q0 27 26.5 47t55.5 20q4 0 60 -10t61 -12q37 -8 53 -10q8 -2 20 -8q102 -24 191.5 -31.5t216.5 -7.5h22q16 6 37 2q62 0 123 6q168 17 305.5 56.5t294.5 113.5q3 1 9.5 5t9.5 5q18 10 41 10 q53 0 77 -49q9 -27 9 -37q0 -52 -54 -78q-76 -37 -100 -47q-3 -20 -23 -37q-127 -105 -131 -378q0 -6 -1 -45.5t-1 -67.5q0 -219 43 -248q41 -28 41 -61q0 -36 -36.5 -60t-75.5 -24h-15q-21 3 -34 18t-13 39q0 7 4 23v20q0 33 -21.5 110.5t-23.5 108.5q-6 67 -6 139 q0 63 6 121q22 168 76 271q-136 -40 -238.5 -59t-228.5 -23q-74 -161 -74 -242v-55q0 -4 0.5 -11.5t0.5 -10.5q0 -22 -3.5 -77t-3.5 -83q0 -116 51 -156q10 -6 23 -23q12 -21 12 -41q0 -46 -45 -75q-26 -15 -47 -15q-45 0 -70 43q-34 55 -51 138t-19.5 144.5t-2.5 170.5v26 q0 20 2 39.5t8 42t10 37t14.5 41t14 35.5t16.5 39t15 35q-12 1 -56.5 2.5t-62.5 2.5t-57.5 3.5t-63 5.5t-56.5 7.5t-60 11t-52 14.5q-104 -94 -104 -326q0 -21 4 -71q1 -11 5 -60t6.5 -67t9 -54.5t17 -64t25.5 -53.5q10 -18 10 -41q-3 -34 -33.5 -56t-66.5 -22h-6 q-66 4 -66 73v27q0 45 -21.5 131.5t-25.5 118.5q-14 96 -14 168z" />
<glyph unicode="&#x443;" horiz-adv-x="1320" d="M-160 -1042q0 91 35 200q0 1 3 7.5t3 7.5q48 120 137 237.5t203 218t225.5 181t237.5 155.5q20 10 41 10q29 0 51.5 -24.5t22.5 -54.5q0 -13 -1 -20t-6.5 -17t-17.5 -17q-1 -1 -6 -4t-6 -4q-504 -309 -688 -620q-74 -131 -74 -222q0 -82 42 -153.5t130 -116.5 q149 -78 277 -78q177 0 253 146q78 154 130 325.5t77.5 354t35 346t9.5 362.5q0 2 -6 389q0 3 -1.5 5t-4.5 1q-6 0 -6 -2q-44 -87 -92.5 -158.5t-106.5 -132t-124.5 -94.5t-135.5 -34q-7 1 -15 1t-18 1q-1 0 -13 1t-13 1q-64 12 -112 48.5t-76 84.5t-45 115t-23 130t-6 140 q0 66 5.5 175.5t6.5 133.5q0 35 22.5 54.5t53.5 19.5q32 0 53.5 -18.5t21.5 -53.5q0 -7 -6 -81.5t-6 -133.5q0 -467 148 -467h2q34 0 82 33q104 70 189 190.5t135.5 245.5t78.5 258q6 27 24.5 41t43.5 14q33 -2 56.5 -21t23.5 -54q2 -107 11 -401.5t9 -456.5v-48v-41 q0 -431 -70 -776q-29 -151 -69.5 -275t-83.5 -207.5t-93 -147t-95 -99.5t-93.5 -58t-84.5 -29t-72 -7q-54 0 -78 8h-4q-31 1 -70 8.5t-90.5 24t-101 40.5t-98.5 63t-85.5 87t-59 116t-22.5 147z" />
<glyph unicode="&#x444;" horiz-adv-x="1310" d="M80 614q0 137 51 249t158 175q74 54 114 81t114 65t136 51q79 192 152 299q23 35 69 35q33 0 61 -23t28 -53q0 -19 -19 -41q-67 -105 -123 -221q114 -28 205.5 -110.5t149.5 -196.5q38 -77 38 -168q0 -103 -48 -216t-123.5 -206t-167 -166.5t-179.5 -108.5q-1 -1 -6 -2 t-6 -2q23 -143 33.5 -213.5t21.5 -186t11 -208.5q0 -386 -164 -694q-18 -37 -66 -37q-34 0 -61 24t-27 58q0 9 12 37q150 282 150 620q0 159 -41 410q-5 35 -33 162q-129 4 -231.5 92.5t-155.5 220t-53 274.5zM244 606q0 -95 29 -185t87.5 -156t133.5 -79q-17 157 -17 217 q0 68 2 101q34 283 107 528q-106 -54 -215 -133q-64 -39 -95.5 -117t-31.5 -176zM649 422q0 -97 13 -199q63 34 130.5 91.5t127.5 128t98.5 153t38.5 154.5q0 73 -39 129q-51 81 -117.5 135t-140.5 63q-111 -311 -111 -655z" />
<glyph unicode="&#x445;" horiz-adv-x="1765" d="M-217 -424q0 46 51 79q107 67 235.5 168.5t195.5 177.5q150 172 261 312q40 51 112.5 146t90.5 118q-290 354 -440 354q-68 0 -107 -71q-17 -31 -49 -31q-24 0 -43 18t-19 44q0 17 9 33q83 154 205 154q56 0 120 -30.5t136 -91.5t131.5 -121t141.5 -150q76 94 116 139 q111 124 238 203.5t249 79.5q159 0 280 -146q15 -18 15 -41q0 -30 -24 -53.5t-54 -23.5q-27 0 -46 23q-85 100 -187 100q-51 0 -107.5 -26t-103.5 -63t-101 -95t-91 -103.5t-82 -106.5q71 -79 115.5 -127t108 -109.5t109.5 -95.5t97 -58.5t93 -24.5q66 0 114 54q26 27 54 27 q32 0 57 -30t25 -65q0 -61 -71 -75q-27 -5 -68 -16.5t-74.5 -18t-65.5 -6.5q-25 0 -48 4q-113 17 -222 100q-57 44 -116.5 103.5t-95.5 101.5t-99 119q-234 -306 -396 -492q-40 -46 -114.5 -105t-140.5 -105.5t-134.5 -107t-103.5 -113.5q-29 -43 -70 -43q-34 0 -60.5 26.5 t-26.5 60.5z" />
<glyph unicode="&#x446;" horiz-adv-x="1320" d="M168 85q0 19 11 33q27 33 48 46q-2 17 -9.5 72t-11.5 87t-9 82t-7.5 95t-2.5 88q0 83 8 149t29 132.5t62.5 117.5t102.5 82q14 7 28 7q28 0 57.5 -21t29.5 -45q0 -27 -26 -46q-41 -28 -68 -74t-39 -106.5t-16 -104.5t-5 -106q0 -8 -2 -58.5t-2 -79.5q0 -146 37 -222 q25 4 89 11q21 2 86.5 10t107.5 11t86 3q40 0 59 -1q1 16 3 66t4 67q19 153 44 258q64 278 192 278q11 0 16 -1q27 -4 47.5 -23t20.5 -39q0 -39 -36 -60q-23 -14 -40 -40t-28 -68.5t-16 -67t-11.5 -76.5t-7.5 -56q-1 -7 -20.5 -106.5t-20.5 -148.5h3q14 -2 62 -8t72.5 -10 t72.5 -12t77 -17t70.5 -23t67.5 -31.5t53.5 -40t44 -52t24.5 -64.5q2 -14 2 -20q0 -44 -41 -66q-24 -54 -102 -122q-23 -20 -73 -61t-77.5 -64.5t-64 -62.5t-63.5 -78q-101 -148 -166 -328t-65 -351q0 -143 48 -257q7 -18 7 -35q0 -38 -31.5 -62.5t-69.5 -24.5q-28 0 -48 16 t-21 47q-3 53 -19.5 179t-16.5 195q0 52 7 100q31 227 136 430q124 243 249 342q22 17 76.5 57.5t92.5 72t70 64.5q0 2 0.5 7t0.5 8q0 34 -143 64.5t-277 44.5t-173 14q-99 0 -275.5 -25t-245.5 -29h-3q-22 0 -36.5 17.5t-14.5 40.5z" />
<glyph unicode="&#x447;" horiz-adv-x="1146" d="M119 770q0 79 22 155.5t58 127.5q20 29 57 29q25 0 42.5 -15.5t17.5 -41.5q0 -9 -5 -52q-3 -25 -24 -41q-16 -64 -16 -132q0 -74 24.5 -121.5t80.5 -47.5h8q90 6 192.5 57.5t164.5 119.5q9 11 22 17q62 317 189 317q14 0 27 -3q41 -10 41 -46q0 -43 -43 -65q-1 -2 -7 -17 q-9 -25 -15 -51q-13 -63 -25 -141q-24 -152 -40 -323q-2 -24 -22.5 -200.5t-24.5 -269.5q-1 -28 -24.5 -45.5t-52.5 -17.5q-23 0 -38.5 12.5t-16.5 37.5q0 7 -1 42t-1 61q0 274 25 510q-5 -3 -37 -23t-40 -24.5t-36.5 -21.5t-41 -22.5t-38.5 -18t-42.5 -17.5t-39.5 -11.5 t-43.5 -9t-41.5 -2.5q-52 0 -105 19q-52 19 -86.5 62.5t-49 96.5t-14.5 116z" />
<glyph unicode="&#x448;" horiz-adv-x="1409" d="M47 594q0 238 59 389q7 21 26.5 33t41.5 12q25 0 42 -13.5t17 -37.5q0 -8 -2 -14q-36 -204 -36 -312q0 -67 1.5 -110t8.5 -113.5t26.5 -124.5t49.5 -88q2 -2 14 -20q121 58 268 77q-14 143 -14 248q0 284 86 504q7 22 27.5 33.5t44.5 11.5q25 0 42 -13t17 -38 q0 -8 -2 -14q-44 -208 -53 -420q0 -21 -2 -67t-2 -71q0 -99 20 -163h16q155 0 392 -33q4 28 4 47q0 41 -12 116.5t-13 86.5q-10 128 -10 155q0 31 2 45q16 206 139 332q21 21 45 21q26 0 47 -21t21 -49q0 -19 -12 -37q-76 -113 -76 -274q0 -72 8 -135q4 -58 4 -86 q0 -25 -2 -78t-2 -78q0 -45 2 -68q15 0 35 -4q39 -6 58.5 -29t19.5 -53q0 -39 -26 -69.5t-64 -30.5q-16 0 -31 6q-195 66 -418 66q-58 0 -137 -7q-29 -16 -62 -16q-17 0 -32 6q-175 -28 -330 -86q-23 -51 -68 -51h-2q-31 0 -49 7.5t-43 29.5q-16 13 -16 39q0 35 22 57 q-14 18 -14 43q-6 64 -41 217t-35 242z" />
<glyph unicode="&#x449;" horiz-adv-x="1701" d="M74 510q0 338 174 481q22 19 45 19q25 0 43 -19t18 -45q0 -27 -22 -49q-83 -81 -93 -384q-1 -13 -1 -19q0 -17 -1 -61.5t-1 -70.5q0 -169 45 -237q56 16 180 45t188 49q6 2 16.5 6t19 6.5t15.5 4.5q15 452 218 851q21 43 71 43q25 0 43.5 -14t18.5 -39q0 -7 -7 -28 q-146 -353 -167 -586q-9 -89 -9 -178q23 6 76 14q76 12 150 12q138 0 266 -43q40 213 80 314q14 36 44.5 111t53 132.5t41.5 110.5q7 22 26.5 33.5t41.5 11.5q25 0 42 -13t17 -38q0 -8 -2 -12q-13 -67 -48 -159t-68 -165.5t-59 -165t-26 -164.5q0 -21 4 -57v-6 q29 -17 29 -49q0 -30 -24 -55t-54 -25q-14 0 -20 2q-171 63 -340 63q-101 0 -228 -26q2 -58 17 -275q3 -44 3 -66q0 -21 -3.5 -60t-3.5 -85q0 -33 0.5 -84t0.5 -71q0 -110 -15.5 -191.5t-69.5 -218.5q-19 -53 -82 -53q-32 0 -56 20t-24 51q0 6 2.5 14t7 18.5t6.5 17.5 q8 24 21.5 64t18.5 54t13 43t10 46t5.5 47.5t4.5 62.5t1 76q0 98 -3 173.5t-8.5 163.5t-8.5 156q0 4 -3.5 23.5t-3.5 23.5q-78 -24 -129 -38t-122.5 -26.5t-131.5 -12.5q-29 0 -41 2q-10 0 -14 2q-27 -17 -53 -17q-58 0 -72 64q-63 262 -63 475z" />
<glyph unicode="&#x44a;" horiz-adv-x="1282" d="M43 1000q0 30 4 102q1 27 19 44t45 19q36 2 55 2q78 0 233 -15t232 -15q116 0 203 22l2 2q20 20 50 20q42 0 60 -34q0 -2 2 -4q13 -20 10 -45q0 -7 -4 -23q-15 -33 -43 -39l-2 -2q-110 -37 -196.5 -187.5t-112.5 -324.5q78 55 166 92t164 37q82 0 137 -50t70 -161 q4 -24 4 -55q0 -101 -48 -190t-134 -143.5t-189 -54.5q-26 0 -61 5q-135 23 -199 123t-64 250q0 158 63.5 334t162.5 303q-87 0 -254 13.5t-250 14.5q0 -8 -1 -23t-1.5 -27.5t-0.5 -23.5q0 -24 3 -48q1 -4 1 -12q0 -27 -20 -44.5t-45 -17.5q-41 0 -51 43q-10 49 -10 113z M594 348q6 -73 37 -127q43 -78 130 -78q75 0 142.5 54t79.5 129q4 25 4 52q0 116 -100 116q-59 0 -132.5 -37.5t-123.5 -87.5q-14 -17 -37 -21z" />
<glyph unicode="&#x44b;" horiz-adv-x="1464" d="M147 426q0 191 71 391.5t175 306.5q19 19 41 19q23 0 41 -18.5t18 -43.5q0 -22 -16 -41q-139 -163 -184 -413q-21 -121 -21 -206v-32q2 12 19 33q67 67 155 113.5t171 46.5q101 0 171 -74q64 -68 64 -171q0 -111 -68 -209.5t-166 -121.5q-71 -16 -132 -16 q-89 0 -156 34.5t-106 95.5t-58 137.5t-19 168.5zM276 336q21 -137 111 -178q51 -24 109 -24q86 0 148.5 47t62.5 127q0 35 -15 77q-21 55 -79 55q-52 0 -113.5 -37.5t-85.5 -74.5t-63 -37q-22 0 -43 12.5t-32 32.5zM998 436q0 79 14 150q11 56 28.5 124.5t27 103 t37.5 128.5t32 109q11 37 56 37q31 0 57.5 -18.5t26.5 -44.5q0 -6 -1 -9q-12 -63 -46.5 -192.5t-55 -236.5t-20.5 -201q0 -127 42 -232q5 -13 5 -22q0 -27 -27.5 -45t-62.5 -18q-34 0 -58.5 17.5t-28.5 52.5q-3 23 -8.5 73.5t-8.5 78.5t-6 69.5t-3 75.5z" />
<glyph unicode="&#x44c;" horiz-adv-x="983" d="M104 512q0 132 39 266t105 246q25 41 67 41q33 0 59.5 -24t26.5 -56q0 -20 -12 -41q-118 -204 -121 -412q74 46 161 71.5t167 25.5h31q117 -6 175 -90.5t58 -202.5q0 -110 -53 -205q-42 -73 -111 -109t-151 -36q-97 0 -190 46.5t-148 123.5q-24 34 -41 67q-55 23 -55 78 v12q1 6 6 18.5t6 18.5q-19 84 -19 162zM299 340q35 -82 103 -145.5t139 -63.5q65 0 116 68q48 60 48 127q0 59 -38 99t-100 40q-30 0 -61 -8q-156 -42 -207 -117z" />
<glyph unicode="&#x44d;" horiz-adv-x="1243" d="M100 156q0 35 27 65t60 30q29 0 53 -28q45 -54 141 -54q62 0 130.5 21.5t115.5 49.5q160 94 227 225q-52 11 -84 24q-9 4 -43 22.5t-56.5 27.5t-45.5 14q-26 4 -41 4q-36 0 -82.5 -12t-70 -20.5t-77.5 -30.5q-13 -5 -22 -5q-24 0 -39 20t-15 46q0 37 27 55q142 95 288 95 h21q47 -2 140 -49.5t139 -49.5v17q0 107 -56.5 191.5t-158.5 109.5q-63 15 -124 15q-163 0 -321 -99q-15 -9 -30 -9q-24 0 -42 19.5t-18 44.5q0 24 17 41q75 77 174.5 116t208.5 39q97 0 189 -31t164 -87t116 -142t44 -188q0 -45 -9 -94q-29 -147 -129.5 -271t-237.5 -190 q-154 -72 -266 -74q-35 0 -72 7t-56 13.5t-65 24.5t-61 23q-60 22 -60 74z" />
<glyph unicode="&#x44e;" horiz-adv-x="1601" d="M139 -72q0 40 22 426.5t23 575.5q0 28 31 46.5t70 18.5q75 0 75 -45q-6 -220 -20 -489q7 0 17.5 -4.5t15.5 -5.5q18 -2 57 -2q85 0 158 28q1 0 6.5 42t5.5 46q2 5 9 26t11.5 32t14 31.5t19.5 34t25.5 29t33.5 27.5q1 1 6 8t10 13t6 6q1 3 23.5 16t27.5 15q143 65 316 65 q137 0 233.5 -51t149.5 -168q39 -93 39 -166q0 -152 -84 -271.5t-232 -168.5q-95 -29 -180 -29q-130 0 -235 60t-154 180q-11 22 -158 22q-23 0 -86 -12.5t-76 -13.5q-2 -47 -5.5 -107t-5 -104t-1.5 -107q0 -25 -26.5 -39t-61.5 -14t-57.5 12t-22.5 37zM731 487 q0 -115 51 -204q58 -111 207 -111q79 0 150 18q77 19 146 97t69 172q0 68 -37 135q-24 44 -55.5 73t-68 42.5t-64.5 18.5t-64 7q-12 1 -35 1q-67 0 -117.5 -14.5t-78 -38t-40 -40.5t-20.5 -35q-3 -7 -11 -23t-12 -25.5t-9.5 -23.5t-8 -26t-2.5 -23z" />
<glyph unicode="&#x44f;" horiz-adv-x="1396" d="M-13 116q0 62 17 122q4 19 19.5 29.5t34.5 10.5q23 0 40 -14t17 -37v-6q-8 -61 -8 -77q0 -77 54 -77q17 0 38 7q124 40 229 137q106 99 170 195q-21 3 -74 9t-83.5 11.5t-72.5 16t-73 27.5t-53 42q-43 47 -43 110q0 68 43 140t100 125q59 56 138 98t152 42q88 0 142 -71 q76 -99 76 -238q0 -111 -47 -229q88 -47 147 -127q9 -14 26.5 -43t28 -44t29 -33.5t42.5 -26.5t55 -8h4q115 3 243 47q52 16 82 27.5t44.5 17.5t51 23t73.5 34q21 10 40 10q29 0 42.5 -21.5t13.5 -52.5q0 -61 -53 -79q-76 -24 -167 -68.5t-165.5 -67.5t-179.5 -23 q-29 0 -44 1q-84 7 -144 36t-97 95q-26 47 -41 72.5t-41 55.5t-56 48q-1 -2 -3 -5t-3 -5q-49 -75 -106.5 -141.5t-129 -129.5t-156 -103t-169.5 -46q-8 -1 -23 -1q-84 0 -122 51.5t-38 133.5zM355 647q0 -45 69 -63q44 -11 126.5 -26t117.5 -23q30 77 30 153q0 11 -2 33 q-13 156 -82 156h-4q-83 -2 -174 -97q-81 -87 -81 -133z" />
<glyph unicode="&#x451;" horiz-adv-x="1083" d="M98 453q0 108 36.5 212t108.5 190t169 130q90 41 186 41q108 0 180 -53.5t72 -155.5q0 -47 -21 -108q-45 -130 -159 -210.5t-248 -80.5q-86 0 -178 45v-21q0 -154 106 -211q75 -45 174 -45q168 0 346 121q28 19 50 19q29 0 47 -24t18 -56q0 -57 -47 -88 q-99 -66 -215.5 -108t-224.5 -42q-116 0 -209.5 55.5t-147.5 174.5q-43 101 -43 215zM210 1264v8q3 27 27 46t54 19q2 0 5.5 -1t5.5 -1q32 -4 54 -26t22 -51q0 -2 -1 -4.5t-1 -4.5q-3 -28 -24.5 -46t-51.5 -18q-2 0 -7 1t-8 1q-33 4 -54 26t-21 51zM268 592q42 -14 72 -19 q23 -6 72 -6q98 0 171 54t95 145q2 6 2 20q0 41 -30.5 74t-71.5 33l-3 -4q-65 -4 -128.5 -51.5t-108.5 -112.5q-48 -72 -70 -133zM735 1287v8q4 28 26.5 46.5t52.5 18.5h12q32 -4 53.5 -27.5t21.5 -53.5v-7q-4 -28 -26 -46t-51 -18q-2 0 -7 0.5t-7 0.5q-33 4 -54 26t-21 52z " />
<glyph unicode="&#x454;" horiz-adv-x="1107" d="M129 449q0 77 18 157q38 159 151.5 285.5t266.5 163.5q47 12 101 12q101 0 153 -57q60 -67 60 -113q0 -41 -45 -86q-12 -12 -31 -12t-33 12.5t-14 30.5q0 5 3 14.5t3 15.5q0 28 -46 46t-83 18q-3 0 -8 -1t-7 -1q-42 -5 -88 -31q-120 -61 -163 -125q-90 -133 -107 -270 q45 32 63 44.5t61.5 37t77 34.5t87 19t113.5 9q27 0 52 -3t51.5 -7.5t41.5 -6.5q27 -4 47 -34t20 -52q0 -27 -19.5 -49.5t-47.5 -22.5q-17 0 -33 8q-66 29 -141 29q-109 0 -211.5 -46.5t-145.5 -125.5q33 -95 111.5 -138.5t185.5 -43.5q102 0 210.5 35.5t185.5 91.5 q26 16 45 16q27 0 45 -19.5t18 -45.5q0 -41 -41 -58q-80 -38 -120.5 -55.5t-116 -46.5t-141.5 -42t-128 -13q-130 0 -224.5 64t-137.5 161q-11 8 -14 28v7q-25 80 -25 166z" />
<glyph unicode="&#x456;" horiz-adv-x="665" d="M115 492q0 229 78 448q20 55 79 55q32 0 55 -20t23 -51q0 -13 -2 -25q-31 -84 -55.5 -205.5t-24.5 -228.5q0 -83 16.5 -144.5t61 -102t113.5 -40.5q37 0 86 12q12 3 22 3q34 0 55 -25.5t21 -58.5q0 -57 -55 -74q-80 -21 -139 -21q-72 0 -129.5 26t-95.5 70.5t-63 106.5 t-35.5 130t-10.5 145zM337 1314q0 8 2 19t2 12v18q0 5 2.5 11.5t2.5 16.5q0 35 37 68.5t70 33.5q2 0 26 -6q73 -31 76 -107v-14q0 -46 -17.5 -92t-48.5 -74q-31 -24 -59 -24t-51 20.5t-23 50.5q0 12 -9.5 32t-9.5 35z" />
<glyph unicode="&#x457;" horiz-adv-x="843" d="M63 1352v20q6 56 48 93.5t94 37.5h12q47 -6 79 -44t32 -89q0 -4 -1 -12t-1 -12q-6 -57 -45.5 -94.5t-90.5 -37.5h-14q-47 6 -80 46t-33 92zM178 492q0 223 80 448q20 55 78 55q32 0 56 -20t24 -51q0 -9 -4 -25q-32 -87 -57 -206.5t-25 -227.5q0 -287 190 -287q39 0 88 12 q12 3 25 3q34 0 55 -25.5t21 -58.5q0 -57 -56 -74q-79 -21 -143 -21q-90 0 -156 39t-103.5 107.5t-55 151t-17.5 180.5zM541 1350q0 3 2 10t2 10q6 56 44 93.5t89 37.5q3 0 8 -2t8 -2q48 -5 79.5 -42t31.5 -89q0 -4 -2 -13.5t-2 -13.5q-6 -57 -44 -93t-89 -36h-15 q-47 4 -79.5 45.5t-32.5 94.5z" />
<glyph unicode="&#x45e;" horiz-adv-x="1320" d="M-160 -1042q0 91 35 200q0 1 3 7.5t3 7.5q48 120 137 237.5t203 218t225.5 181t237.5 155.5q20 10 41 10q29 0 51.5 -24.5t22.5 -54.5q0 -13 -1 -20t-6.5 -17t-17.5 -17q-1 -1 -6 -4t-6 -4q-504 -309 -688 -620q-74 -131 -74 -222q0 -82 42 -153.5t130 -116.5 q149 -78 277 -78q177 0 253 146q78 154 130 325.5t77.5 354t35 346t9.5 362.5q0 2 -6 389q0 3 -1.5 5t-4.5 1q-6 0 -6 -2q-44 -87 -92.5 -158.5t-106.5 -132t-124.5 -94.5t-135.5 -34q-7 1 -15 1t-18 1q-1 0 -13 1t-13 1q-64 12 -112 48.5t-76 84.5t-45 115t-23 130t-6 140 q0 66 5.5 175.5t6.5 133.5q0 35 22.5 54.5t53.5 19.5q32 0 53.5 -18.5t21.5 -53.5q0 -7 -6 -81.5t-6 -133.5q0 -467 148 -467h2q34 0 82 33q104 70 189 190.5t135.5 245.5t78.5 258q6 27 24.5 41t43.5 14q33 -2 56.5 -21t23.5 -54q2 -107 11 -401t9 -457v-48v-41 q0 -430 -70 -776q-29 -151 -69.5 -275t-83.5 -207.5t-93 -147t-95 -99.5t-93.5 -58t-84.5 -29t-72 -7q-54 0 -78 8h-4q-31 1 -70 8.5t-90.5 24t-101 40.5t-98.5 63t-85.5 87t-59 116t-22.5 147zM401 1488q0 40 9 81q9 49 45 55q3 1 10 1q20 0 36 -14t21 -38q2 -8 2 -25 q-1 -6 -1 -18q0 -22 5 -47q10 -47 38.5 -79t66.5 -32q13 0 20 2q12 2 47 21q106 75 150 184q10 30 43 41q4 1 12 1q27 0 50 -16t30 -42q3 -20 -8 -45q-43 -114 -105.5 -182.5t-162.5 -90.5q-4 -1 -12 0t-11 0q-27 -5 -62 -5q-89 0 -143.5 45t-70.5 122q-9 47 -9 81z" />
<glyph unicode="&#x490;" horiz-adv-x="993" d="M-109 438q0 92 66 158q27 27 51 27q32 0 57 -26t25 -58t-22 -54q-21 -21 -21 -63q0 -60 38 -131.5t99 -114.5q56 -39 101 -39q55 0 99.5 47t69 115t37.5 133.5t13 114.5v8q-4 111 -29 247t-52.5 242.5t-50 240.5t-22.5 245v29q0 31 25.5 56t56.5 25q18 0 39 -14 q183 -133 346 -133q7 0 20.5 1t20.5 1q123 9 227 70l121 123h-4q-35 0 -54.5 22t-19.5 53q0 33 20 57t58 25h11q73 0 108 -34t35 -93q0 -68 -40 -144t-97 -112q-183 -123 -396 -123q-152 0 -309 74q11 -108 50 -261.5t69.5 -297.5t30.5 -262q0 -63 -13 -139 q-9 -54 -25.5 -113.5t-47 -130.5t-68 -126t-92.5 -92.5t-117 -37.5h-20q-63 5 -134 53t-128 117t-94.5 154.5t-37.5 160.5z" />
<glyph unicode="&#x491;" horiz-adv-x="1075" d="M-45 383v8q0 39 25.5 60.5t60.5 21.5q36 0 64.5 -24t29.5 -66q0 -2 1 -33.5t1.5 -41t2.5 -36.5t5 -41t9 -33.5t14 -33.5q38 -71 98 -71q17 0 47 7q25 7 51.5 47t34.5 80q23 89 23 189q0 11 2 55.5t2 63.5v16q-25 255 -133 483q-12 21 -12 43q0 38 25 66t61 28q2 0 26 -6 q89 -30 211 -30q200 0 322 47q72 27 109.5 73t37.5 103q0 23 -19.5 59t-19.5 49q0 36 22.5 62t61.5 26h3q63 0 96.5 -61t33.5 -150q0 -109 -104 -219q-55 -57 -119 -93t-142 -51.5t-139 -19.5t-157 -4q-14 0 -76 5q82 -254 82 -480q0 -285 -82 -422q-87 -139 -213 -139 q-78 1 -144 43.5t-108.5 110.5t-67 148.5t-26.5 160.5z" />
<glyph unicode="&#x2000;" horiz-adv-x="1341" />
<glyph unicode="&#x2001;" horiz-adv-x="2683" />
<glyph unicode="&#x2002;" horiz-adv-x="1341" />
<glyph unicode="&#x2003;" horiz-adv-x="2683" />
<glyph unicode="&#x2004;" horiz-adv-x="894" />
<glyph unicode="&#x2005;" horiz-adv-x="670" />
<glyph unicode="&#x2006;" horiz-adv-x="447" />
<glyph unicode="&#x2007;" horiz-adv-x="447" />
<glyph unicode="&#x2008;" horiz-adv-x="335" />
<glyph unicode="&#x2009;" horiz-adv-x="536" />
<glyph unicode="&#x200a;" horiz-adv-x="149" />
<glyph unicode="&#x2010;" d="M119 616q0 36 59.5 61t167.5 25q83 0 170 -3t194 -11t174.5 -26.5t67.5 -45.5q0 -48 -94.5 -60.5t-368.5 -12.5h-135q-99 0 -150 7.5t-68 22.5t-17 43z" />
<glyph unicode="&#x2011;" d="M119 616q0 36 59.5 61t167.5 25q83 0 170 -3t194 -11t174.5 -26.5t67.5 -45.5q0 -48 -94.5 -60.5t-368.5 -12.5h-135q-99 0 -150 7.5t-68 22.5t-17 43z" />
<glyph unicode="&#x2012;" d="M119 616q0 36 59.5 61t167.5 25q83 0 170 -3t194 -11t174.5 -26.5t67.5 -45.5q0 -48 -94.5 -60.5t-368.5 -12.5h-135q-99 0 -150 7.5t-68 22.5t-17 43z" />
<glyph unicode="&#x2013;" horiz-adv-x="925" d="M104 340q0 34 54 57t147 23q218 0 379.5 -24t161.5 -56q0 -41 -79 -51t-335 -15h-119q-88 0 -133.5 7t-60.5 20.5t-15 38.5z" />
<glyph unicode="&#x2014;" horiz-adv-x="1830" d="M162 340q0 17 21 31t63 25.5t112.5 18t162.5 6.5q45 0 156.5 -5.5t175.5 -6.5q20 0 59.5 -0.5t58.5 -0.5h134q205 0 329.5 -17.5t124.5 -50.5q0 -41 -147.5 -51t-631.5 -15h-227q-166 0 -251.5 7t-112.5 20.5t-27 38.5z" />
<glyph unicode="&#x2018;" horiz-adv-x="245" d="M67 1593q0 58 25.5 127t66 149.5t53.5 113.5q17 46 59 49q1 0 4 0.5t5 0.5q21 0 37.5 -12.5t19.5 -31.5t-12 -43q-28 -37 -50.5 -98t-22.5 -117q0 -17 1 -25t21 -72t20 -102v-10q-2 -52 -34.5 -78t-71.5 -26q-24 0 -37 10q-73 56 -82 135q-2 20 -2 30z" />
<glyph unicode="&#x2019;" horiz-adv-x="174" d="M131 1272q-3 19 12 43q28 37 50.5 98t22.5 117q0 16 -1 24t-21 72.5t-20 102.5v10q2 52 35 78t72 26q23 0 36 -10q73 -56 82 -135q2 -20 2 -30q0 -58 -25.5 -127t-66 -149.5t-53.5 -113.5q-17 -46 -59 -49q-1 0 -4 -0.5t-5 -0.5q-21 0 -37.5 12.5t-19.5 31.5z" />
<glyph unicode="&#x201a;" horiz-adv-x="342" d="M68 -303q-3 19 12 43q28 37 50.5 98t22.5 117q0 17 -1 25q-1 9 -21.5 72.5t-20.5 101.5q0 2 0.5 5t0.5 5q2 52 34.5 78t71.5 26q24 0 37 -10q73 -56 82 -135q2 -20 2 -30q0 -58 -25.5 -127t-66 -149.5t-53.5 -113.5q-17 -46 -60 -49q-1 0 -3.5 -0.5t-4.5 -0.5 q-21 0 -37.5 12.5t-19.5 31.5z" />
<glyph unicode="&#x201c;" horiz-adv-x="585" d="M67 1593q0 58 25.5 127t66 149.5t53.5 113.5q17 46 59 49q1 0 4 0.5t5 0.5q21 0 37.5 -12.5t19.5 -31.5t-12 -43q-28 -37 -50.5 -98t-22.5 -117q0 -17 1 -25t21 -72t20 -102v-10q-2 -52 -34.5 -78t-71.5 -26q-24 0 -37 10q-73 56 -82 135q-2 20 -2 30zM427 1593 q0 58 25.5 127.5t66.5 149t54 113.5q17 46 59 49q2 0 5 0.5t4 0.5q21 0 37 -12.5t19 -31.5t-12 -43q-28 -37 -50.5 -98t-22.5 -117q0 -9 2 -25q1 -8 21 -72t20 -102q0 -2 -0.5 -5t-0.5 -5q-2 -52 -34.5 -78t-71.5 -26q-24 0 -37 10q-73 56 -82 135q-2 20 -2 30z" />
<glyph unicode="&#x201d;" horiz-adv-x="604" d="M43 1346q-3 19 12 43q28 39 51 99t23 116q0 4 -1 12t-1 12q-1 8 -21 71.5t-20 102.5v10q1 52 34.5 78.5t72.5 26.5q23 0 36 -10q73 -56 82 -135q2 -10 2 -31q0 -57 -26 -126.5t-66 -148.5t-53 -114q-17 -46 -59 -49h-9q-22 0 -38 11.5t-19 31.5zM403 1346q-3 18 13 43 q27 38 50 98.5t23 116.5q0 4 -1 12t-1 12q-1 8 -21 71.5t-20 102.5v10q1 52 34.5 78.5t72.5 26.5q24 0 37 -10q73 -56 82 -135q2 -10 2 -31q0 -57 -26 -126.5t-66.5 -148t-53.5 -114.5q-17 -46 -59 -49h-8q-22 0 -38.5 11.5t-19.5 31.5z" />
<glyph unicode="&#x201e;" horiz-adv-x="604" d="M18 -295q-3 18 13 43q27 38 50 98.5t23 116.5q0 4 -1 12.5t-1 12.5q-1 8 -21 71.5t-20 102.5v10q1 52 34.5 78t72.5 26q24 0 37 -10q73 -56 82 -135q2 -10 2 -31q0 -57 -26 -126.5t-66.5 -148t-53.5 -114.5q-17 -46 -59 -49h-8q-22 0 -38.5 11.5t-19.5 31.5zM379 -295 q-3 19 12 43q28 39 51 99t23 116q0 4 -1 12.5t-1 12.5q-1 8 -21 71.5t-20 102.5v10q1 52 34 78t72 26q24 0 37 -10q73 -56 82 -135q2 -10 2 -31q0 -57 -26 -126.5t-66 -148.5t-53 -114q-17 -46 -60 -49h-8q-22 0 -38 11.5t-19 31.5z" />
<glyph unicode="&#x202f;" horiz-adv-x="536" />
<glyph unicode="&#x205f;" horiz-adv-x="670" />
<glyph unicode="&#x20ac;" horiz-adv-x="1296" d="M-23 729q0 16 11 28t30 15q51 7 226 16q102 187 327 371q90 73 193.5 120.5t198.5 47.5q160 0 247 -147q7 -14 7 -23q0 -18 -15 -32.5t-33 -14.5t-32 14q-73 90 -185 90q-136 0 -290 -122.5t-256 -298.5q401 0 622 14h6q32 0 51 -19t19 -45q0 -22 -14.5 -38t-42.5 -19 q-227 -24 -517 -24q-123 0 -184 2q-38 -89 -43 -166q188 -6 352 -6q199 0 322 4h2q33 0 52.5 -20.5t19.5 -47.5q0 -22 -15.5 -38t-44.5 -17q-78 -2 -225 -2q-70 0 -218.5 1t-234.5 1q8 -45 33 -86q48 -83 134 -138.5t185.5 -79.5t213.5 -24q142 0 276 35q4 0 10 -1t20 -11.5 t21 -28.5q5 -11 5 -23q0 -10 -4 -19.5t-8.5 -15t-9 -10.5t-5.5 -6q-154 -57 -318 -57q-61 0 -143 10q-101 15 -189 50t-161.5 89.5t-124.5 135t-70 178.5q-12 -2 -33 -2t-61 5t-61 5q-19 0 -30 14.5t-11 34.5q0 46 41 49q18 2 45 2h41q35 0 55 2v19q0 70 31 172 q-98 3 -177 14q-19 3 -30 15t-11 28z" />
<glyph unicode="&#x2122;" horiz-adv-x="1863" d="M132 1714q0 19 12 34t32 15h2q85 0 219 29q2 23 16 35.5t32 12.5q31 0 44 -30q12 2 59.5 8.5t72.5 10.5t59 14.5t55 24.5q21 12 39 12q26 0 41.5 -22.5t15.5 -51.5q0 -25 -13.5 -42t-39.5 -17h-8h-14q-33 0 -100 -19t-85 -22q-64 -14 -75 -16q0 -20 -2 -59.5t-2 -61.5 v-31q0 -132 26 -149q31 -19 31 -50q0 -26 -23.5 -45.5t-50.5 -19.5q-50 0 -55 61q-2 13 -15 43.5t-14 48.5q-10 62 -10 117q0 86 4 127q-68 -10 -123 -10l-96 10q-34 7 -34 43zM781 1374q0 12 5 21q10 23 41 96.5t53 123t46 95.5q8 14 28.5 25t36.5 11q18 0 21 -15 q12 -61 81.5 -118t139.5 -57q56 0 92 39q36 35 99.5 113t99.5 113q19 16 47 16q41 0 55 -33q35 -74 48 -167t21.5 -192.5t30.5 -168.5q5 -10 5 -23q0 -25 -18.5 -40t-43.5 -15t-43.5 16t-21.5 46q-2 21 -6.5 74.5t-8 84.5t-9.5 77t-14.5 85t-19.5 74q-9 -10 -39.5 -46 t-42 -49t-40.5 -40t-49.5 -38.5t-52 -24.5t-65.5 -17q-8 -2 -26 -2q-29 0 -54.5 7.5t-51.5 25.5t-41 30t-45 40.5t-40 37.5q-5 -11 -22 -48t-25.5 -54t-24.5 -45.5t-32 -50.5t-35 -42q-14 -15 -32 -15q-19 0 -33 15t-14 35z" />
<glyph unicode="&#x25fc;" horiz-adv-x="1126" d="M0 0v1126h1126v-1126h-1126z" />
</font>
</defs>
</svg>
