<svg version="1" xmlns="http://www.w3.org/2000/svg" viewBox="0 0 2200 4380"><path opacity=".1" fill="#231F20" d="M0 970.324l2125.984-734.718L0-499.112"/><path opacity=".2" fill="#231F20" d="M0 360.85l566.93-195.926L0-31"/><path opacity=".9" fill="#3DC0BD" d="M2200 1097.165L518.52 516.062 2200-65.04"/><path opacity=".1" fill="#231F20" d="M2200 1097.165V210L916.447 653.582"/><path opacity=".4" fill="#3DC0BD" d="M0 2106.205l1681.48-581.103L0 944"/><path opacity=".1" fill="#231F20" d="M0 2149.96l566.93-195.924L0 1758.112"/><path opacity=".9" fill="#3DC0BD" d="M2200 2581.063L518.52 2085 2200 1588.937"/><path opacity=".1" fill="#231F20" d="M0 4921.742l2125.984-678.444L0 3564.853"/><path opacity=".9" fill="#3DC0BD" d="M2200 4471.645L518.52 4032.273 2200 3592.903"/><path opacity=".1" fill="#231F20" d="M0 3328.11v274.72l421.182-129.163"/><path opacity=".8" fill="#3DC0BD" d="M0 3602.83l1681.48-515.655L0 2571.52"/><path opacity=".1" fill="#231F20" d="M2200 2030.464V878.97l-1194.084 412.664 675.564 233.468-471.9 163.084"/><path opacity=".2" fill="#231F20" d="M2200 1142.67l-466.93 161.366L2200 1465.402"/><path opacity=".1" fill="#231F20" d="M2200 3535.62V2513.814l-1194.084 366.187 675.564 207.173-471.9 144.715"/><path opacity=".2" fill="#231F20" d="M2200 3062.67l-466.93 161.366L2200 3385.402"/><path opacity=".1" fill="#231F20" d="M0 1521.69v1186.054l1210.91-418.478L518.52 2085l599.61-176.895"/></svg>